Berangeen-Bold.ufo
<glyph name=".notdef" format="2">
  <advance height="1000" width="512"/>
  <unicode hex="0000"/>
  <outline>
    <contour>
      <point x="22.0" y="849.497474683" type="line"/>
      <point x="490.0" y="849.497474683" type="line"/>
      <point x="539.497474683" y="800.0" type="line"/>
      <point x="539.497474683" y="3.5527136788e-15" type="line"/>
      <point x="490.0" y="-49.4974746831" type="line"/>
      <point x="22.0" y="-49.4974746831" type="line"/>
      <point x="-27.4974746831" y="1.06581410364e-14" type="line"/>
      <point x="-27.4974746831" y="800.0" type="line"/>
    </contour>
    <contour>
      <point x="440.502525317" y="750.502525317" type="line"/>
      <point x="71.4974746831" y="750.502525317" type="line"/>
      <point x="71.4974746831" y="49.4974746831" type="line"/>
      <point x="440.502525317" y="49.4974746831" type="line"/>
    </contour>
    <contour>
      <point x="295.497474683" y="350.502525317" type="line"/>
      <point x="295.497474683" y="212.0" type="line"/>
      <point x="196.502525317" y="212.0" type="line"/>
      <point x="196.502525317" y="400.0" type="line"/>
      <point x="246.0" y="449.497474683" type="line"/>
      <point x="316.751182737" y="449.497474683" type="line"/>
      <point x="324.839850412" y="470.202872671"/>
      <point x="328.521975671" y="489.516827388"/>
      <point x="328.521975671" y="507.668069886" type="curve" smooth="yes"/>
      <point x="328.521975671" y="531.948750576"/>
      <point x="321.933156998" y="554.148866528"/>
      <point x="310.489532154" y="574.815923422" type="curve"/>
      <point x="293.261831294" y="583.939673643"/>
      <point x="275.765646097" y="588.501548753"/>
      <point x="258.000976566" y="588.501548753" type="curve" smooth="yes"/>
      <point x="245.956559956" y="588.501548753"/>
      <point x="233.788725994" y="586.404537969"/>
      <point x="221.497474683" y="582.210516406" type="curve"/>
      <point x="221.497474683" y="570.0" type="line"/>
      <point x="194.946566293" y="570.0" type="line"/>
      <point x="187.343606112" y="565.613991176"/>
      <point x="179.694750681" y="560.448166282"/>
      <point x="172.0" y="554.502525317" type="curve"/>
      <point x="187.497474683" y="570.0" type="line"/>
      <point x="122.502525317" y="570.0" type="line"/>
      <point x="122.502525317" y="604.0" type="line"/>
      <point x="172.0" y="653.497474683" type="line"/>
      <point x="201.333984375" y="676.163490308"/>
      <point x="230.000976562" y="687.496498121"/>
      <point x="258.000976562" y="687.496498121" type="curve" smooth="yes"/>
      <point x="286.000976562" y="687.496498121"/>
      <point x="315.253033988" y="678.244440695"/>
      <point x="340.0" y="653.497474683" type="curve" smooth="yes"/>
      <point x="389.497474683" y="604.0" type="line"/>
      <point x="412.942163249" y="575.290810403"/>
      <point x="427.516925035" y="543.780591296"/>
      <point x="427.516925035" y="507.668069878" type="curve" smooth="yes"/>
      <point x="427.516925035" y="475.78050428"/>
      <point x="416.152994496" y="440.304527115"/>
      <point x="389.497474683" y="400.0" type="curve"/>
      <point x="340.0" y="350.502525317" type="line"/>
    </contour>
    <contour>
      <point x="200.502525317" y="152.0" type="line"/>
      <point x="299.497474683" y="152.0" type="line"/>
      <point x="299.497474683" y="108.0" type="line"/>
      <point x="200.502525317" y="108.0" type="line"/>
    </contour>
  </outline>
</glyph>
<glyph name="exclam" format="2">
  <advance width="109"/>
  <unicode hex="0021"/>
  <outline>
    <contour>
      <point x="0.502525316942" y="812.0" type="line"/>
      <point x="99.4825730988" y="813.214479114" type="line"/>
      <point x="105.497474683" y="323.0" type="line"/>
      <point x="6.51742690116" y="321.785520886" type="line"/>
    </contour>
    <contour>
      <point x="9.50252531694" y="203.0" type="line"/>
      <point x="108.497474683" y="203.0" type="line"/>
      <point x="108.497474683" y="137.0" type="line"/>
      <point x="9.50252531694" y="137.0" type="line"/>
    </contour>
  </outline>
</glyph>
<glyph name="quotedbl" format="2">
  <advance width="520"/>
  <unicode hex="0022"/>
  <outline>
    <contour>
      <point x="167.002525317" y="671.0" type="line"/>
      <point x="164.002525317" y="737.0" type="line"/>
      <point x="262.997474683" y="737.0" type="line"/>
      <point x="265.997474683" y="671.0" type="line"/>
    </contour>
    <contour>
      <point x="257.002525317" y="674.0" type="line"/>
      <point x="355.997474683" y="674.0" type="line"/>
      <point x="352.997474683" y="740.0" type="line"/>
      <point x="254.002525317" y="740.0" type="line"/>
    </contour>
  </outline>
</glyph>
<glyph name="numbersign" format="2">
  <advance width="523"/>
  <unicode hex="0023"/>
  <outline>
    <contour>
      <point x="56.0" y="205.502525317" type="line"/>
      <point x="53.8332663655" y="304.450027961" type="line"/>
      <point x="467.0" y="313.497474683" type="line"/>
      <point x="469.166733635" y="214.549972039" type="line"/>
    </contour>
    <contour>
      <point x="56.0" y="405.502525317" type="line"/>
      <point x="53.8332663655" y="504.450027961" type="line"/>
      <point x="467.0" y="513.497474683" type="line"/>
      <point x="469.166733635" y="414.549972039" type="line"/>
    </contour>
    <contour>
      <point x="332.79142588" y="556.877853662" type="line"/>
      <point x="429.497474683" y="542.0" type="line"/>
      <point x="373.20857412" y="176.122146338" type="line"/>
      <point x="276.502525317" y="191.0" type="line"/>
    </contour>
    <contour>
      <point x="131.79142588" y="556.877853662" type="line"/>
      <point x="228.497474683" y="542.0" type="line"/>
      <point x="172.20857412" y="176.122146338" type="line"/>
      <point x="75.5025253169" y="191.0" type="line"/>
    </contour>
  </outline>
</glyph>
<glyph name="dollar" format="2">
  <advance width="541"/>
  <unicode hex="0024"/>
  <outline>
    <contour>
      <point x="200.502525317" y="203.0" type="line"/>
      <point x="299.497474683" y="203.0" type="line"/>
      <point x="299.497474683" y="-1.0" type="line"/>
      <point x="200.502525317" y="-1.0" type="line"/>
    </contour>
    <contour>
      <point x="233.502525317" y="803.0" type="line"/>
      <point x="332.497474683" y="803.0" type="line"/>
      <point x="332.497474683" y="611.0" type="line"/>
      <point x="233.502525317" y="611.0" type="line"/>
    </contour>
    <contour>
      <point x="234.025024948" y="546.955401101" type="curve" smooth="yes"/>
      <point x="234.025024948" y="531.312256262"/>
      <point x="236.624425321" y="515.738657989"/>
      <point x="242.095196968" y="501.063928282" type="curve"/>
      <point x="263.468214365" y="482.299501932"/>
      <point x="285.516192349" y="463.939752994"/>
      <point x="305.724185832" y="443.731759511" type="curve" smooth="yes"/>
      <point x="355.221660515" y="394.234284828" type="line" smooth="yes"/>
      <point x="391.290773917" y="358.165171426"/>
      <point x="420.125654205" y="317.411803822"/>
      <point x="420.125654205" y="265.567273561" type="curve" smooth="yes"/>
      <point x="420.125654205" y="248.925022399"/>
      <point x="417.154423264" y="231.139905189"/>
      <point x="410.497474683" y="212.0" type="curve"/>
      <point x="410.434407508" y="191.449236398"/>
      <point x="402.516796352" y="175.39504536"/>
      <point x="390.330835218" y="163.209084227" type="curve" smooth="yes"/>
      <point x="340.833360535" y="113.711609544" type="line" smooth="yes"/>
      <point x="321.130766393" y="94.0090154016"/>
      <point x="290.249786977" y="81.9776325574"/>
      <point x="256.150393285" y="81.9776325574" type="curve" smooth="yes"/>
      <point x="223.040514963" y="81.9776325574"/>
      <point x="205.735867733" y="105.647580721"/>
      <point x="184.0" y="123.502525317" type="curve"/>
      <point x="134.502525317" y="173.0" type="line"/>
      <point x="119.502525317" y="227.0" type="line"/>
      <point x="211.406145932" y="252.528783504" type="line"/>
      <point x="217.539981736" y="230.446974609"/>
      <point x="223.67381754" y="208.365165714"/>
      <point x="229.807653344" y="186.283356819" type="curve"/>
      <point x="237.195344197" y="182.890024852"/>
      <point x="245.526858602" y="180.972581924"/>
      <point x="256.150393285" y="180.972581924" type="curve" smooth="yes"/>
      <point x="274.507851976" y="180.972581924"/>
      <point x="294.043393171" y="185.855580974"/>
      <point x="308.672033345" y="191.940133601" type="curve"/>
      <point x="310.484669873" y="198.087750878"/>
      <point x="311.48032292" y="204.765234725"/>
      <point x="311.502525317" y="212.0" type="curve" smooth="yes"/>
      <point x="318.159473894" y="231.139905184"/>
      <point x="321.130704834" y="248.92502239"/>
      <point x="321.130704834" y="265.567273549" type="curve" smooth="yes"/>
      <point x="321.130704834" y="306.621104568"/>
      <point x="303.049821427" y="340.720232921"/>
      <point x="277.613590555" y="371.045930277" type="curve"/>
      <point x="255.730100701" y="390.52505891"/>
      <point x="231.049380197" y="410.778392112"/>
      <point x="211.226071013" y="430.601701296" type="curve" smooth="yes"/>
      <point x="161.72859633" y="480.099175979" type="line" smooth="yes"/>
      <point x="155.143471625" y="486.684300684"/>
      <point x="149.00950902" y="493.300525846"/>
      <point x="143.502525317" y="500.0" type="curve" smooth="yes"/>
      <point x="137.756825284" y="514.984841463"/>
      <point x="135.030075402" y="530.933644238"/>
      <point x="135.030075402" y="546.955400809" type="curve" smooth="yes"/>
      <point x="135.030075402" y="585.082867419"/>
      <point x="150.47198281" y="623.623480018"/>
      <point x="177.417903178" y="650.569400386" type="curve" smooth="yes"/>
      <point x="226.915377861" y="700.066875069" type="line" smooth="yes"/>
      <point x="242.164061977" y="715.315559185"/>
      <point x="261.096817625" y="726.851132432"/>
      <point x="283.0" y="732.497474683" type="curve"/>
      <point x="303.739079058" y="722.704049711"/>
      <point x="319.311454566" y="695.939684091"/>
      <point x="340.0" y="684.497474683" type="curve" smooth="yes"/>
      <point x="381.926406748" y="661.30924585" type="line"/>
      <point x="340.0" y="585.502525317" type="line"/>
      <point x="325.361204411" y="593.598800869"/>
      <point x="312.489097091" y="608.222346185"/>
      <point x="300.589422309" y="620.122020966" type="curve" smooth="yes"/>
      <point x="294.584644757" y="625.885277931"/>
      <point x="288.76890326" y="630.778329074"/>
      <point x="283.0" y="633.502525317" type="curve"/>
      <point x="272.843595762" y="630.884342565"/>
      <point x="263.325873064" y="626.999896259"/>
      <point x="254.517982799" y="622.066147136" type="curve"/>
      <point x="241.278601374" y="599.412377245"/>
      <point x="234.025024948" y="573.086854999"/>
    </contour>
  </outline>
</glyph>
<glyph name="percent" format="2">
  <advance width="676"/>
  <unicode hex="0025"/>
  <outline>
    <contour>
      <point x="387.502525317" y="317.0" type="curve" smooth="yes"/>
      <point x="387.502525317" y="336.85357463"/>
      <point x="394.903163512" y="354.454781114"/>
      <point x="406.419068213" y="365.970685816" type="curve" smooth="yes"/>
      <point x="455.916542896" y="415.468160499" type="line" smooth="yes"/>
      <point x="464.702103904" y="424.253721506"/>
      <point x="475.882859704" y="429.497474683"/>
      <point x="488.0" y="429.497474683" type="curve" smooth="yes"/>
      <point x="500.117140296" y="429.497474683"/>
      <point x="511.297896096" y="424.253721506"/>
      <point x="520.083457104" y="415.468160499" type="curve" smooth="yes"/>
      <point x="569.580931787" y="365.970685816" type="line" smooth="yes"/>
      <point x="581.096836488" y="354.454781114"/>
      <point x="588.497474683" y="336.85357463"/>
      <point x="588.497474683" y="317.0" type="curve" smooth="yes"/>
      <point x="588.497474683" y="297.14642537"/>
      <point x="581.096836488" y="279.545218886"/>
      <point x="569.580931787" y="268.029314184" type="curve" smooth="yes"/>
      <point x="520.083457104" y="218.531839501" type="line" smooth="yes"/>
      <point x="511.297896096" y="209.746278494"/>
      <point x="500.117140296" y="204.502525317"/>
      <point x="488.0" y="204.502525317" type="curve" smooth="yes"/>
      <point x="475.882859704" y="204.502525317"/>
      <point x="464.702103904" y="209.746278494"/>
      <point x="455.916542896" y="218.531839501" type="curve" smooth="yes"/>
      <point x="406.419068213" y="268.029314184" type="line" smooth="yes"/>
      <point x="394.903163512" y="279.545218886"/>
      <point x="387.502525317" y="297.14642537"/>
    </contour>
    <contour>
      <point x="486.497474683" y="317.0" type="curve" smooth="yes"/>
      <point x="486.497474683" y="312.36027715"/>
      <point x="486.901655619" y="307.843565889"/>
      <point x="487.668085597" y="303.498786762" type="curve" smooth="yes"/>
      <point x="487.778644812" y="303.498786762"/>
      <point x="487.889283317" y="303.497474683"/>
      <point x="488.0" y="303.497474683" type="curve" smooth="yes"/>
      <point x="488.110716827" y="303.497474683"/>
      <point x="488.221355476" y="303.498786802"/>
      <point x="488.331914626" y="303.498786802" type="curve" smooth="yes"/>
      <point x="489.098344595" y="307.843565906"/>
      <point x="489.502525317" y="312.36027714"/>
      <point x="489.502525317" y="317.0" type="curve" smooth="yes"/>
      <point x="489.502525317" y="321.63972285"/>
      <point x="489.098344381" y="326.156434111"/>
      <point x="488.331914403" y="330.501213238" type="curve" smooth="yes"/>
      <point x="488.221355188" y="330.501213238"/>
      <point x="488.110716683" y="330.502525317"/>
      <point x="488.0" y="330.502525317" type="curve" smooth="yes"/>
      <point x="487.889283173" y="330.502525317"/>
      <point x="487.778644524" y="330.501213198"/>
      <point x="487.668085374" y="330.501213198" type="curve" smooth="yes"/>
      <point x="486.901655405" y="326.156434094"/>
      <point x="486.497474683" y="321.63972286"/>
    </contour>
    <contour>
      <point x="87.5025253169" y="617.0" type="curve" smooth="yes"/>
      <point x="87.5025253169" y="636.85357463"/>
      <point x="94.9031635118" y="654.454781114"/>
      <point x="106.419068213" y="665.970685816" type="curve" smooth="yes"/>
      <point x="155.916542896" y="715.468160499" type="line" smooth="yes"/>
      <point x="164.702103904" y="724.253721506"/>
      <point x="175.882859704" y="729.497474683"/>
      <point x="188.0" y="729.497474683" type="curve" smooth="yes"/>
      <point x="200.117140296" y="729.497474683"/>
      <point x="211.297896096" y="724.253721506"/>
      <point x="220.083457104" y="715.468160499" type="curve" smooth="yes"/>
      <point x="269.580931787" y="665.970685816" type="line" smooth="yes"/>
      <point x="281.096836488" y="654.454781114"/>
      <point x="288.497474683" y="636.85357463"/>
      <point x="288.497474683" y="617.0" type="curve" smooth="yes"/>
      <point x="288.497474683" y="597.14642537"/>
      <point x="281.096836488" y="579.545218886"/>
      <point x="269.580931787" y="568.029314184" type="curve" smooth="yes"/>
      <point x="220.083457104" y="518.531839501" type="line" smooth="yes"/>
      <point x="211.297896096" y="509.746278494"/>
      <point x="200.117140296" y="504.502525317"/>
      <point x="188.0" y="504.502525317" type="curve" smooth="yes"/>
      <point x="175.882859704" y="504.502525317"/>
      <point x="164.702103904" y="509.746278494"/>
      <point x="155.916542896" y="518.531839501" type="curve" smooth="yes"/>
      <point x="106.419068213" y="568.029314184" type="line" smooth="yes"/>
      <point x="94.9031635118" y="579.545218886"/>
      <point x="87.5025253169" y="597.14642537"/>
    </contour>
    <contour>
      <point x="186.497474683" y="617.0" type="curve" smooth="yes"/>
      <point x="186.497474683" y="612.36027715"/>
      <point x="186.901655619" y="607.843565889"/>
      <point x="187.668085597" y="603.498786762" type="curve" smooth="yes"/>
      <point x="187.778644812" y="603.498786762"/>
      <point x="187.889283317" y="603.497474683"/>
      <point x="188.0" y="603.497474683" type="curve" smooth="yes"/>
      <point x="188.110716827" y="603.497474683"/>
      <point x="188.221355476" y="603.498786802"/>
      <point x="188.331914626" y="603.498786802" type="curve" smooth="yes"/>
      <point x="189.098344595" y="607.843565906"/>
      <point x="189.502525317" y="612.36027714"/>
      <point x="189.502525317" y="617.0" type="curve" smooth="yes"/>
      <point x="189.502525317" y="621.63972285"/>
      <point x="189.098344381" y="626.156434111"/>
      <point x="188.331914403" y="630.501213238" type="curve" smooth="yes"/>
      <point x="188.221355188" y="630.501213238"/>
      <point x="188.110716683" y="630.502525317"/>
      <point x="188.0" y="630.502525317" type="curve" smooth="yes"/>
      <point x="187.889283173" y="630.502525317"/>
      <point x="187.778644524" y="630.501213198"/>
      <point x="187.668085374" y="630.501213198" type="curve" smooth="yes"/>
      <point x="186.901655405" y="626.156434094"/>
      <point x="186.497474683" y="621.63972286"/>
    </contour>
    <contour>
      <point x="462.660695208" y="693.722875756" type="line"/>
      <point x="528.497474683" y="647.0" type="line"/>
      <point x="165.339304792" y="135.277124244" type="line"/>
      <point x="99.5025253169" y="182.0" type="line"/>
    </contour>
  </outline>
</glyph>
<glyph name="ampersand" format="2">
  <advance width="577"/>
  <unicode hex="0026"/>
  <outline>
    <contour>
      <point x="298.320176435" y="546.603400173" type="curve" smooth="yes"/>
      <point x="298.320176435" y="563.503686449"/>
      <point x="296.868313083" y="571.163389446"/>
      <point x="296.675116821" y="592.896797294" type="curve" smooth="yes"/>
      <point x="296.402335396" y="623.58305343"/>
      <point x="296.008503208" y="667.886786317"/>
      <point x="288.368242884" y="701.954578486" type="curve"/>
      <point x="282.736020756" y="701.332116855"/>
      <point x="277.996511008" y="700.203549146"/>
      <point x="273.89951452" y="698.694101806" type="curve"/>
      <point x="252.497474683" y="644.0" type="line"/>
      <point x="252.497474683" y="491.0" type="line"/>
      <point x="258.598047317" y="477.359017669"/>
      <point x="260.903702039" y="463.188739194"/>
      <point x="263.083220889" y="449.175909796" type="curve"/>
      <point x="284.01691788" y="476.626935737"/>
      <point x="298.320176435" y="507.640998365"/>
    </contour>
    <contour>
      <point x="477.497474683" y="272.0" type="line"/>
      <point x="477.497474683" y="240.127712728"/>
      <point x="452.292181506" y="174.195537182"/>
      <point x="417.993519271" y="133.269477762" type="curve"/>
      <point x="462.849037183" y="67.1669921875" type="line"/>
      <point x="395.065843472" y="21.1709871475" type="line"/>
      <point x="359.393845753" y="73.7399424148" type="line"/>
      <point x="344.329957653" y="58.676054314"/>
      <point x="327.796487747" y="48.5025253169"/>
      <point x="311.0" y="48.5025253169" type="curve" smooth="yes"/>
      <point x="252.293438749" y="48.5025253169"/>
      <point x="204.494721537" y="53.8529082379"/>
      <point x="176.409201919" y="81.9384278563" type="curve" smooth="yes"/>
      <point x="126.911727236" y="131.435902539" type="line" smooth="yes"/>
      <point x="109.355809727" y="148.991820048"/>
      <point x="99.5025253169" y="175.431147546"/>
      <point x="99.5025253169" y="215.0" type="curve" smooth="yes"/>
      <point x="99.5025253169" y="274.579673466"/>
      <point x="130.226757122" y="316.112756455"/>
      <point x="167.519273292" y="353.405272625" type="curve" smooth="yes"/>
      <point x="190.051471924" y="375.937471257" type="line"/>
      <point x="186.011129986" y="384.786706025"/>
      <point x="181.853075539" y="393.204608192"/>
      <point x="177.502525317" y="401.0" type="curve" smooth="yes"/>
      <point x="161.948090668" y="428.870202232"/>
      <point x="166.758690443" y="461.358993792"/>
      <point x="153.502525317" y="491.0" type="curve"/>
      <point x="153.502525317" y="644.0" type="line"/>
      <point x="180.502525317" y="713.0" type="line"/>
      <point x="230.0" y="762.497474683" type="line" smooth="yes"/>
      <point x="232.901049564" y="764.161247376"/>
      <point x="235.466288127" y="765.959614332"/>
      <point x="237.801871347" y="767.839443886" type="curve" smooth="yes"/>
      <point x="255.085905974" y="785.123478514" type="line" smooth="yes"/>
      <point x="264.108589948" y="794.146162488"/>
      <point x="274.963831171" y="801.497474683"/>
      <point x="299.0" y="801.497474683" type="curve" smooth="yes"/>
      <point x="307.020114895" y="801.497474683"/>
      <point x="313.662556727" y="798.344981893"/>
      <point x="319.166583911" y="792.840954709" type="curve" smooth="yes"/>
      <point x="368.664058594" y="743.343480026" type="line" smooth="yes"/>
      <point x="402.11890929" y="709.88862933"/>
      <point x="390.961148716" y="619.416704008"/>
      <point x="396.497474683" y="563.0" type="curve" smooth="yes"/>
      <point x="397.049064086" y="557.379198871"/>
      <point x="397.315125801" y="551.917374107"/>
      <point x="397.315125801" y="546.603400181" type="curve" smooth="yes"/>
      <point x="397.315125801" y="490.962887894"/>
      <point x="368.145840517" y="451.531784974"/>
      <point x="332.152828169" y="415.538772627" type="curve" smooth="yes"/>
      <point x="290.139905643" y="373.5258501" type="line"/>
      <point x="314.076577067" y="320.374223638"/>
      <point x="334.142408638" y="256.838819704"/>
      <point x="364.216504322" y="212.519356492" type="curve"/>
      <point x="373.226125262" y="235.704721817"/>
      <point x="378.502525317" y="257.417358052"/>
      <point x="378.502525317" y="272.0" type="curve"/>
    </contour>
    <contour>
      <point x="198.497474683" y="215.0" type="curve" smooth="yes"/>
      <point x="198.497474683" y="193.401916259"/>
      <point x="201.433126531" y="175.7155956"/>
      <point x="206.954682178" y="161.250516779" type="curve"/>
      <point x="233.946191837" y="150.257843405"/>
      <point x="269.035640635" y="147.569476314"/>
      <point x="309.342824174" y="147.498915355" type="curve"/>
      <point x="261.502525317" y="218.0" type="line" smooth="yes"/>
      <point x="246.177497479" y="240.584091033"/>
      <point x="233.608047502" y="269.047694167"/>
      <point x="221.797619361" y="298.286765086" type="curve"/>
      <point x="207.552482102" y="274.370564454"/>
      <point x="198.497474683" y="247.344616587"/>
    </contour>
  </outline>
</glyph>
<glyph name="quotesingle" format="2">
  <advance width="307"/>
  <unicode hex="0027"/>
  <outline>
    <contour>
      <point x="105.574784404" y="730.673586224" type="line"/>
      <point x="204.497474683" y="728.0" type="line"/>
      <point x="201.425215596" y="614.326413776" type="line"/>
      <point x="102.502525317" y="617.0" type="line"/>
    </contour>
  </outline>
</glyph>
<glyph name="parenleft" format="2">
  <advance width="391"/>
  <unicode hex="0028"/>
  <outline>
    <contour>
      <point x="217.997474683" y="467.0" type="curve" smooth="yes"/>
      <point x="217.997474683" y="200.438109847"/>
      <point x="238.992559826" y="-18.8848387331"/>
      <point x="266.255125956" y="-46.1474048626" type="curve"/>
      <point x="222.5" y="-2.39227890678" type="line"/>
      <point x="222.5" y="-98.4974746831" type="line"/>
      <point x="220.559146332" y="-98.4974746831"/>
      <point x="218.643405417" y="-97.5306336897"/>
      <point x="216.757651273" y="-95.6448795456" type="curve" smooth="yes"/>
      <point x="167.26017659" y="-46.1474048626" type="line" smooth="yes"/>
      <point x="139.99761046" y="-18.8848387331"/>
      <point x="119.002525317" y="200.438109847"/>
      <point x="119.002525317" y="467.0" type="curve" smooth="yes"/>
      <point x="119.002525317" y="733.561890153"/>
      <point x="139.99761046" y="952.884838733"/>
      <point x="167.26017659" y="980.147404863" type="curve" smooth="yes"/>
      <point x="216.757651273" y="1029.64487955" type="line" smooth="yes"/>
      <point x="218.643405417" y="1031.53063369"/>
      <point x="220.559146332" y="1032.49747468"/>
      <point x="222.5" y="1032.49747468" type="curve"/>
      <point x="222.5" y="936.392278907" type="line"/>
      <point x="266.255125956" y="980.147404863" type="line"/>
      <point x="238.992559826" y="952.884838733"/>
      <point x="217.997474683" y="733.561890153"/>
    </contour>
  </outline>
</glyph>
<glyph name="parenright" format="2">
  <advance width="391"/>
  <unicode hex="0029"/>
  <outline>
    <contour>
      <point x="168.5" y="1032.49747468" type="line"/>
      <point x="170.440853668" y="1032.49747468"/>
      <point x="172.356594583" y="1031.53063369"/>
      <point x="174.242348727" y="1029.64487955" type="curve" smooth="yes"/>
      <point x="223.73982341" y="980.147404863" type="line" smooth="yes"/>
      <point x="251.00238954" y="952.884838733"/>
      <point x="271.997474683" y="733.561890153"/>
      <point x="271.997474683" y="467.0" type="curve" smooth="yes"/>
      <point x="271.997474683" y="200.438109847"/>
      <point x="251.00238954" y="-18.8848387331"/>
      <point x="223.73982341" y="-46.1474048626" type="curve" smooth="yes"/>
      <point x="174.242348727" y="-95.6448795456" type="line" smooth="yes"/>
      <point x="172.356594583" y="-97.5306336897"/>
      <point x="170.440853668" y="-98.4974746831"/>
      <point x="168.5" y="-98.4974746831" type="curve"/>
      <point x="168.5" y="-2.39227890678" type="line"/>
      <point x="124.744874044" y="-46.1474048626" type="line"/>
      <point x="152.007440174" y="-18.8848387331"/>
      <point x="173.002525317" y="200.438109847"/>
      <point x="173.002525317" y="467.0" type="curve" smooth="yes"/>
      <point x="173.002525317" y="733.561890153"/>
      <point x="152.007440174" y="952.884838733"/>
      <point x="124.744874044" y="980.147404863" type="curve"/>
      <point x="168.5" y="936.392278907" type="line"/>
    </contour>
  </outline>
</glyph>
<glyph name="asterisk" format="2">
  <advance width="512"/>
  <unicode hex="002A"/>
  <outline>
    <contour>
      <point x="368.421751593" y="617.485729058" type="line"/>
      <point x="418.997474683" y="568.0" type="line"/>
      <point x="143.578248407" y="286.514270942" type="line"/>
      <point x="93.0025253169" y="336.0" type="line"/>
    </contour>
    <contour>
      <point x="91.0143739613" y="563.917033909" type="line"/>
      <point x="140.5" y="614.497474683" type="line"/>
      <point x="420.985626039" y="340.082966091" type="line"/>
      <point x="371.5" y="289.502525317" type="line"/>
    </contour>
    <contour>
      <point x="205.002525317" y="614.0" type="line"/>
      <point x="303.988988189" y="614.916541323" type="line"/>
      <point x="306.997474683" y="290.0" type="line"/>
      <point x="208.011011811" y="289.083458677" type="line"/>
    </contour>
  </outline>
</glyph>
<glyph name="plus" format="2">
  <advance width="512"/>
  <unicode hex="002B"/>
  <outline>
    <contour>
      <point x="198.002525317" y="554.0" type="line"/>
      <point x="296.997474683" y="554.0" type="line"/>
      <point x="296.997474683" y="273.0" type="line"/>
      <point x="198.002525317" y="273.0" type="line"/>
    </contour>
    <contour>
      <point x="395.5" y="460.497474683" type="line"/>
      <point x="395.5" y="361.502525317" type="line"/>
      <point x="116.5" y="361.502525317" type="line"/>
      <point x="116.5" y="460.497474683" type="line"/>
    </contour>
  </outline>
</glyph>
<glyph name="comma" format="2">
  <advance width="295"/>
  <unicode hex="002C"/>
  <outline>
    <contour>
      <point x="214.997474683" y="-7.0" type="curve" smooth="yes"/>
      <point x="214.997474683" y="-25.7777777778"/>
      <point x="196.219696905" y="-47.1635802469"/>
      <point x="185.78759814" y="-57.5956790123" type="curve" smooth="yes"/>
      <point x="136.290123457" y="-107.093153695" type="line" smooth="yes"/>
      <point x="132.277777778" y="-111.105499374"/>
      <point x="129.5" y="-113.497474683"/>
      <point x="129.5" y="-113.497474683" type="curve"/>
      <point x="80.5507914101" y="-56.6532334716" type="line"/>
      <point x="105.456347285" y="-35.2067821936" type="line"/>
      <point x="111.384456049" y="-26.2657995433"/>
      <point x="116.002525317" y="-16.312200517"/>
      <point x="116.002525317" y="-7.0" type="curve" smooth="yes"/>
      <point x="116.002525317" y="6.0"/>
      <point x="107.002525317" y="26.0"/>
      <point x="107.002525317" y="26.0" type="curve"/>
      <point x="189.326807543" y="63.0459269897" type="line"/>
      <point x="205.997474683" y="26.0" type="line"/>
      <point x="205.997474683" y="26.0"/>
      <point x="214.997474683" y="6.0"/>
    </contour>
  </outline>
</glyph>
<glyph name="hyphen" format="2">
  <advance width="512"/>
  <unicode hex="002D"/>
  <outline>
    <contour>
      <point x="430.0" y="460.497474683" type="line"/>
      <point x="430.0" y="361.502525317" type="line"/>
      <point x="82.0" y="361.502525317" type="line"/>
      <point x="82.0" y="460.497474683" type="line"/>
    </contour>
  </outline>
</glyph>
<glyph name="period" format="2">
  <advance width="142"/>
  <unicode hex="002E"/>
  <outline>
    <contour>
      <point x="187.497474683" y="29.0" type="line"/>
      <point x="138.0" y="-20.4974746831" type="line"/>
      <point x="88.5025253169" y="29.0" type="line"/>
      <point x="138.0" y="78.4974746831" type="line"/>
    </contour>
  </outline>
</glyph>
<glyph name="zero" format="2">
  <advance width="334"/>
  <unicode hex="0030"/>
  <outline>
    <contour>
      <point x="45.5025253169" y="205.0" type="curve" smooth="yes"/>
      <point x="45.5025253169" y="292.172619877"/>
      <point x="65.2387562234" y="366.393338221"/>
      <point x="93.08649537" y="394.241077368" type="curve" smooth="yes"/>
      <point x="142.583970053" y="443.738552051" type="line" smooth="yes"/>
      <point x="150.195748466" y="451.350330464"/>
      <point x="158.413556712" y="455.497474683"/>
      <point x="167.0" y="455.497474683" type="curve" smooth="yes"/>
      <point x="175.586443288" y="455.497474683"/>
      <point x="183.804251534" y="451.350330464"/>
      <point x="191.416029947" y="443.738552051" type="curve" smooth="yes"/>
      <point x="240.91350463" y="394.241077368" type="line" smooth="yes"/>
      <point x="268.761243777" y="366.393338221"/>
      <point x="288.497474683" y="292.172619877"/>
      <point x="288.497474683" y="205.0" type="curve" smooth="yes"/>
      <point x="288.497474683" y="117.827380123"/>
      <point x="268.761243777" y="43.6066617786"/>
      <point x="240.91350463" y="15.758922632" type="curve" smooth="yes"/>
      <point x="191.416029947" y="-33.738552051" type="line" smooth="yes"/>
      <point x="183.804251534" y="-41.3503304644"/>
      <point x="175.586443288" y="-45.4974746831"/>
      <point x="167.0" y="-45.4974746831" type="curve" smooth="yes"/>
      <point x="158.413556712" y="-45.4974746831"/>
      <point x="150.195748466" y="-41.3503304644"/>
      <point x="142.583970053" y="-33.738552051" type="curve" smooth="yes"/>
      <point x="93.08649537" y="15.758922632" type="line" smooth="yes"/>
      <point x="65.2387562234" y="43.6066617786"/>
      <point x="45.5025253169" y="117.827380123"/>
    </contour>
    <contour>
      <point x="144.497474683" y="205.0" type="curve" smooth="yes"/>
      <point x="144.497474683" y="147.39234172"/>
      <point x="153.116625187" y="95.441000958"/>
      <point x="167.0" y="58.7913905259" type="curve"/>
      <point x="180.883374813" y="95.441000958"/>
      <point x="189.502525317" y="147.39234172"/>
      <point x="189.502525317" y="205.0" type="curve" smooth="yes"/>
      <point x="189.502525317" y="262.60765828"/>
      <point x="180.883374813" y="314.558999042"/>
      <point x="167.0" y="351.208609474" type="curve"/>
      <point x="153.116625187" y="314.558999042"/>
      <point x="144.497474683" y="262.60765828"/>
    </contour>
  </outline>
</glyph>
<glyph name="one" format="2">
  <advance width="259"/>
  <unicode hex="0031"/>
  <outline>
    <contour>
      <point x="179.497474683" y="-1.06581410364e-14" type="line"/>
      <point x="80.5025253169" y="-1.06581410364e-14" type="line"/>
      <point x="80.5025253169" y="312.790724835" type="line"/>
      <point x="67.0" y="299.502525317" type="line"/>
      <point x="17.5088605882" y="349.791908913" type="line"/>
      <point x="130.0" y="460.497474683" type="line"/>
      <point x="179.497474683" y="411.0" type="line"/>
    </contour>
    <contour>
      <point x="50.0" y="-49.4974746831" type="line"/>
      <point x="50.0" y="49.4974746831" type="line"/>
      <point x="209.0" y="49.4974746831" type="line"/>
      <point x="209.0" y="-49.4974746831" type="line"/>
    </contour>
  </outline>
</glyph>
<glyph name="two" format="2">
  <advance width="550"/>
  <unicode hex="0032"/>
  <outline>
    <contour>
      <point x="346.969676597" y="279.548364428" type="curve" smooth="yes"/>
      <point x="346.969676597" y="303.039318707"/>
      <point x="339.483527984" y="334.276338228"/>
      <point x="329.097844881" y="355.816497778" type="curve"/>
      <point x="319.731690469" y="359.562106856"/>
      <point x="309.434870642" y="361.599946936"/>
      <point x="298.259501884" y="361.599946936" type="curve" smooth="yes"/>
      <point x="252.188945106" y="361.599946936"/>
      <point x="225.353026982" y="341.567800053"/>
      <point x="195.204546322" y="319.384342828" type="curve" smooth="yes"/>
      <point x="179.176670035" y="307.59092239"/>
      <point x="162.213367985" y="295.109209309"/>
      <point x="141.0" y="284.502525317" type="curve"/>
      <point x="101.402020254" y="363.69848481" type="line"/>
      <point x="141.0" y="383.497474683" type="line" smooth="yes"/>
      <point x="162.213367985" y="394.104158675"/>
      <point x="179.176670035" y="406.585871756"/>
      <point x="195.204546322" y="418.379292194" type="curve" smooth="yes"/>
      <point x="225.352936212" y="440.56268263"/>
      <point x="252.190605962" y="460.594896302"/>
      <point x="298.259501884" y="460.594896302" type="curve" smooth="yes"/>
      <point x="322.093341495" y="460.594896302"/>
      <point x="341.931137178" y="451.325863924"/>
      <point x="357.267330245" y="435.989670857" type="curve" smooth="yes"/>
      <point x="406.764804928" y="386.492196174" type="line" smooth="yes"/>
      <point x="428.877963126" y="364.379037976"/>
      <point x="445.964625964" y="319.150116469"/>
      <point x="445.964625964" y="279.548364428" type="curve" smooth="yes"/>
      <point x="445.964625964" y="251.872740978"/>
      <point x="437.582672209" y="225.603608673"/>
      <point x="418.497474683" y="199.0" type="curve" smooth="yes"/>
      <point x="402.881287044" y="176.723967633"/>
      <point x="387.106882289" y="158.297885114"/>
      <point x="370.992587755" y="142.18359058" type="curve" smooth="yes"/>
      <point x="321.495113072" y="92.6861158972" type="line" smooth="yes"/>
      <point x="305.280616415" y="76.4716192402"/>
      <point x="288.721989824" y="62.5977503396"/>
      <point x="271.634150482" y="49.4974746831" type="curve"/>
      <point x="396.0" y="49.4974746831" type="line"/>
      <point x="396.0" y="-49.4974746831" type="line"/>
      <point x="141.0" y="-49.4974746831" type="line"/>
      <point x="141.0" y="49.4974746831" type="line"/>
      <point x="195.289804886" y="97.0773036839"/>
      <point x="243.73734556" y="123.614379298"/>
      <point x="295.394196108" y="167.637194856" type="curve" smooth="yes"/>
      <point x="303.48789139" y="177.221633455"/>
      <point x="311.515900237" y="187.607314224"/>
      <point x="319.502525317" y="199.0" type="curve" smooth="yes"/>
      <point x="338.587722843" y="225.603608673"/>
      <point x="346.969676597" y="251.872740978"/>
    </contour>
  </outline>
</glyph>
<glyph name="three" format="2">
  <advance width="1024"/>
  <unicode hex="0033"/>
  <outline>
    <contour>
      <point x="347.815429688" y="-86.5025253169" type="line"/>
      <point x="412.836659177" y="-104.708469574"/>
      <point x="458.282073478" y="-140.524095928"/>
      <point x="536.463300329" y="-140.524095928" type="curve" smooth="yes"/>
      <point x="565.490953141" y="-140.524095928"/>
      <point x="593.647108746" y="-137.715744761"/>
      <point x="616.97992732" y="-128.318598055" type="curve"/>
      <point x="623.641282538" y="-111.123457893"/>
      <point x="626.687128081" y="-94.6646932315"/>
      <point x="626.687128081" y="-78.7286800221" type="curve" smooth="yes"/>
      <point x="626.687128081" y="-39.8144007822"/>
      <point x="608.384934207" y="-3.21275120607"/>
      <point x="580.032511506" y="32.3586147108" type="curve"/>
      <point x="529.038652172" y="72.6243850984"/>
      <point x="476.517107968" y="90.7830660253"/>
      <point x="420.815429688" y="129.502525317" type="curve"/>
      <point x="371.317955005" y="179.0" type="line"/>
      <point x="541.234099266" y="361.502525317" type="line"/>
      <point x="348.815429688" y="361.502525317" type="line"/>
      <point x="348.815429688" y="460.497474683" type="line"/>
      <point x="636.815429688" y="460.497474683" type="line"/>
      <point x="686.312904371" y="411.0" type="line"/>
      <point x="481.645977284" y="191.172559795" type="line"/>
      <point x="526.952270936" y="166.046582286"/>
      <point x="567.388158022" y="146.88075613"/>
      <point x="605.955373575" y="108.313540577" type="curve" smooth="yes"/>
      <point x="655.452848258" y="58.8160658937" type="line" smooth="yes"/>
      <point x="689.415935121" y="24.8529790338"/>
      <point x="725.682077453" y="-29.1481841572"/>
      <point x="725.682077453" y="-78.7286800429" type="curve" smooth="yes"/>
      <point x="725.682077453" y="-107.92245899"/>
      <point x="713.517683926" y="-141.677424787"/>
      <point x="697.009001396" y="-158.186107315" type="curve" smooth="yes"/>
      <point x="647.511526713" y="-207.683581998" type="line" smooth="yes"/>
      <point x="621.602076239" y="-233.593032472"/>
      <point x="579.658381587" y="-239.519045294"/>
      <point x="536.463300329" y="-239.519045294" type="curve" smooth="yes"/>
      <point x="458.300611555" y="-239.519045294"/>
      <point x="412.794110929" y="-203.691505429"/>
      <point x="347.815429688" y="-185.497474683" type="curve" smooth="yes"/>
      <point x="322.11199328" y="-178.300512489" type="line"/>
    </contour>
  </outline>
</glyph>
<glyph name="four" format="2">
  <advance width="571"/>
  <unicode hex="0034"/>
  <outline>
    <contour>
      <point x="399.0" y="49.4974746831" type="line"/>
      <point x="399.0" y="-49.4974746831" type="line"/>
      <point x="79.0" y="-49.4974746831" type="line"/>
      <point x="29.5025253169" y="1.06581410364e-14" type="line"/>
      <point x="266.927391409" y="451.766759093" type="line"/>
      <point x="344.497474683" y="411.0" type="line"/>
      <point x="154.510746049" y="49.4974746831" type="line"/>
    </contour>
    <contour>
      <point x="344.497474683" y="-205.0" type="line"/>
      <point x="245.502525317" y="-205.0" type="line"/>
      <point x="245.502525317" y="411.0" type="line"/>
      <point x="344.497474683" y="411.0" type="line"/>
    </contour>
    <contour>
      <point x="392.497474683" y="-199.0" type="line"/>
      <point x="343.0" y="-248.497474683" type="line"/>
      <point x="293.502525317" y="-199.0" type="line"/>
      <point x="343.0" y="-149.502525317" type="line"/>
    </contour>
  </outline>
</glyph>
<glyph name="five" format="2">
  <advance width="685"/>
  <unicode hex="0035"/>
  <outline>
    <contour>
      <point x="323.642155266" y="156.987210564" type="curve" smooth="yes"/>
      <point x="275.454799822" y="156.987210564"/>
      <point x="233.684659032" y="138.083546566"/>
      <point x="184.0" y="135.502525317" type="curve"/>
      <point x="134.502525317" y="185.0" type="line"/>
      <point x="128.502525317" y="411.0" type="line"/>
      <point x="178.0" y="460.497474683" type="line"/>
      <point x="508.0" y="460.497474683" type="line"/>
      <point x="508.0" y="361.502525317" type="line"/>
      <point x="228.811566931" y="361.502525317" type="line"/>
      <point x="232.015359048" y="240.826355578" type="line"/>
      <point x="260.932838936" y="246.526597587"/>
      <point x="293.24718826" y="255.982159931"/>
      <point x="323.642155266" y="255.982159931" type="curve" smooth="yes"/>
      <point x="361.251145045" y="255.982159931"/>
      <point x="401.287716404" y="237.255346257"/>
      <point x="421.844611616" y="216.698451043" type="curve" smooth="yes"/>
      <point x="471.342086299" y="167.20097636" type="line" smooth="yes"/>
      <point x="499.082171019" y="139.460891641"/>
      <point x="510.790075539" y="100.729407733"/>
      <point x="524.497474683" y="56.0" type="curve" smooth="yes"/>
      <point x="533.701077994" y="24.810011001"/>
      <point x="539.505971179" y="-1.67407166966"/>
      <point x="539.505971179" y="-27.8635836205" type="curve" smooth="yes"/>
      <point x="539.505971179" y="-69.3769879345"/>
      <point x="518.835630998" y="-121.664298921"/>
      <point x="494.367807149" y="-146.132122772" type="curve" smooth="yes"/>
      <point x="444.870332466" y="-195.629597455" type="line" smooth="yes"/>
      <point x="424.044373392" y="-216.455556528"/>
      <point x="397.087595904" y="-228.600684404"/>
      <point x="364.0" y="-242.497474683" type="curve" smooth="yes"/>
      <point x="335.715674165" y="-254.439745591"/>
      <point x="312.17210737" y="-259.665941193"/>
      <point x="286.664840945" y="-259.665941193" type="curve" smooth="yes"/>
      <point x="271.590373309" y="-259.665941193"/>
      <point x="255.830052443" y="-257.840609516"/>
      <point x="238.0" y="-254.497474683" type="curve" smooth="yes"/>
      <point x="197.185477677" y="-246.334570218"/>
      <point x="179.359660409" y="-219.313270928"/>
      <point x="148.0" y="-200.497474683" type="curve" smooth="yes"/>
      <point x="104.325757633" y="-174.292929263" type="line"/>
      <point x="148.0" y="-101.502525317" type="line"/>
      <point x="179.373403632" y="-120.326567496"/>
      <point x="197.182328532" y="-147.338991023"/>
      <point x="238.0" y="-155.502525317" type="curve" smooth="yes"/>
      <point x="255.830052443" y="-158.84566015"/>
      <point x="271.590373309" y="-160.670991827"/>
      <point x="286.664840945" y="-160.670991827" type="curve" smooth="yes"/>
      <point x="330.332405613" y="-160.670991827"/>
      <point x="385.067334793" y="-137.186656252"/>
      <point x="416.15638001" y="-118.595590811" type="curve"/>
      <point x="431.163180342" y="-92.0119833905"/>
      <point x="440.511021813" y="-55.8387405775"/>
      <point x="440.511021813" y="-27.8635836205" type="curve" smooth="yes"/>
      <point x="440.511021813" y="-1.55763297532"/>
      <point x="434.656299779" y="26.1265737609"/>
      <point x="425.146743466" y="57.1610545373" type="curve" smooth="yes"/>
      <point x="415.77751972" y="87.7375592241"/>
      <point x="407.312581595" y="115.362923739"/>
      <point x="393.952364126" y="138.587256831" type="curve"/>
      <point x="374.044122932" y="149.61948081"/>
      <point x="345.822709893" y="156.987210564"/>
    </contour>
  </outline>
</glyph>
<glyph name="six" format="2">
  <advance width="560"/>
  <unicode hex="0036"/>
  <outline>
    <contour>
      <point x="361.497474683" y="698.0" type="line"/>
      <point x="320.683575107" y="591.854486517"/>
      <point x="252.424306179" y="488.629295201"/>
      <point x="214.522607173" y="378.266280898" type="curve"/>
      <point x="229.502550188" y="374.064725634"/>
      <point x="244.464728235" y="368.437978636"/>
      <point x="256.871477858" y="356.031229013" type="curve" smooth="yes"/>
      <point x="306.368952541" y="306.533754329" type="line" smooth="yes"/>
      <point x="324.019141485" y="288.883565386"/>
      <point x="336.497474683" y="257.511530352"/>
      <point x="336.497474683" y="197.0" type="curve" smooth="yes"/>
      <point x="336.497474683" y="107.560568832"/>
      <point x="315.569496627" y="31.0472417569"/>
      <point x="286.752300634" y="2.2300457645" type="curve" smooth="yes"/>
      <point x="237.254825951" y="-47.2674289186" type="line" smooth="yes"/>
      <point x="229.3414625" y="-55.1807923698"/>
      <point x="220.833187036" y="-59.4974746831"/>
      <point x="212.0" y="-59.4974746831" type="curve" smooth="yes"/>
      <point x="203.626283009" y="-59.4974746831"/>
      <point x="195.834515663" y="-55.609340072"/>
      <point x="188.677056805" y="-48.4518812143" type="curve" smooth="yes"/>
      <point x="139.179582122" y="1.04559346878" type="line" smooth="yes"/>
      <point x="110.462469921" y="29.7627056693"/>
      <point x="86.7821061988" y="126.357543158"/>
      <point x="86.7821061988" y="220.700027215" type="curve" smooth="yes"/>
      <point x="86.7821061988" y="397.752321813"/>
      <point x="206.933198619" y="553.479756228"/>
      <point x="262.502525317" y="698.0" type="curve" smooth="yes"/>
      <point x="275.253455967" y="731.161596789" type="line"/>
    </contour>
    <contour>
      <point x="237.502525317" y="197.0" type="curve" smooth="yes"/>
      <point x="237.502525317" y="231.846539257"/>
      <point x="233.364438372" y="257.029787493"/>
      <point x="226.48358056" y="275.494049126" type="curve"/>
      <point x="215.050032827" y="279.627203538"/>
      <point x="203.015807419" y="282.355688269"/>
      <point x="190.948033404" y="285.55771219" type="curve"/>
      <point x="187.616787098" y="264.284243968"/>
      <point x="185.777055565" y="242.677354073"/>
      <point x="185.777055565" y="220.700027215" type="curve" smooth="yes"/>
      <point x="185.777055565" y="154.147512276"/>
      <point x="197.964425641" y="86.8364959564"/>
      <point x="213.247265349" y="45.1093664412" type="curve"/>
      <point x="228.110850555" y="82.9703674358"/>
      <point x="237.502525317" y="137.084813571"/>
    </contour>
  </outline>
</glyph>
<glyph name="seven" format="2">
  <advance width="360"/>
  <unicode hex="0037"/>
  <outline>
    <contour>
      <point x="195.547623278" y="361.502525317" type="line"/>
      <point x="76.0" y="361.502525317" type="line"/>
      <point x="76.0" y="460.497474683" type="line"/>
      <point x="260.0" y="460.497474683" type="line"/>
      <point x="309.497474683" y="411.0" type="line"/>
      <point x="117.216608329" y="-225.407867445" type="line"/>
      <point x="26.5025253169" y="-198.0" type="line"/>
    </contour>
  </outline>
</glyph>
<glyph name="eight" format="2">
  <advance width="360"/>
  <unicode hex="0038"/>
  <outline>
    <contour>
      <point x="12.5025253169" y="582.0" type="curve" smooth="yes"/>
      <point x="12.5025253169" y="669.712912691"/>
      <point x="29.9741325638" y="743.986127499"/>
      <point x="53.9001970862" y="767.912192021" type="curve" smooth="yes"/>
      <point x="103.397671769" y="817.409666704" type="line" smooth="yes"/>
      <point x="108.658745439" y="822.670740374"/>
      <point x="114.231899122" y="825.497474683"/>
      <point x="120.0" y="825.497474683" type="curve" smooth="yes"/>
      <point x="125.768100878" y="825.497474683"/>
      <point x="131.341254561" y="822.670740374"/>
      <point x="136.602328231" y="817.409666704" type="curve" smooth="yes"/>
      <point x="186.099802914" y="767.912192021" type="line" smooth="yes"/>
      <point x="210.025867436" y="743.986127499"/>
      <point x="227.497474683" y="669.712912691"/>
      <point x="227.497474683" y="582.0" type="curve" smooth="yes"/>
      <point x="227.497474683" y="494.287087309"/>
      <point x="210.025867436" y="420.013872501"/>
      <point x="186.099802914" y="396.087807979" type="curve" smooth="yes"/>
      <point x="136.602328231" y="346.590333296" type="line" smooth="yes"/>
      <point x="131.341254561" y="341.329259626"/>
      <point x="125.768100878" y="338.502525317"/>
      <point x="120.0" y="338.502525317" type="curve" smooth="yes"/>
      <point x="114.231899122" y="338.502525317"/>
      <point x="108.658745439" y="341.329259626"/>
      <point x="103.397671769" y="346.590333296" type="curve" smooth="yes"/>
      <point x="53.9001970862" y="396.087807979" type="line" smooth="yes"/>
      <point x="29.9741325638" y="420.013872501"/>
      <point x="12.5025253169" y="494.287087309"/>
    </contour>
    <contour>
      <point x="111.497474683" y="582.0" type="curve" smooth="yes"/>
      <point x="111.497474683" y="544.9937533"/>
      <point x="114.607442337" y="510.379789411"/>
      <point x="120.0" y="480.929823438" type="curve"/>
      <point x="125.392557663" y="510.379789411"/>
      <point x="128.502525317" y="544.9937533"/>
      <point x="128.502525317" y="582.0" type="curve" smooth="yes"/>
      <point x="128.502525317" y="619.0062467"/>
      <point x="125.392557663" y="653.620210589"/>
      <point x="120.0" y="683.070176562" type="curve"/>
      <point x="114.607442337" y="653.620210589"/>
      <point x="111.497474683" y="619.0062467"/>
    </contour>
    <contour>
      <point x="12.5025253169" y="194.0" type="curve" smooth="yes"/>
      <point x="12.5025253169" y="281.712912691"/>
      <point x="29.9741325638" y="355.986127499"/>
      <point x="53.9001970862" y="379.912192021" type="curve" smooth="yes"/>
      <point x="103.397671769" y="429.409666704" type="line" smooth="yes"/>
      <point x="108.658745439" y="434.670740374"/>
      <point x="114.231899122" y="437.497474683"/>
      <point x="120.0" y="437.497474683" type="curve" smooth="yes"/>
      <point x="125.768100878" y="437.497474683"/>
      <point x="131.341254561" y="434.670740374"/>
      <point x="136.602328231" y="429.409666704" type="curve" smooth="yes"/>
      <point x="186.099802914" y="379.912192021" type="line" smooth="yes"/>
      <point x="210.025867436" y="355.986127499"/>
      <point x="227.497474683" y="281.712912691"/>
      <point x="227.497474683" y="194.0" type="curve" smooth="yes"/>
      <point x="227.497474683" y="106.287087309"/>
      <point x="210.025867436" y="32.0138725012"/>
      <point x="186.099802914" y="8.08780797878" type="curve" smooth="yes"/>
      <point x="136.602328231" y="-41.4096667043" type="line" smooth="yes"/>
      <point x="131.341254561" y="-46.6707403736"/>
      <point x="125.768100878" y="-49.4974746831"/>
      <point x="120.0" y="-49.4974746831" type="curve" smooth="yes"/>
      <point x="114.231899122" y="-49.4974746831"/>
      <point x="108.658745439" y="-46.6707403736"/>
      <point x="103.397671769" y="-41.4096667043" type="curve" smooth="yes"/>
      <point x="53.9001970862" y="8.08780797878" type="line" smooth="yes"/>
      <point x="29.9741325638" y="32.0138725012"/>
      <point x="12.5025253169" y="106.287087309"/>
    </contour>
    <contour>
      <point x="111.497474683" y="194.0" type="curve" smooth="yes"/>
      <point x="111.497474683" y="156.9937533"/>
      <point x="114.607442337" y="122.379789411"/>
      <point x="120.0" y="92.9298234378" type="curve"/>
      <point x="125.392557663" y="122.379789411"/>
      <point x="128.502525317" y="156.9937533"/>
      <point x="128.502525317" y="194.0" type="curve" smooth="yes"/>
      <point x="128.502525317" y="231.0062467"/>
      <point x="125.392557663" y="265.620210589"/>
      <point x="120.0" y="295.070176562" type="curve"/>
      <point x="114.607442337" y="265.620210589"/>
      <point x="111.497474683" y="231.0062467"/>
    </contour>
  </outline>
</glyph>
<glyph name="nine" format="2">
  <advance width="564"/>
  <unicode hex="0039"/>
  <outline>
    <contour>
      <point x="134.502525317" y="198.151367188" type="curve" smooth="yes"/>
      <point x="134.502525317" y="287.590798356"/>
      <point x="155.430503373" y="364.104125431"/>
      <point x="184.247699366" y="392.921321423" type="curve" smooth="yes"/>
      <point x="233.745174049" y="442.418796107" type="line" smooth="yes"/>
      <point x="241.6585375" y="450.332159558"/>
      <point x="250.166812964" y="454.648841871"/>
      <point x="259.0" y="454.648841871" type="curve" smooth="yes"/>
      <point x="267.366723805" y="454.648841871"/>
      <point x="275.308761093" y="450.593966076"/>
      <point x="282.729190296" y="443.173536872" type="curve" smooth="yes"/>
      <point x="332.226664979" y="393.676062189" type="line" smooth="yes"/>
      <point x="362.636869171" y="363.265857997"/>
      <point x="390.767667688" y="259.323471405"/>
      <point x="390.767667688" y="163.095428276" type="curve" smooth="yes"/>
      <point x="390.767667688" y="12.4318409849"/>
      <point x="298.575853991" y="-83.2262931072"/>
      <point x="255.497474683" y="-200.0" type="curve" smooth="yes"/>
      <point x="243.639006415" y="-232.145064879" type="line"/>
      <point x="156.502525317" y="-200.0" type="line"/>
      <point x="190.052080553" y="-109.05632959"/>
      <point x="249.936496698" y="-34.0891617137"/>
      <point x="277.385126264" y="61.7679760972" type="curve"/>
      <point x="252.281631796" y="62.7621874151"/>
      <point x="223.769026186" y="65.1339651254"/>
      <point x="204.924473105" y="83.9785182069" type="curve" smooth="yes"/>
      <point x="155.426998422" y="133.47599289" type="line" smooth="yes"/>
      <point x="142.791423588" y="146.111567723"/>
      <point x="134.502525317" y="166.153166304"/>
    </contour>
    <contour>
      <point x="291.772718322" y="163.095428276" type="curve" smooth="yes"/>
      <point x="291.772718322" y="234.071624533"/>
      <point x="276.300852581" y="307.278895053"/>
      <point x="258.361146375" y="351.575070013" type="curve"/>
      <point x="243.145896637" y="313.649322592"/>
      <point x="233.497474683" y="258.880004611"/>
      <point x="233.497474683" y="198.151367188" type="curve" smooth="yes"/>
      <point x="233.497474683" y="185.534928295"/>
      <point x="234.786078061" y="174.777279029"/>
      <point x="237.121641534" y="165.59948613" type="curve"/>
      <point x="255.312537199" y="160.850695111"/>
      <point x="273.095683992" y="161.052926435"/>
      <point x="291.76158175" y="160.218663729" type="curve"/>
      <point x="291.768994142" y="161.175217576"/>
      <point x="291.772718322" y="162.134131419"/>
    </contour>
  </outline>
</glyph>
<glyph name="colon" format="2">
  <advance width="142"/>
  <unicode hex="003A"/>
  <outline>
    <contour>
      <point x="116.497474683" y="439.0" type="line"/>
      <point x="67.0" y="389.502525317" type="line"/>
      <point x="17.5025253169" y="439.0" type="line"/>
      <point x="67.0" y="488.497474683" type="line"/>
    </contour>
    <contour>
      <point x="116.497474683" y="29.0" type="line"/>
      <point x="67.0" y="-20.4974746831" type="line"/>
      <point x="17.5025253169" y="29.0" type="line"/>
      <point x="67.0" y="78.4974746831" type="line"/>
    </contour>
  </outline>
</glyph>
<glyph name="semicolon" format="2">
  <advance width="231"/>
  <unicode hex="003B"/>
  <outline>
    <contour>
      <point x="214.997474683" y="-7.0" type="curve" smooth="yes"/>
      <point x="214.997474683" y="-25.7777777778"/>
      <point x="196.219696905" y="-47.1635802469"/>
      <point x="185.78759814" y="-57.5956790123" type="curve" smooth="yes"/>
      <point x="136.290123457" y="-107.093153695" type="line" smooth="yes"/>
      <point x="132.277777778" y="-111.105499374"/>
      <point x="129.5" y="-113.497474683"/>
      <point x="129.5" y="-113.497474683" type="curve"/>
      <point x="80.5507914101" y="-56.6532334716" type="line"/>
      <point x="105.456347285" y="-35.2067821936" type="line"/>
      <point x="111.384456049" y="-26.2657995433"/>
      <point x="116.002525317" y="-16.312200517"/>
      <point x="116.002525317" y="-7.0" type="curve" smooth="yes"/>
      <point x="116.002525317" y="6.0"/>
      <point x="107.002525317" y="26.0"/>
      <point x="107.002525317" y="26.0" type="curve"/>
      <point x="189.326807543" y="63.0459269897" type="line"/>
      <point x="205.997474683" y="26.0" type="line"/>
      <point x="205.997474683" y="26.0"/>
      <point x="214.997474683" y="6.0"/>
    </contour>
    <contour>
      <point x="180.497474683" y="388.0" type="line"/>
      <point x="131.0" y="338.502525317" type="line"/>
      <point x="81.5025253169" y="388.0" type="line"/>
      <point x="131.0" y="437.497474683" type="line"/>
    </contour>
  </outline>
</glyph>
<glyph name="less" format="2">
  <advance width="565"/>
  <unicode hex="003C"/>
  <outline>
    <contour>
      <point x="376.0" y="684.497474683" type="curve"/>
      <point x="425.450303682" y="632.839568158" type="line"/>
      <point x="192.546810937" y="409.889216128" type="line"/>
      <point x="413.497474683" y="176.0" type="line"/>
      <point x="361.186228008" y="126.582566971" type="line"/>
      <point x="92.5025253169" y="411.0" type="line"/>
      <point x="185.160283599" y="504.00722484"/>
      <point x="281.639732496" y="593.192759065"/>
    </contour>
  </outline>
</glyph>
<glyph name="equal" format="2">
  <advance width="512"/>
  <unicode hex="003D"/>
  <outline>
    <contour>
      <point x="430.0" y="421.497474683" type="line"/>
      <point x="430.0" y="322.502525317" type="line"/>
      <point x="82.0" y="322.502525317" type="line"/>
      <point x="82.0" y="421.497474683" type="line"/>
    </contour>
    <contour>
      <point x="430.0" y="521.497474683" type="line"/>
      <point x="430.0" y="422.502525317" type="line"/>
      <point x="82.0" y="422.502525317" type="line"/>
      <point x="82.0" y="521.497474683" type="line"/>
    </contour>
  </outline>
</glyph>
<glyph name="greater" format="2">
  <advance width="565"/>
  <unicode hex="003E"/>
  <outline>
    <contour>
      <point x="325.453189063" y="409.889216128" type="line"/>
      <point x="92.5496963179" y="632.839568158" type="line"/>
      <point x="142.0" y="684.497474683" type="line"/>
      <point x="236.371205998" y="593.203697559"/>
      <point x="332.831915738" y="503.999424177"/>
      <point x="425.497474683" y="411.0" type="curve"/>
      <point x="156.813771992" y="126.582566971" type="line"/>
      <point x="104.502525317" y="176.0" type="line"/>
    </contour>
  </outline>
</glyph>
<glyph name="question" format="2">
  <advance height="1000" width="306"/>
  <unicode hex="003F"/>
  <outline>
    <contour>
      <point x="173.497474683" y="350.502525317" type="line"/>
      <point x="173.497474683" y="212.0" type="line"/>
      <point x="74.5025253169" y="212.0" type="line"/>
      <point x="74.5025253169" y="400.0" type="line"/>
      <point x="124.0" y="449.497474683" type="line"/>
      <point x="194.751182737" y="449.497474683" type="line"/>
      <point x="202.839850412" y="470.202872671"/>
      <point x="206.521975671" y="489.516827388"/>
      <point x="206.521975671" y="507.668069886" type="curve" smooth="yes"/>
      <point x="206.521975671" y="531.948750576"/>
      <point x="199.933156998" y="554.148866528"/>
      <point x="188.489532154" y="574.815923422" type="curve"/>
      <point x="171.261831294" y="583.939673643"/>
      <point x="153.765646097" y="588.501548753"/>
      <point x="136.000976566" y="588.501548753" type="curve" smooth="yes"/>
      <point x="123.956559956" y="588.501548753"/>
      <point x="111.788725994" y="586.404537969"/>
      <point x="99.4974746831" y="582.210516406" type="curve"/>
      <point x="99.4974746831" y="570.0" type="line"/>
      <point x="72.9465662932" y="570.0" type="line"/>
      <point x="65.3436061121" y="565.613991176"/>
      <point x="57.6947506811" y="560.448166282"/>
      <point x="50.0" y="554.502525317" type="curve"/>
      <point x="65.4974746831" y="570.0" type="line"/>
      <point x="0.502525316942" y="570.0" type="line"/>
      <point x="0.502525316942" y="604.0" type="line"/>
      <point x="50.0" y="653.497474683" type="line"/>
      <point x="79.333984375" y="676.163490308"/>
      <point x="108.000976563" y="687.496498121"/>
      <point x="136.000976562" y="687.496498121" type="curve" smooth="yes"/>
      <point x="164.000976562" y="687.496498121"/>
      <point x="193.253033988" y="678.244440695"/>
      <point x="218.0" y="653.497474683" type="curve" smooth="yes"/>
      <point x="267.497474683" y="604.0" type="line"/>
      <point x="290.942163249" y="575.290810403"/>
      <point x="305.516925035" y="543.780591296"/>
      <point x="305.516925035" y="507.668069878" type="curve" smooth="yes"/>
      <point x="305.516925035" y="475.78050428"/>
      <point x="294.152994496" y="440.304527115"/>
      <point x="267.497474683" y="400.0" type="curve"/>
      <point x="218.0" y="350.502525317" type="line"/>
    </contour>
    <contour>
      <point x="78.5025253169" y="152.0" type="line"/>
      <point x="177.497474683" y="152.0" type="line"/>
      <point x="177.497474683" y="108.0" type="line"/>
      <point x="78.5025253169" y="108.0" type="line"/>
    </contour>
  </outline>
</glyph>
<glyph name="at" format="2">
  <advance width="700"/>
  <unicode hex="0040"/>
  <outline>
    <contour>
      <point x="271.155119852" y="396.218722808" type="curve"/>
      <point x="309.895690683" y="385.768744067"/>
      <point x="344.780854384" y="345.497474683"/>
      <point x="388.0" y="345.497474683" type="curve"/>
      <point x="388.0" y="246.502525317" type="line"/>
      <point x="364.404329169" y="246.502525317"/>
      <point x="343.953256781" y="259.041586492"/>
      <point x="322.76088908" y="272.035154261" type="curve" smooth="yes"/>
      <point x="299.974408693" y="286.00611217"/>
      <point x="276.330916529" y="300.502525317"/>
      <point x="247.0" y="300.502525317" type="curve" smooth="yes"/>
      <point x="239.968907719" y="300.502525317"/>
      <point x="233.546553314" y="299.747415574"/>
      <point x="227.680357495" y="298.326538181" type="curve"/>
      <point x="216.397818017" y="267.111604525"/>
      <point x="215.46022048" y="227.185367042"/>
      <point x="215.46022048" y="194.532671195" type="curve" smooth="yes"/>
      <point x="215.46022048" y="188.280960931"/>
      <point x="215.497474683" y="182.099408204"/>
      <point x="215.497474683" y="176.0" type="curve" smooth="yes"/>
      <point x="215.497474683" y="141.457971477"/>
      <point x="224.158074643" y="112.611495546"/>
      <point x="238.885577065" y="88.9809472762" type="curve"/>
      <point x="278.644888503" y="63.1883049761"/>
      <point x="329.69570167" y="51.4974746831"/>
      <point x="379.0" y="51.4974746831" type="curve" smooth="yes"/>
      <point x="383.807320431" y="51.4974746831"/>
      <point x="388.3309219" y="51.9592137234"/>
      <point x="392.583077482" y="52.8361616881" type="curve" smooth="yes"/>
      <point x="398.845069375" y="70.5493271129"/>
      <point x="401.502525317" y="90.8008075651"/>
      <point x="401.502525317" y="110.0" type="curve" smooth="yes"/>
      <point x="401.502525317" y="133.106575225"/>
      <point x="403.772391671" y="145.025357758"/>
      <point x="407.884885375" y="149.137851461" type="curve" smooth="yes"/>
      <point x="457.382360058" y="198.635326144" type="line" smooth="yes"/>
      <point x="458.535681639" y="199.788647726"/>
      <point x="459.833923065" y="200.328016539"/>
      <point x="461.267660962" y="200.328016539" type="curve" smooth="yes"/>
      <point x="464.345556381" y="200.328016539"/>
      <point x="468.047899645" y="197.842286155"/>
      <point x="472.281460109" y="193.608725691" type="curve" smooth="yes"/>
      <point x="521.778934792" y="144.111251008" type="line" smooth="yes"/>
      <point x="532.698936965" y="133.191248834"/>
      <point x="549.040252728" y="108.471326356"/>
      <point x="560.729940569" y="92.8533227498" type="curve" smooth="yes"/>
      <point x="567.112765354" y="89.4545965598"/>
      <point x="573.557829667" y="87.4974746831"/>
      <point x="580.0" y="87.4974746831" type="curve" smooth="yes"/>
      <point x="588.601151482" y="87.4974746831"/>
      <point x="596.336822343" y="88.4379499517"/>
      <point x="603.292103755" y="90.2206332338" type="curve"/>
      <point x="612.482356267" y="116.42568899"/>
      <point x="614.502525317" y="150.001265087"/>
      <point x="614.502525317" y="185.0" type="curve" smooth="yes"/>
      <point x="614.502524135" y="242.78054638"/>
      <point x="592.87157861" y="297.610481096"/>
      <point x="557.46694676" y="342.575794176" type="curve"/>
      <point x="508.137534453" y="381.552453955"/>
      <point x="446.268260397" y="405.502525317"/>
      <point x="382.0" y="405.502525317" type="curve" smooth="yes"/>
      <point x="342.086315349" y="405.502525287"/>
      <point x="305.002598039" y="402.498444937"/>
    </contour>
    <contour>
      <point x="614.502525317" y="-109.0" type="curve"/>
      <point x="713.497474683" y="-109.0" type="line"/>
      <point x="713.497474683" y="-117.0"/>
      <point x="704.497474683" y="-119.0"/>
      <point x="704.497474683" y="-127.0" type="curve" smooth="yes"/>
      <point x="704.497474683" y="-139.252479821"/>
      <point x="699.6118064" y="-149.950428826"/>
      <point x="691.72422497" y="-157.838010256" type="curve" smooth="yes"/>
      <point x="642.226750287" y="-207.335484939" type="line" smooth="yes"/>
      <point x="633.376730824" y="-216.185504402"/>
      <point x="620.747520179" y="-221.497474683"/>
      <point x="607.0" y="-221.497474683" type="curve" smooth="yes"/>
      <point x="498.0" y="-221.497474683"/>
      <point x="328.0" y="-218.497474683"/>
      <point x="328.0" y="-218.497474683" type="curve" smooth="yes"/>
      <point x="258.943753092" y="-218.497474683"/>
      <point x="199.413848805" y="-189.108763112"/>
      <point x="153.083731687" y="-142.778645995" type="curve" smooth="yes"/>
      <point x="103.586257004" y="-93.2811713116" type="line" smooth="yes"/>
      <point x="35.9986712253" y="-25.6935855328"/>
      <point x="-3.49747468306" y="77.9482539354"/>
      <point x="-3.49747468306" y="179.0" type="curve" smooth="yes"/>
      <point x="-3.49747468306" y="263.847075061"/>
      <point x="20.8664574771" y="326.901849381"/>
      <point x="65.1198027984" y="371.155194702" type="curve" smooth="yes"/>
      <point x="114.617277481" y="420.652669385" type="line" smooth="yes"/>
      <point x="172.776911568" y="478.812303471"/>
      <point x="265.290211503" y="504.497474683"/>
      <point x="382.0" y="504.497474683" type="curve" smooth="yes"/>
      <point x="458.286801296" y="504.497474683"/>
      <point x="531.193471869" y="470.752233761"/>
      <point x="583.759690254" y="418.186015376" type="curve" smooth="yes"/>
      <point x="633.257164937" y="368.688540693" type="line" smooth="yes"/>
      <point x="682.190313521" y="319.755392109"/>
      <point x="713.497474683" y="254.512954581"/>
      <point x="713.497474683" y="185.0" type="curve" smooth="yes"/>
      <point x="713.497474683" y="132.763867818"/>
      <point x="708.997344839" y="83.6979651073"/>
      <point x="682.87502537" y="57.5756456382" type="curve" smooth="yes"/>
      <point x="633.377550687" y="8.07817095516" type="line" smooth="yes"/>
      <point x="621.02419413" y="-4.27518560168"/>
      <point x="603.835284523" y="-11.4974746831"/>
      <point x="580.0" y="-11.4974746831" type="curve" smooth="yes"/>
      <point x="565.748674829" y="-11.4974746831"/>
      <point x="551.483187103" y="-1.91971439496"/>
      <point x="537.908673996" y="11.6547987118" type="curve" smooth="yes"/>
      <point x="492.872068286" y="56.6914044219" type="line"/>
      <point x="488.242720138" y="42.1492846079"/>
      <point x="481.320252124" y="29.0857990332"/>
      <point x="471.610164733" y="19.3757116419" type="curve" smooth="yes"/>
      <point x="422.11269005" y="-30.1217630412" type="line" smooth="yes"/>
      <point x="411.374145853" y="-40.8603072382"/>
      <point x="397.226201196" y="-47.4974746831"/>
      <point x="379.0" y="-47.4974746831" type="curve" smooth="yes"/>
      <point x="317.11343433" y="-47.4974746831"/>
      <point x="252.47520417" y="-29.0783682933"/>
      <point x="210.869074139" y="12.5277617381" type="curve" smooth="yes"/>
      <point x="161.371599456" y="62.0252364211" type="line" smooth="yes"/>
      <point x="133.925917622" y="89.4709182552"/>
      <point x="116.502525317" y="127.006303719"/>
      <point x="116.502525317" y="176.0" type="curve" smooth="yes"/>
      <point x="116.502525317" y="182.103720857"/>
      <point x="116.465271114" y="188.277101043"/>
      <point x="116.465271114" y="194.532671195" type="curve" smooth="yes"/>
      <point x="116.465271114" y="240.593935028"/>
      <point x="118.331006601" y="301.128898081"/>
      <point x="148.469380255" y="331.267271735" type="curve" smooth="yes"/>
      <point x="188.61434591" y="371.41223739" type="line"/>
      <point x="171.546417752" y="363.824539226"/>
      <point x="155.839549534" y="354.90631312"/>
      <point x="141.588243576" y="344.594391568" type="curve"/>
      <point x="111.667500477" y="302.781447359"/>
      <point x="95.4974746831" y="248.122357366"/>
      <point x="95.4974746831" y="179.0" type="curve" smooth="yes"/>
      <point x="95.4974756082" y="90.4105881309"/>
      <point x="125.852509563" y="-0.169458974548"/>
      <point x="178.878387342" y="-66.7025983009" type="curve"/>
      <point x="220.764332872" y="-99.5881819882"/>
      <point x="271.154552031" y="-119.502525317"/>
      <point x="328.0" y="-119.502525317" type="curve" smooth="yes"/>
      <point x="328.000000105" y="-119.502525371"/>
      <point x="497.581976989" y="-122.495148492"/>
      <point x="606.597436235" y="-122.502511761" type="curve"/>
      <point x="608.884238067" y="-118.06141298"/>
      <point x="614.502525317" y="-115.278342842"/>
    </contour>
  </outline>
</glyph>
<glyph name="A" format="2">
  <advance width="366"/>
  <unicode hex="0041"/>
  <outline>
    <contour>
      <point x="164.471728918" y="351.856511712" type="curve"/>
      <point x="171.141284858" y="302.891549449"/>
      <point x="180.726730968" y="249.640163808"/>
      <point x="180.726730968" y="196.838106875" type="curve" smooth="yes"/>
      <point x="180.726730968" y="182.554560973"/>
      <point x="179.807751307" y="168.514554202"/>
      <point x="177.497474683" y="155.0" type="curve"/>
      <point x="175.749804845" y="103.115510415"/>
      <point x="158.405045315" y="46.9538791861"/>
      <point x="120.865731708" y="9.4145655796" type="curve" smooth="yes"/>
      <point x="71.3682570254" y="-40.0829091035" type="line" smooth="yes"/>
      <point x="66.577582991" y="-44.8735831379"/>
      <point x="61.4580157854" y="-49.360969807"/>
      <point x="56.0" y="-53.4974746831" type="curve"/>
      <point x="50.0" y="-53.4974746831" type="line"/>
      <point x="50.0" y="37.5437832372" type="line"/>
      <point x="21.8707823424" y="9.4145655796" type="line"/>
      <point x="59.4100959488" y="46.9538791861"/>
      <point x="76.7548554791" y="103.115510415"/>
      <point x="78.5025253169" y="155.0" type="curve"/>
      <point x="80.8128019407" y="168.514554202"/>
      <point x="81.7317816016" y="182.554560973"/>
      <point x="81.7317816016" y="196.838106875" type="curve" smooth="yes"/>
      <point x="81.7317816016" y="262.421115985"/>
      <point x="68.3473642093" y="325.707093806"/>
      <point x="60.9286767314" y="386.70585658" type="curve" smooth="yes"/>
      <point x="57.4449362522" y="387.211806681"/>
      <point x="53.8431760457" y="387.502525317"/>
      <point x="50.0" y="387.502525317" type="curve" smooth="yes"/>
      <point x="47.6222999182" y="387.502525317"/>
      <point x="41.9425084487" y="394.91916306"/>
      <point x="40.2309754301" y="396.630696079" type="curve"/>
      <point x="23.1362386093" y="399.479818882"/>
      <point x="6.04150178848" y="402.328941686"/>
      <point x="-11.0532350323" y="405.178064489" type="curve"/>
      <point x="-4.92582202865" y="441.942542511" type="line"/>
      <point x="-6.01537744188" y="443.146900017"/>
      <point x="-7.0368357432" y="444.322888611"/>
      <point x="-7.74874608274" y="445.14249959" type="curve"/>
      <point x="-4.85642133802" y="442.358946655" type="line"/>
      <point x="5.0" y="501.497474683" type="line"/>
      <point x="41.0" y="495.497474683" type="line"/>
      <point x="50.0" y="486.497474683" type="line"/>
      <point x="51.4735140878" y="486.497474683"/>
      <point x="52.9115391736" y="486.454737991"/>
      <point x="54.3210301993" y="486.373519271" type="curve"/>
      <point x="54.3026655927" y="487.777731054"/>
      <point x="54.2935178459" y="489.181839801"/>
      <point x="54.2935178459" y="490.585773604" type="curve" smooth="yes"/>
      <point x="54.2935178459" y="594.29826422"/>
      <point x="106.342658767" y="700.104180557"/>
      <point x="176.020846576" y="769.782368366" type="curve" smooth="yes"/>
      <point x="225.518321259" y="819.279843049" type="line" smooth="yes"/>
      <point x="234.747968484" y="828.509490274"/>
      <point x="245.189877027" y="837.497474683"/>
      <point x="251.0" y="837.497474683" type="curve" smooth="yes"/>
      <point x="251.630936546" y="837.497474683"/>
      <point x="252.149786943" y="837.253891882"/>
      <point x="252.574872176" y="836.828806649" type="curve" smooth="yes"/>
      <point x="302.072346859" y="787.331331966" type="line" smooth="yes"/>
      <point x="303.512741559" y="785.890937265"/>
      <point x="303.876540879" y="782.366563075"/>
      <point x="303.876540879" y="779.173507762" type="curve" smooth="yes"/>
      <point x="303.876540879" y="775.914142527"/>
      <point x="303.497474683" y="773.0"/>
      <point x="303.497474683" y="773.0" type="curve"/>
      <point x="315.967796396" y="688.470321713"/>
      <point x="334.115518817" y="606.925678454"/>
      <point x="345.497474683" y="524.0" type="curve" smooth="yes"/>
      <point x="366.497474683" y="371.0" type="line"/>
      <point x="372.497474683" y="230.0" type="line"/>
      <point x="376.228372184" y="187.515304644"/>
      <point x="376.31285063" y="145.738459215"/>
      <point x="381.497474683" y="104.0" type="curve" smooth="yes"/>
      <point x="388.212318433" y="81.1201171875"/>
      <point x="394.387123121" y="58.716796875"/>
      <point x="399.497474683" y="35.0" type="curve" smooth="yes"/>
      <point x="408.133382483" y="9.90708550419"/>
      <point x="411.310445352" y="-3.14181068988"/>
      <point x="411.310445352" y="-7.81441466172" type="curve" smooth="yes"/>
      <point x="411.310445352" y="-8.81440456137"/>
      <point x="411.164933259" y="-9.43075338591"/>
      <point x="410.896274854" y="-9.69941179075" type="curve" smooth="yes"/>
      <point x="361.398800171" y="-59.1968864738" type="line" smooth="yes"/>
      <point x="361.292844367" y="-59.3028422776"/>
      <point x="361.167734097" y="-59.3547174988"/>
      <point x="361.024841371" y="-59.3547174988" type="curve" smooth="yes"/>
      <point x="360.717299045" y="-59.3547174988"/>
      <point x="360.327384397" y="-59.1144198575"/>
      <point x="359.868776019" y="-58.6558114793" type="curve" smooth="yes"/>
      <point x="310.371301336" y="-9.15833679624" type="line" smooth="yes"/>
      <point x="305.32413869" y="-4.11117415028"/>
      <point x="291.956891619" y="27.3774664825"/>
      <point x="288.502525317" y="56.0" type="curve"/>
      <point x="271.594216879" y="93.4708286777"/>
      <point x="272.291031627" y="135.02884714"/>
      <point x="261.502525317" y="176.0" type="curve"/>
      <point x="241.439873932" y="222.93337012"/>
      <point x="233.619326968" y="275.080598339"/>
      <point x="207.502525317" y="317.0" type="curve" smooth="yes"/>
      <point x="204.953649687" y="322.299735594"/>
      <point x="202.122977969" y="327.35988361"/>
      <point x="199.03866349" y="332.194140117" type="curve" smooth="yes"/>
      <point x="188.134354812" y="339.59951267"/>
      <point x="176.495204307" y="346.096796347"/>
    </contour>
    <contour>
      <point x="153.288467212" y="490.585773604" type="curve" smooth="yes"/>
      <point x="153.288467212" y="486.724673682"/>
      <point x="153.357657152" y="482.862250555"/>
      <point x="153.497474683" y="479.0" type="curve" smooth="yes"/>
      <point x="153.497474683" y="471.147285219"/>
      <point x="153.666512001" y="463.372117838"/>
      <point x="153.976981271" y="455.656807011" type="curve"/>
      <point x="181.056915007" y="443.80098453"/>
      <point x="206.745251394" y="428.562540085"/>
      <point x="227.223802321" y="408.083989157" type="curve" smooth="yes"/>
      <point x="267.644513488" y="367.663277991" type="line"/>
      <point x="261.162353549" y="420.340688112"/>
      <point x="253.448382875" y="471.786287498"/>
      <point x="246.502525317" y="524.0" type="curve" smooth="yes"/>
      <point x="238.575376965" y="581.754937993"/>
      <point x="225.897385885" y="638.115428711"/>
      <point x="216.518626369" y="696.096953266" type="curve"/>
      <point x="177.502595156" y="634.584814442"/>
      <point x="153.288467212" y="562.816832296"/>
    </contour>
  </outline>
</glyph>
<glyph name="B" format="2">
  <advance width="403"/>
  <unicode hex="0042"/>
  <outline>
    <contour>
      <point x="135.4834698" y="823.315096992" type="curve" smooth="yes"/>
      <point x="155.408977915" y="823.315096992"/>
      <point x="182.180859819" y="813.497474683"/>
      <point x="200.0" y="813.497474683" type="curve" smooth="yes"/>
      <point x="201.800980241" y="813.806331079"/>
      <point x="203.563869717" y="813.949261542"/>
      <point x="205.294865892" y="813.949261542" type="curve" smooth="yes"/>
      <point x="225.274553999" y="813.949261542"/>
      <point x="241.385147745" y="795.86297061"/>
      <point x="260.0" y="792.497474683" type="curve" smooth="yes"/>
      <point x="291.522929003" y="786.798314537"/>
      <point x="318.503865362" y="771.778322502"/>
      <point x="339.518145063" y="750.764042801" type="curve" smooth="yes"/>
      <point x="389.015619746" y="701.266568118" type="line" smooth="yes"/>
      <point x="420.41875183" y="669.863436034"/>
      <point x="438.497474683" y="625.074190673"/>
      <point x="438.497474683" y="578.0" type="curve"/>
      <point x="431.46457424" y="552.508157692"/>
      <point x="416.416698189" y="528.939900988"/>
      <point x="396.561645977" y="509.084848776" type="curve" smooth="yes"/>
      <point x="347.064171294" y="459.587374093" type="line" smooth="yes"/>
      <point x="327.863117995" y="440.386320794"/>
      <point x="304.166356893" y="424.657884652"/>
      <point x="278.875031863" y="414.020602599" type="curve"/>
      <point x="299.482713368" y="399.38946014"/>
      <point x="320.314158565" y="382.912475519"/>
      <point x="338.668463044" y="364.558171039" type="curve" smooth="yes"/>
      <point x="388.165937727" y="315.060696356" type="line" smooth="yes"/>
      <point x="422.05386847" y="281.172765613"/>
      <point x="447.497474683" y="240.885239551"/>
      <point x="447.497474683" y="194.0" type="curve" smooth="yes"/>
      <point x="447.497474683" y="141.128846495"/>
      <point x="432.431648019" y="100.783857938"/>
      <point x="405.227586221" y="73.5797961402" type="curve" smooth="yes"/>
      <point x="355.730111538" y="24.0823214571" type="line" smooth="yes"/>
      <point x="328.222113471" y="-3.42567660954"/>
      <point x="288.303137257" y="-17.4974746831"/>
      <point x="239.0" y="-17.4974746831" type="curve" smooth="yes"/>
      <point x="204.448043264" y="-17.4974746831"/>
      <point x="171.881684755" y="7.55792617587"/>
      <point x="143.0" y="18.5025253169" type="curve"/>
      <point x="100.191927527" y="61.3105977901" type="line"/>
      <point x="106.493080737" y="42.4943171105"/>
      <point x="113.200066996" y="23.7465437658"/>
      <point x="120.497474683" y="5.0" type="curve"/>
      <point x="34.5291854839" y="-28.4646035168" type="line"/>
      <point x="21.5025253169" y="5.0" type="line" smooth="yes"/>
      <point x="-0.0668106205583" y="60.41015625"/>
      <point x="-16.4779434331" y="115.831054688"/>
      <point x="-32.4974746831" y="173.0" type="curve"/>
      <point x="-44.4974746831" y="293.0" type="line"/>
      <point x="-35.4974746831" y="500.0" type="line"/>
      <point x="-17.4974746831" y="611.0" type="line"/>
      <point x="-12.026125047" y="632.885398544"/>
      <point x="-6.822670297" y="654.929429871"/>
      <point x="-1.02923075103" y="676.685911416" type="curve" smooth="yes"/>
      <point x="0.821880435551" y="683.637510039"/>
      <point x="3.50252531694" y="693.704310672"/>
      <point x="3.50252531694" y="698.0" type="curve" smooth="yes"/>
      <point x="7.69662871193" y="716.286834608"/>
      <point x="17.8882961898" y="735.32357502"/>
      <point x="32.3119021173" y="749.747180947" type="curve" smooth="yes"/>
      <point x="81.8093768003" y="799.24465563" type="line" smooth="yes"/>
      <point x="96.1129267527" y="813.548205582"/>
      <point x="114.578258632" y="823.315096992"/>
    </contour>
    <contour>
      <point x="200.0" y="714.502525317" type="curve" smooth="yes"/>
      <point x="182.287782504" y="714.502525317"/>
      <point x="155.288314472" y="724.320147625"/>
      <point x="135.4834698" y="724.320147625" type="curve" smooth="yes"/>
      <point x="126.485954931" y="724.320147625"/>
      <point x="117.940404608" y="722.510923428"/>
      <point x="109.984100527" y="719.309464483" type="curve"/>
      <point x="106.654555358" y="712.30222155"/>
      <point x="104.124645032" y="705.0946737"/>
      <point x="102.497474683" y="698.0" type="curve" smooth="yes"/>
      <point x="102.497474683" y="693.704310672"/>
      <point x="99.8168298017" y="683.637510039"/>
      <point x="97.9657186151" y="676.685911416" type="curve" smooth="yes"/>
      <point x="92.1722790691" y="654.929429871"/>
      <point x="86.9688243191" y="632.885398544"/>
      <point x="81.4974746831" y="611.0" type="curve"/>
      <point x="63.4974746831" y="500.0" type="line"/>
      <point x="54.4974746831" y="293.0" type="line"/>
      <point x="61.0819121317" y="227.155625514" type="line"/>
      <point x="156.31069176" y="231.296007237" type="line"/>
      <point x="159.497474683" y="158.0" type="line"/>
      <point x="181.003112813" y="99.3482596457" type="line"/>
      <point x="199.553703509" y="90.0100544486"/>
      <point x="218.767336467" y="81.4974746831"/>
      <point x="239.0" y="81.4974746831" type="curve" smooth="yes"/>
      <point x="273.418130637" y="81.4974746831"/>
      <point x="303.263053836" y="88.3551203224"/>
      <point x="327.505037296" y="101.854179244" type="curve"/>
      <point x="341.172164582" y="126.335682588"/>
      <point x="348.502525317" y="157.120504107"/>
      <point x="348.502525317" y="194.0" type="curve" smooth="yes"/>
      <point x="348.502524536" y="229.967459124"/>
      <point x="333.528934886" y="262.052157703"/>
      <point x="311.25627984" y="290.343537552" type="curve"/>
      <point x="280.842708037" y="315.448699839"/>
      <point x="247.679743083" y="336.286839551"/>
      <point x="221.133829476" y="352.967117002" type="curve" smooth="yes"/>
      <point x="200.074089151" y="366.200125927"/>
      <point x="183.178966857" y="376.816273165"/>
      <point x="175.125176531" y="384.870063491" type="curve" smooth="yes"/>
      <point x="125.627701848" y="434.367538174" type="line" smooth="yes"/>
      <point x="122.31900818" y="437.676231842"/>
      <point x="120.502525317" y="440.552459374"/>
      <point x="120.502525317" y="443.0" type="curve" smooth="yes"/>
      <point x="120.502525317" y="443.604626781"/>
      <point x="120.618865797" y="445.018183464"/>
      <point x="120.805725644" y="446.89862259" type="curve"/>
      <point x="110.521188512" y="457.183159722" type="line" smooth="yes"/>
      <point x="109.653686345" y="458.050661889"/>
      <point x="109.280408834" y="458.925402661"/>
      <point x="109.280408834" y="459.788501176" type="curve" smooth="yes"/>
      <point x="109.280408834" y="460.97092247"/>
      <point x="109.980985342" y="462.131493286"/>
      <point x="111.071159235" y="463.221667179" type="curve" smooth="yes"/>
      <point x="160.568633919" y="512.719141862" type="line" smooth="yes"/>
      <point x="164.390366713" y="516.540874657"/>
      <point x="173.0" y="519.497474683"/>
      <point x="173.0" y="519.497474683" type="curve"/>
      <point x="194.0" y="498.497474683" type="line"/>
      <point x="198.577962841" y="498.058164664"/>
      <point x="203.207519591" y="497.843298273"/>
      <point x="207.871503544" y="497.843298273" type="curve" smooth="yes"/>
      <point x="245.896492719" y="497.843298273"/>
      <point x="286.209849834" y="512.125415435"/>
      <point x="319.508573453" y="535.499541287" type="curve"/>
      <point x="328.498120387" y="548.764309499"/>
      <point x="335.378387534" y="563.051420694"/>
      <point x="339.502525317" y="578.0" type="curve"/>
      <point x="339.502525317" y="612.504562831"/>
      <point x="329.789487459" y="645.781507953"/>
      <point x="312.235683251" y="673.459142175" type="curve"/>
      <point x="296.724463006" y="683.098460692"/>
      <point x="279.205177928" y="690.030342112"/>
      <point x="260.0" y="693.502525317" type="curve" smooth="yes"/>
      <point x="241.369247246" y="696.870895995"/>
      <point x="225.286021975" y="714.954312176"/>
      <point x="205.294865892" y="714.954312176" type="curve" smooth="yes"/>
      <point x="203.563869717" y="714.954312176"/>
      <point x="201.800980241" y="714.811381713"/>
    </contour>
  </outline>
</glyph>
<glyph name="C" format="2">
  <advance width="346"/>
  <unicode hex="0043"/>
  <outline>
    <contour>
      <point x="115.0" y="67.4974746831" type="curve" smooth="yes"/>
      <point x="129.0" y="67.4974746831" type="line"/>
      <point x="158.515553108" y="54.8966216407"/>
      <point x="190.489794633" y="47.414563412"/>
      <point x="224.748365342" y="47.414563412" type="curve" smooth="yes"/>
      <point x="247.276698555" y="47.414563412"/>
      <point x="263.676441086" y="51.4644281661"/>
      <point x="277.058297945" y="58.8153936741" type="curve"/>
      <point x="289.502525317" y="92.0" type="line"/>
      <point x="291.612397625" y="155.296169235" type="line"/>
      <point x="390.497474683" y="152.0" type="line"/>
      <point x="388.497474683" y="92.0" type="line"/>
      <point x="370.497474683" y="44.0" type="line"/>
      <point x="321.0" y="-5.49747468306" type="line"/>
      <point x="292.538220597" y="-29.5086472397"/>
      <point x="274.484990137" y="-51.5803859541"/>
      <point x="224.748365342" y="-51.5803859541" type="curve" smooth="yes"/>
      <point x="190.489794633" y="-51.5803859541"/>
      <point x="158.515553108" y="-44.0983277254"/>
      <point x="129.0" y="-31.4974746831" type="curve"/>
      <point x="115.0" y="-31.4974746831" type="line" smooth="yes"/>
      <point x="105.116867754" y="-31.4974746831"/>
      <point x="96.2778336635" y="-26.5668669923"/>
      <point x="88.3318626917" y="-18.6208960205" type="curve" smooth="yes"/>
      <point x="38.8343880087" y="30.8765786625" type="line" smooth="yes"/>
      <point x="12.9531081821" y="56.757858489"/>
      <point x="1.69233987862" y="106.57197205"/>
      <point x="-16.4974746831" y="140.0" type="curve" smooth="yes"/>
      <point x="-25.3044545682" y="156.184636668"/>
      <point x="-29.9648019092" y="172.271290583"/>
      <point x="-32.4974746831" y="190.0" type="curve" smooth="yes"/>
      <point x="-40.4974746831" y="246.0" type="line"/>
      <point x="-44.4974746831" y="388.0" type="line"/>
      <point x="-30.4974746831" y="522.0" type="line"/>
      <point x="16.7855168992" y="583.302213257"/>
      <point x="19.5169537946" y="689.501267227"/>
      <point x="74.3520050015" y="744.336318433" type="curve" smooth="yes"/>
      <point x="123.849479685" y="793.833793116" type="line" smooth="yes"/>
      <point x="145.637413695" y="815.621727126"/>
      <point x="175.452359535" y="829.497474683"/>
      <point x="219.0" y="829.497474683" type="curve" smooth="yes"/>
      <point x="239.077186096" y="829.497474683"/>
      <point x="262.701497851" y="808.862602311"/>
      <point x="281.0" y="803.497474683" type="curve" smooth="yes"/>
      <point x="288.336589073" y="801.346267106"/>
      <point x="294.555866327" y="797.359433704"/>
      <point x="299.78839063" y="792.1269094" type="curve" smooth="yes"/>
      <point x="349.285865313" y="742.629434717" type="line" smooth="yes"/>
      <point x="363.098957307" y="728.816342723"/>
      <point x="370.035544772" y="706.322254008"/>
      <point x="372.497474683" y="686.0" type="curve"/>
      <point x="274.934361292" y="674.18076248" type="line"/>
      <point x="273.387311501" y="686.951044308"/>
      <point x="272.1735548" y="697.858014568"/>
      <point x="268.622158206" y="709.524359683" type="curve"/>
      <point x="254.391730784" y="716.537273593"/>
      <point x="234.752766632" y="730.502525317"/>
      <point x="219.0" y="730.502525317" type="curve" smooth="yes"/>
      <point x="191.179770301" y="730.502525266"/>
      <point x="168.964183213" y="724.839499231"/>
      <point x="150.865605574" y="715.068316593" type="curve"/>
      <point x="116.546125489" y="658.032524603"/>
      <point x="107.886925243" y="573.068268261"/>
      <point x="68.4974746831" y="522.0" type="curve"/>
      <point x="54.4974746831" y="388.0" type="line"/>
      <point x="58.4974746831" y="246.0" type="line"/>
      <point x="66.4974746831" y="190.0" type="line"/>
      <point x="70.4690539779" y="172.527253088"/>
      <point x="73.6865442976" y="156.191896524"/>
      <point x="82.4974746831" y="140.0" type="curve" smooth="yes"/>
      <point x="93.4151750941" y="119.936178389"/>
      <point x="102.467846553" y="90.2111337427"/>
      <point x="113.636559846" y="67.5288723291" type="curve" smooth="yes"/>
      <point x="114.08882025" y="67.508003562"/>
      <point x="114.543295335" y="67.4974746831"/>
    </contour>
  </outline>
</glyph>
<glyph name="D" format="2">
  <advance width="363"/>
  <unicode hex="0044"/>
  <outline>
    <contour>
      <point x="46.5417011893" y="122.587592048" type="curve"/>
      <point x="46.4821699531" y="211.369972607"/>
      <point x="21.4719635831" y="314.416630572"/>
      <point x="21.4719635831" y="402.757756247" type="curve" smooth="yes"/>
      <point x="21.4719635831" y="404.51151998"/>
      <point x="21.4820166196" y="406.259012612"/>
      <point x="21.5025253169" y="408.0" type="curve" smooth="yes"/>
      <point x="21.5025253169" y="664.434630438" type="line"/>
      <point x="-44.4974746831" y="678.0" type="line"/>
      <point x="-40.0244764315" y="699.762612751"/>
      <point x="-31.004237647" y="718.044176445"/>
      <point x="-17.1110019769" y="731.937412115" type="curve" smooth="yes"/>
      <point x="32.3864727062" y="781.434886798" type="line" smooth="yes"/>
      <point x="51.6251606405" y="800.673574732"/>
      <point x="80.2080077665" y="811.497474683"/>
      <point x="119.0" y="811.497474683" type="curve" smooth="yes"/>
      <point x="167.357098492" y="811.497474683"/>
      <point x="214.41988533" y="796.656098749"/>
      <point x="245.812736041" y="765.263248037" type="curve" smooth="yes"/>
      <point x="295.310210724" y="715.765773354" type="line" smooth="yes"/>
      <point x="308.566156051" y="702.509828027"/>
      <point x="319.028096725" y="686.302696608"/>
      <point x="325.613685621" y="667.015625" type="curve" smooth="yes"/>
      <point x="407.749427808" y="426.4765625" type="line"/>
      <point x="395.054115308" y="285.58984375" type="line"/>
      <point x="368.638854931" y="224.551105613"/>
      <point x="350.670709057" y="148.085568652"/>
      <point x="307.455694268" y="104.870553864" type="curve" smooth="yes"/>
      <point x="257.958219585" y="55.3730791805" type="line" smooth="yes"/>
      <point x="239.023444489" y="36.4383040849"/>
      <point x="215.52148003" y="24.5025253169"/>
      <point x="185.0" y="24.5025253169" type="curve" smooth="yes"/>
      <point x="168.640055451" y="24.5025253169"/>
      <point x="149.485362425" y="26.2571124983"/>
      <point x="131.995578343" y="27.6672633023" type="curve"/>
      <point x="128.379031833" y="17.2849432879"/>
      <point x="123.923549211" y="7.37033443358"/>
      <point x="118.497474683" y="-2.0" type="curve"/>
      <point x="69.0" y="-51.4974746831" type="line"/>
      <point x="53.1996543715" y="-45.9766981199"/>
      <point x="30.3637349261" y="-44.0011551999"/>
      <point x="20.1865672507" y="-33.8239875246" type="curve" smooth="yes"/>
      <point x="-29.3109074323" y="15.6734871585" type="line" smooth="yes"/>
      <point x="-32.5859154504" y="18.9484951766"/>
      <point x="-34.5510413355" y="23.0732393438"/>
      <point x="-34.5510413355" y="28.4396051185" type="curve" smooth="yes"/>
      <point x="-34.5510413355" y="43.0723906504"/>
      <point x="-28.0915416774" y="54.7288025614"/>
      <point x="-20.96097095" y="61.8593732888" type="curve" smooth="yes"/>
      <point x="28.5365037331" y="111.356847972" type="line" smooth="yes"/>
      <point x="33.4786045453" y="116.298948784"/>
      <point x="39.5715828508" y="119.945059828"/>
    </contour>
    <contour>
      <point x="119.0" y="712.502525317" type="curve" smooth="yes"/>
      <point x="96.6674344555" y="712.502525317"/>
      <point x="77.7184956083" y="708.915149836"/>
      <point x="61.9881398784" y="702.200069322" type="curve"/>
      <point x="58.4960733439" y="694.102175119"/>
      <point x="56.0249326663" y="685.431587207"/>
      <point x="54.0864028782" y="676.0" type="curve"/>
      <point x="120.497474683" y="676.0" type="line"/>
      <point x="120.497474683" y="408.0" type="line" smooth="yes"/>
      <point x="120.476965986" y="406.259012612"/>
      <point x="120.466912949" y="404.51151998"/>
      <point x="120.466912949" y="402.757756247" type="curve" smooth="yes"/>
      <point x="120.466912949" y="315.211386468"/>
      <point x="144.934944666" y="213.435387174"/>
      <point x="145.525623874" y="125.557920508" type="curve"/>
      <point x="159.196109086" y="124.455579686"/>
      <point x="172.608199515" y="123.497474683"/>
      <point x="185.0" y="123.497474683" type="curve" smooth="yes"/>
      <point x="202.825722772" y="123.497474683"/>
      <point x="218.257080991" y="127.568781801"/>
      <point x="231.782617899" y="134.727909107" type="curve"/>
      <point x="259.39082117" y="178.648339918"/>
      <point x="274.696257075" y="236.225764746"/>
      <point x="296.059165942" y="285.58984375" type="curve"/>
      <point x="308.754478442" y="426.4765625" type="line"/>
      <point x="226.618736255" y="667.015625" type="line" smooth="yes"/>
      <point x="224.060951651" y="674.506553641"/>
      <point x="220.918428202" y="681.532880262"/>
      <point x="217.254578429" y="688.102148391" type="curve" smooth="yes"/>
      <point x="188.9231191" y="704.590929362"/>
      <point x="154.306543428" y="712.502525317"/>
    </contour>
  </outline>
</glyph>
<glyph name="E" format="2">
  <advance width="332"/>
  <unicode hex="0045"/>
  <outline>
    <contour>
      <point x="-40.891493857" y="577.978640704" type="curve" smooth="yes"/>
      <point x="-40.891493857" y="583.63103544"/>
      <point x="-41.6761472776" y="589.080058342"/>
      <point x="-41.6761472776" y="594.526230791" type="curve" smooth="yes"/>
      <point x="-41.6761472776" y="636.785620202"/>
      <point x="-23.5404984919" y="679.523969378"/>
      <point x="2.32479094194" y="714.0" type="curve" smooth="yes"/>
      <point x="6.90217261624" y="722.537928152"/>
      <point x="12.7506553734" y="730.281483479"/>
      <point x="19.5843780584" y="737.115206164" type="curve" smooth="yes"/>
      <point x="69.0818527415" y="786.612680847" type="line" smooth="yes"/>
      <point x="86.9587901868" y="804.489618292"/>
      <point x="111.578112554" y="816.140212579"/>
      <point x="137.822265625" y="819.497474683" type="curve" smooth="yes"/>
      <point x="168.585990841" y="819.497474683"/>
      <point x="199.082870121" y="813.970344101"/>
      <point x="229.822265625" y="813.497474683" type="curve" smooth="yes"/>
      <point x="251.410302364" y="813.16585676"/>
      <point x="271.37230595" y="791.344010289"/>
      <point x="291.822265625" y="789.497474683" type="curve" smooth="yes"/>
      <point x="300.688755369" y="788.696872175" type="line"/>
      <point x="291.822265625" y="690.502525317" type="line"/>
      <point x="271.376897213" y="692.348646353"/>
      <point x="251.406536431" y="714.170965243"/>
      <point x="229.822265625" y="714.502525317" type="curve" smooth="yes"/>
      <point x="199.076395159" y="714.97549434"/>
      <point x="168.59248971" y="720.502525317"/>
      <point x="137.822265625" y="720.502525317" type="curve" smooth="yes"/>
      <point x="123.361668652" y="718.652665178"/>
      <point x="109.394376655" y="714.284917169"/>
      <point x="96.7764874509" y="707.745060764" type="curve"/>
      <point x="73.3556812233" y="674.427700741"/>
      <point x="57.3188020885" y="634.26519998"/>
      <point x="57.3188020885" y="594.526230791" type="curve" smooth="yes"/>
      <point x="57.3188020885" y="589.078772925"/>
      <point x="58.1034555091" y="583.632255865"/>
      <point x="58.1034555091" y="577.978640704" type="curve" smooth="yes"/>
      <point x="58.1034555091" y="559.178118023"/>
      <point x="55.5290711966" y="539.296532121"/>
      <point x="55.5290711966" y="520.45004475" type="curve" smooth="yes"/>
      <point x="55.5290711966" y="506.692327637"/>
      <point x="56.8891805124" y="493.438397139"/>
      <point x="61.5866150923" y="481.500430739" type="curve" smooth="yes"/>
      <point x="61.6651565944" y="481.500430739"/>
      <point x="61.7437071425" y="481.497474683"/>
      <point x="61.822265625" y="481.497474683" type="curve" smooth="yes"/>
      <point x="63.1170031172" y="481.702612137"/>
      <point x="64.4035338345" y="481.794452902"/>
      <point x="65.684866466" y="481.794452902" type="curve" smooth="yes"/>
      <point x="75.3070650582" y="481.794452902"/>
      <point x="84.6884655283" y="476.875487133"/>
      <point x="93.822265625" y="475.497474683" type="curve" smooth="yes"/>
      <point x="110.328512293" y="473.007765444"/>
      <point x="121.179013234" y="461.497474683"/>
      <point x="139.822265625" y="461.497474683" type="curve" smooth="yes"/>
      <point x="167.822265625" y="461.497474683" type="line"/>
      <point x="167.822265625" y="362.502525317" type="line"/>
      <point x="147.170673161" y="357.311247992"/>
      <point x="121.762344619" y="344.639967259"/>
      <point x="98.9079912039" y="327.588250896" type="curve"/>
      <point x="79.0411252529" y="307.721384945" type="line"/>
      <point x="62.0139095767" y="284.958152756"/>
      <point x="54.6072596662" y="258.358089256"/>
      <point x="54.6072596662" y="228.501144141" type="curve" smooth="yes"/>
      <point x="54.6072596662" y="223.105968427"/>
      <point x="54.8491075354" y="217.604446403"/>
      <point x="55.3197403081" y="212.0" type="curve" smooth="yes"/>
      <point x="54.9487169143" y="202.267332574"/>
      <point x="54.4975940858" y="192.282308451"/>
      <point x="54.4975940858" y="182.513713419" type="curve" smooth="yes"/>
      <point x="54.4975940858" y="159.107098744"/>
      <point x="57.0608148999" y="136.263250174"/>
      <point x="69.3197403081" y="116.0" type="curve" smooth="yes"/>
      <point x="72.6430842756" y="105.035594457"/>
      <point x="77.2744021182" y="94.8287259725"/>
      <point x="82.9887288167" y="85.4076544658" type="curve"/>
      <point x="112.897052147" y="66.4202888792"/>
      <point x="148.982174718" y="56.139456573"/>
      <point x="183.822265625" y="55.4974746831" type="curve"/>
      <point x="192.902382576" y="52.7847144368"/>
      <point x="201.831146282" y="51.5236889315"/>
      <point x="210.531051097" y="51.5236889315" type="curve" smooth="yes"/>
      <point x="229.021374444" y="51.5236889315"/>
      <point x="246.47791857" y="57.2198712348"/>
      <point x="262.156597098" y="66.7813480026" type="curve"/>
      <point x="272.324790942" y="80.0" type="line"/>
      <point x="280.924454233" y="97.1993265821"/>
      <point x="289.524117524" y="114.398653164"/>
      <point x="298.123780815" y="131.597979746" type="curve"/>
      <point x="377.319740308" y="92.0" type="line"/>
      <point x="371.319740308" y="80.0" type="line"/>
      <point x="351.319740308" y="54.0" type="line" smooth="yes"/>
      <point x="346.822981854" y="48.0498857181"/>
      <point x="341.949313959" y="42.417615026"/>
      <point x="336.742451823" y="37.2107528901" type="curve" smooth="yes"/>
      <point x="287.24497714" y="-12.286721793" type="line" smooth="yes"/>
      <point x="266.167108593" y="-33.3645903405"/>
      <point x="239.629163735" y="-47.4712604346"/>
      <point x="210.531051097" y="-47.4712604346" type="curve" smooth="yes"/>
      <point x="201.831146282" y="-47.4712604346"/>
      <point x="192.902382576" y="-46.2102349293"/>
      <point x="183.822265625" y="-43.4974746831" type="curve"/>
      <point x="137.085486486" y="-42.6362781414"/>
      <point x="88.1082359848" y="-24.429684736"/>
      <point x="54.8068651829" y="8.87168606591" type="curve" smooth="yes"/>
      <point x="5.3093904998" y="58.369160749" type="line" smooth="yes"/>
      <point x="-10.5559162113" y="74.2344674601"/>
      <point x="-22.8632335645" y="93.5258694442"/>
      <point x="-29.6752090581" y="116.0" type="curve"/>
      <point x="-41.9341344663" y="136.263250174"/>
      <point x="-44.4973552803" y="159.107098744"/>
      <point x="-44.4973552803" y="182.513713419" type="curve" smooth="yes"/>
      <point x="-44.4973552803" y="192.283297801"/>
      <point x="-44.0462690414" y="202.266372757"/>
      <point x="-43.6752090581" y="212.0" type="curve" smooth="yes"/>
      <point x="-44.1458418308" y="217.604446403"/>
      <point x="-44.3876896999" y="223.105968427"/>
      <point x="-44.3876896999" y="228.501144141" type="curve" smooth="yes"/>
      <point x="-44.3876896999" y="264.586267463"/>
      <point x="-33.5686811121" y="295.914013214"/>
      <point x="-8.022168738" y="321.460525588" type="curve" smooth="yes"/>
      <point x="11.6464305656" y="341.129124892" type="line" smooth="yes"/>
      <point x="15.7565662622" y="346.308119217"/>
      <point x="20.2857048256" y="351.341362193"/>
      <point x="25.128555803" y="356.18421317" type="curve" smooth="yes"/>
      <point x="54.1682737768" y="385.223931144" type="line"/>
      <point x="51.8418779428" y="386.760756218"/>
      <point x="49.5723552764" y="388.804569125"/>
      <point x="47.4056804546" y="390.971243947" type="curve" smooth="yes"/>
      <point x="35.996080251" y="402.380844151" type="line" smooth="yes"/>
      <point x="32.3003598777" y="405.01293363"/>
      <point x="28.9658748372" y="407.67124645"/>
      <point x="26.0513628971" y="410.58575839" type="curve" smooth="yes"/>
      <point x="-23.446111786" y="460.083233073" type="line" smooth="yes"/>
      <point x="-39.7585598512" y="476.395681138"/>
      <point x="-43.4658785735" y="497.736263733"/>
      <point x="-43.4658785735" y="520.450042988" type="curve" smooth="yes"/>
      <point x="-43.4658785735" y="539.297732872"/>
      <point x="-40.891493857" y="559.17691845"/>
    </contour>
  </outline>
</glyph>
<glyph name="F" format="2">
  <advance width="442"/>
  <unicode hex="0046"/>
  <outline>
    <contour>
      <point x="41.0" y="473.497474683" type="line" smooth="yes"/>
      <point x="74.8204890316" y="473.497474683"/>
      <point x="111.196268912" y="459.795287096"/>
      <point x="143.0" y="453.497474683" type="curve"/>
      <point x="233.594476873" y="449.283778084" type="line"/>
      <point x="229.0" y="350.502525317" type="line"/>
      <point x="143.0" y="354.502525317" type="line"/>
      <point x="111.171395766" y="360.805263139"/>
      <point x="74.836368587" y="374.502525317"/>
      <point x="41.0" y="374.502525317" type="curve" smooth="yes"/>
      <point x="33.0" y="374.502525317" type="line"/>
      <point x="33.0" y="473.497474683" type="line"/>
    </contour>
    <contour>
      <point x="5.0" y="61.4974746831" type="line"/>
      <point x="15.7090393063" y="55.3273228176"/>
      <point x="30.5698160562" y="55.2995312284"/>
      <point x="45.4277214108" y="55.2995312284" type="curve" smooth="yes"/>
      <point x="50.4242894843" y="55.2995312284"/>
      <point x="55.0737327292" y="55.6756597775"/>
      <point x="59.3993837268" y="56.3992804603" type="curve"/>
      <point x="64.7563213123" y="75.4943809479"/>
      <point x="66.174883504" y="98.2914139971"/>
      <point x="66.174883504" y="121.697776328" type="curve" smooth="yes"/>
      <point x="66.174883504" y="147.011123527"/>
      <point x="64.3765574381" y="173.943007785"/>
      <point x="64.3765574381" y="198.662440984" type="curve" smooth="yes"/>
      <point x="64.3765574381" y="213.637120023"/>
      <point x="65.107730017" y="227.131109555"/>
      <point x="67.5025253169" y="238.0" type="curve"/>
      <point x="66.6422631449" y="253.9380603"/>
      <point x="66.2823881209" y="269.837993706"/>
      <point x="66.2823881209" y="285.710730513" type="curve" smooth="yes"/>
      <point x="66.2823881209" y="367.032138162"/>
      <point x="75.7248994318" y="447.624227295"/>
      <point x="75.7248994318" y="528.955382933" type="curve" smooth="yes"/>
      <point x="75.7248994318" y="535.964333822"/>
      <point x="75.6548012066" y="542.978892962"/>
      <point x="75.5025253169" y="550.0" type="curve" smooth="yes"/>
      <point x="72.3853590363" y="582.006996949"/>
      <point x="74.0604913885" y="617.755711725"/>
      <point x="72.2292275874" y="651.193556768" type="curve"/>
      <point x="33.8576088507" y="689.565175505" type="line" smooth="yes"/>
      <point x="16.5398079261" y="706.88297643"/>
      <point x="4.34004989207" y="731.162475426"/>
      <point x="-12.4974746831" y="748.0" type="curve"/>
      <point x="-10.4974746831" y="804.0" type="line"/>
      <point x="39.0" y="853.497474683" type="line"/>
      <point x="72.6918111901" y="821.524302751"/>
      <point x="105.855880904" y="789.023389343"/>
      <point x="138.497474683" y="756.0" type="curve" smooth="yes"/>
      <point x="146.259491005" y="746.769076545"/>
      <point x="152.211239881" y="736.569707821"/>
      <point x="156.782232442" y="725.661551455" type="curve"/>
      <point x="217.942642691" y="747.426859206"/>
      <point x="289.180228843" y="819.979325338"/>
      <point x="355.0" y="831.497474683" type="curve" smooth="yes"/>
      <point x="359.979049479" y="832.368819765"/>
      <point x="364.991995892" y="832.816940143"/>
      <point x="369.91002635" y="832.816940143" type="curve" smooth="yes"/>
      <point x="385.334074179" y="832.816940143"/>
      <point x="399.824537759" y="828.40927095"/>
      <point x="409.40784807" y="818.825960639" type="curve" smooth="yes"/>
      <point x="458.905322753" y="769.328485956" type="line" smooth="yes"/>
      <point x="465.858844646" y="762.374964062"/>
      <point x="470.228868278" y="752.696591507"/>
      <point x="470.497474683" y="740.0" type="curve"/>
      <point x="480.211818794" y="726.939249316"/>
      <point x="478.298464514" y="705.853720103"/>
      <point x="486.497474683" y="692.0" type="curve"/>
      <point x="413.181980186" y="648.609886701" type="line"/>
      <point x="387.502525317" y="692.0" type="line" smooth="yes"/>
      <point x="380.790176285" y="703.341735503"/>
      <point x="380.987529279" y="721.061739711"/>
      <point x="375.215275257" y="733.644117241" type="curve"/>
      <point x="373.463425299" y="733.763094998"/>
      <point x="371.692963154" y="733.821990777"/>
      <point x="369.91002635" y="733.821990777" type="curve" smooth="yes"/>
      <point x="364.991995892" y="733.821990777"/>
      <point x="359.979049479" y="733.373870399"/>
      <point x="355.0" y="732.502525317" type="curve" smooth="yes"/>
      <point x="293.912543918" y="721.812508777"/>
      <point x="227.18048163" y="658.76142551"/>
      <point x="171.930849002" y="632.940941388" type="curve"/>
      <point x="172.837195326" y="597.230070046"/>
      <point x="174.719848798" y="563.95976445"/>
      <point x="174.719848798" y="528.955382933" type="curve" smooth="yes"/>
      <point x="174.719848798" y="447.623999448"/>
      <point x="165.277337487" y="367.032365981"/>
      <point x="165.277337487" y="285.710730513" type="curve" smooth="yes"/>
      <point x="165.277337487" y="269.837993706"/>
      <point x="165.637212511" y="253.9380603"/>
      <point x="166.497474683" y="238.0" type="curve"/>
      <point x="164.102679383" y="227.131109555"/>
      <point x="163.371506804" y="213.637120023"/>
      <point x="163.371506804" y="198.662440984" type="curve" smooth="yes"/>
      <point x="163.371506804" y="173.961677979"/>
      <point x="165.16983287" y="146.994386416"/>
      <point x="165.16983287" y="121.697776328" type="curve" smooth="yes"/>
      <point x="165.16983287" y="81.6128265978"/>
      <point x="161.009354965" y="43.314968774"/>
      <point x="140.031987092" y="22.3376009012" type="curve" smooth="yes"/>
      <point x="90.5345124092" y="-27.1598737819" type="line" smooth="yes"/>
      <point x="80.1406464918" y="-37.5537396992"/>
      <point x="65.6182271007" y="-43.6954181377"/>
      <point x="45.4277214108" y="-43.6954181377" type="curve" smooth="yes"/>
      <point x="30.6021397448" y="-43.6954181377"/>
      <point x="15.7086013181" y="-43.6673741959"/>
      <point x="5.0" y="-37.4974746831" type="curve" smooth="yes"/>
      <point x="-37.8219034829" y="-12.8250796997" type="line"/>
    </contour>
  </outline>
</glyph>
<glyph name="G" format="2">
  <advance width="423"/>
  <unicode hex="0047"/>
  <outline>
    <contour>
      <point x="223.502525317" y="135.0" type="curve" smooth="yes"/>
      <point x="223.502525317" y="171.864116296"/>
      <point x="181.502525317" y="197.701124304"/>
      <point x="181.502525317" y="233.0" type="curve" smooth="yes"/>
      <point x="181.502525317" y="239.656925267"/>
      <point x="179.502525317" y="246.580608102"/>
      <point x="179.502525317" y="253.0" type="curve" smooth="yes"/>
      <point x="179.502525317" y="262.038688828"/>
      <point x="183.128171577" y="269.3854094"/>
      <point x="188.866952327" y="275.124190151" type="curve" smooth="yes"/>
      <point x="238.36442701" y="324.621664834" type="line" smooth="yes"/>
      <point x="249.133383427" y="335.390621251"/>
      <point x="267.343405072" y="340.497474683"/>
      <point x="283.0" y="340.497474683" type="curve" smooth="yes"/>
      <point x="304.434408251" y="340.497474683"/>
      <point x="325.525852504" y="343.035181295"/>
      <point x="345.76014275" y="343.035181295" type="curve" smooth="yes"/>
      <point x="362.204531428" y="343.035181295"/>
      <point x="375.438160262" y="340.890852399"/>
      <point x="383.669088253" y="332.659924408" type="curve" smooth="yes"/>
      <point x="433.166562936" y="283.162449725" type="line" smooth="yes"/>
      <point x="439.156913778" y="277.172098883"/>
      <point x="442.497474683" y="267.957847684"/>
      <point x="442.497474683" y="254.0" type="curve" smooth="yes"/>
      <point x="442.497474683" y="201.553379533"/>
      <point x="403.257326173" y="157.372368863"/>
      <point x="398.903452594" y="107.245000544" type="curve"/>
      <point x="408.450186452" y="106.414849774"/>
      <point x="417.996920309" y="105.584699004"/>
      <point x="427.543654167" y="104.754548234" type="curve"/>
      <point x="419.0" y="6.50252531694" type="line"/>
      <point x="373.0" y="10.5025253169" type="line"/>
      <point x="323.502525317" y="60.0" type="line"/>
      <point x="319.72877205" y="65.4509769407"/>
      <point x="314.958979236" y="69.9578558623"/>
      <point x="310.556752383" y="74.7564281021" type="curve"/>
      <point x="304.953304448" y="62.1949729571"/>
      <point x="297.050070376" y="51.4362841922"/>
      <point x="287.519733374" y="41.9059471906" type="curve" smooth="yes"/>
      <point x="238.022258691" y="-7.5915274925" type="line" smooth="yes"/>
      <point x="213.046032757" y="-32.567753427"/>
      <point x="176.637526739" y="-45.5364024905"/>
      <point x="143.0" y="-46.4974746831" type="curve"/>
      <point x="129.068808848" y="-40.8379282775"/>
      <point x="116.642007163" y="-32.1814485229"/>
      <point x="105.548125603" y="-21.0875669623" type="curve" smooth="yes"/>
      <point x="56.0506509197" y="28.4099077208" type="line" smooth="yes"/>
      <point x="-25.2675710482" y="109.728129689"/>
      <point x="-34.9693374491" y="322.00549543"/>
      <point x="-40.5850811325" y="444.879539857" type="curve" smooth="yes"/>
      <point x="-41.8795218337" y="473.202264894"/>
      <point x="-44.5120060023" y="495.378529577"/>
      <point x="-44.5120060023" y="522.384784934" type="curve" smooth="yes"/>
      <point x="-44.5120060023" y="597.876620339"/>
      <point x="-21.1159131477" y="672.449793251"/>
      <point x="27.0013199687" y="720.567026367" type="curve" smooth="yes"/>
      <point x="76.4987946517" y="770.06450105" type="line" smooth="yes"/>
      <point x="109.398788005" y="802.964494404"/>
      <point x="153.856146294" y="823.496087768"/>
      <point x="210.294431439" y="823.496087768" type="curve" smooth="yes"/>
      <point x="224.441292837" y="823.496087768"/>
      <point x="239.340925435" y="822.206071365"/>
      <point x="255.0" y="819.497474683" type="curve"/>
      <point x="300.993951597" y="817.497737657"/>
      <point x="339.481539818" y="782.915587733"/>
      <point x="371.0" y="757.497474683" type="curve" smooth="yes"/>
      <point x="419.373950668" y="718.486224145" type="line"/>
      <point x="371.0" y="658.502525317" type="line"/>
      <point x="339.473357422" y="683.927237073"/>
      <point x="301.001463839" y="718.502461672"/>
      <point x="255.0" y="720.502525317" type="curve"/>
      <point x="239.34092615" y="723.211121764"/>
      <point x="224.441294165" y="724.501138061"/>
      <point x="210.294433292" y="724.501138061" type="curve" smooth="yes"/>
      <point x="167.828306603" y="724.501138061"/>
      <point x="132.145277757" y="712.877011388"/>
      <point x="103.064911009" y="693.106253608" type="curve"/>
      <point x="70.4284184525" y="646.404302436"/>
      <point x="54.4829433596" y="584.707598338"/>
      <point x="54.4829433596" y="522.384785056" type="curve" smooth="yes"/>
      <point x="54.4829433596" y="495.408328171"/>
      <point x="57.1165869214" y="473.176897142"/>
      <point x="58.4098682336" y="444.879539857" type="curve" smooth="yes"/>
      <point x="63.4413239912" y="334.789879544"/>
      <point x="71.7527773768" y="152.932951923"/>
      <point x="131.913173254" y="57.7968927869" type="curve" smooth="yes"/>
      <point x="135.498784054" y="55.8142544992"/>
      <point x="139.193226764" y="54.0439763103"/>
      <point x="143.0" y="52.4974746831" type="curve" smooth="yes"/>
      <point x="165.306668386" y="53.1348080655"/>
      <point x="188.831918293" y="59.0526613731"/>
      <point x="209.433655414" y="70.2510346057" type="curve"/>
      <point x="219.337586198" y="90.0742310164"/>
      <point x="223.502525317" y="113.231272028"/>
    </contour>
    <contour>
      <point x="283.0" y="241.502525317" type="curve" smooth="yes"/>
      <point x="281.937387863" y="241.502525317"/>
      <point x="280.863013803" y="241.479001472"/>
      <point x="279.780002412" y="241.431780194" type="curve"/>
      <point x="280.169960796" y="238.665365027"/>
      <point x="280.497474683" y="235.832682514"/>
      <point x="280.497474683" y="233.0" type="curve" smooth="yes"/>
      <point x="280.497474683" y="207.260728478"/>
      <point x="305.437945631" y="183.257055883"/>
      <point x="315.594094461" y="162.274341934" type="curve"/>
      <point x="326.255282557" y="187.649580277"/>
      <point x="340.365953505" y="215.52025171"/>
      <point x="343.030413058" y="244.021593521" type="curve"/>
      <point x="323.490038059" y="243.762074459"/>
      <point x="303.740049637" y="241.502525317"/>
    </contour>
  </outline>
</glyph>
<glyph name="H" format="2">
  <advance width="682"/>
  <unicode hex="0048"/>
  <outline>
    <contour>
      <point x="218.365674976" y="305.278712478" type="curve"/>
      <point x="214.798789543" y="379.579996224"/>
      <point x="209.787537303" y="455.963628729"/>
      <point x="209.787537303" y="531.569269905" type="curve" smooth="yes"/>
      <point x="209.787537303" y="555.671847919"/>
      <point x="210.291233311" y="579.810328875"/>
      <point x="211.502525317" y="604.0" type="curve" smooth="yes"/>
      <point x="210.296220806" y="614.709571881"/>
      <point x="209.594659987" y="628.391453173"/>
      <point x="209.594659987" y="643.322360657" type="curve" smooth="yes"/>
      <point x="209.594659987" y="656.557074077"/>
      <point x="210.145876223" y="670.773147198"/>
      <point x="211.385380428" y="684.770413051" type="curve"/>
      <point x="156.959211963" y="697.76258327"/>
      <point x="115.206714113" y="737.447969375"/>
      <point x="54.4974746831" y="742.066497157" type="curve"/>
      <point x="54.4974746831" y="716.0" type="line"/>
      <point x="64.4974746831" y="666.0" type="line"/>
      <point x="-30.6899766305" y="646.962509737" type="line"/>
      <point x="-44.4974746831" y="716.0" type="line"/>
      <point x="-44.4974746831" y="782.0" type="line"/>
      <point x="5.0" y="831.497474683" type="line"/>
      <point x="17.5068380326" y="834.877779064"/>
      <point x="27.3890723018" y="841.497474683"/>
      <point x="43.0" y="841.497474683" type="curve" smooth="yes"/>
      <point x="122.251860384" y="841.497474683"/>
      <point x="168.010562178" y="779.497474683"/>
      <point x="247.0" y="779.497474683" type="curve" smooth="yes"/>
      <point x="247.448542826" y="779.497474683"/>
      <point x="247.895860418" y="779.501965092"/>
      <point x="248.341851227" y="779.510949031" type="curve" smooth="yes"/>
      <point x="284.961671214" y="816.130769018" type="line" smooth="yes"/>
      <point x="287.430123984" y="818.599221788"/>
      <point x="290.105446968" y="820.424196917"/>
      <point x="293.0" y="821.497474683" type="curve"/>
      <point x="342.497474683" y="772.0" type="line"/>
      <point x="342.497474683" y="759.384254969"/>
      <point x="338.2650476" y="749.646114033"/>
      <point x="331.356657316" y="742.737723749" type="curve" smooth="yes"/>
      <point x="317.139813418" y="728.520879851" type="line"/>
      <point x="311.017351659" y="703.194697993"/>
      <point x="308.589609353" y="671.097409687"/>
      <point x="308.589609353" y="643.322360657" type="curve" smooth="yes"/>
      <point x="308.589609353" y="628.391453173"/>
      <point x="309.291170172" y="614.709571881"/>
      <point x="310.497474683" y="604.0" type="curve"/>
      <point x="309.286182677" y="579.810328875"/>
      <point x="308.782486669" y="555.671847919"/>
      <point x="308.782486669" y="531.569269905" type="curve" smooth="yes"/>
      <point x="308.782486669" y="482.829442617"/>
      <point x="310.842212838" y="434.236430526"/>
      <point x="313.275583271" y="385.663821082" type="curve"/>
      <point x="346.559340069" y="412.256172881"/>
      <point x="380.232303606" y="438.897339376"/>
      <point x="411.298651039" y="467.12877604" type="curve" smooth="yes"/>
      <point x="423.094679977" y="480.358159825"/>
      <point x="434.103971279" y="494.061696816"/>
      <point x="444.091608122" y="508.370659155" type="curve"/>
      <point x="440.866560817" y="539.810913588"/>
      <point x="436.774079137" y="572.710966835"/>
      <point x="436.774079137" y="605.020980504" type="curve" smooth="yes"/>
      <point x="436.774079137" y="612.653338808"/>
      <point x="436.99641934" y="620.309617398"/>
      <point x="437.502525317" y="628.0" type="curve" smooth="yes"/>
      <point x="437.502525317" y="645.708458177"/>
      <point x="450.374911401" y="751.314756759"/>
      <point x="476.979006141" y="777.918851498" type="curve" smooth="yes"/>
      <point x="526.476480824" y="827.416326182" type="line" smooth="yes"/>
      <point x="530.357822888" y="831.297668245"/>
      <point x="534.531439801" y="833.497474683"/>
      <point x="539.0" y="833.497474683" type="curve" smooth="yes"/>
      <point x="539.815429728" y="833.497474683"/>
      <point x="540.514256341" y="833.165560937"/>
      <point x="541.113265743" y="832.566551534" type="curve" smooth="yes"/>
      <point x="590.610740427" y="783.069076851" type="line" smooth="yes"/>
      <point x="595.810542241" y="777.869275037"/>
      <point x="592.740178729" y="759.97288697"/>
      <point x="594.497474683" y="750.0" type="curve" smooth="yes"/>
      <point x="598.472238987" y="727.435167971"/>
      <point x="600.339646912" y="706.082943722"/>
      <point x="600.339646912" y="685.809243871" type="curve" smooth="yes"/>
      <point x="600.339646912" y="615.578500174"/>
      <point x="577.930377029" y="558.29026572"/>
      <point x="543.086557492" y="508.370659172" type="curve" smooth="yes"/>
      <point x="543.577056765" y="503.588893289"/>
      <point x="544.05243674" y="498.799514826"/>
      <point x="544.497474683" y="494.0" type="curve" smooth="yes"/>
      <point x="558.375804274" y="450.032781002"/>
      <point x="559.175364116" y="391.098004025"/>
      <point x="559.999520993" y="330.350203565" type="curve" smooth="yes"/>
      <point x="561.094197649" y="249.66265556"/>
      <point x="562.232268781" y="165.776541295"/>
      <point x="594.118852977" y="109.516880649" type="curve" smooth="yes"/>
      <point x="598.205805568" y="107.318501487"/>
      <point x="602.496085412" y="105.308583589"/>
      <point x="607.0" y="103.497474683" type="curve" smooth="yes"/>
      <point x="615.934570312" y="99.9047012456"/>
      <point x="671.0" y="71.4974746831"/>
      <point x="671.0" y="71.4974746831" type="curve"/>
      <point x="682.899494937" y="67.5309763709"/>
      <point x="694.798989873" y="63.5644780587"/>
      <point x="706.69848481" y="59.5979797464" type="curve"/>
      <point x="677.0" y="-29.4974746831" type="line"/>
      <point x="671.0" y="-27.4974746831" type="line"/>
      <point x="646.13263644" y="-14.6688892935"/>
      <point x="586.812260719" y="10.6799039834"/>
      <point x="566.308087806" y="31.1840768958" type="curve" smooth="yes"/>
      <point x="516.810613123" y="80.6815515789" type="line" smooth="yes"/>
      <point x="447.767601771" y="149.724562932"/>
      <point x="466.630440037" y="291.379868488"/>
      <point x="458.461307357" y="413.99715818" type="curve"/>
      <point x="437.808847026" y="393.344697849" type="line" smooth="yes"/>
      <point x="401.322876686" y="356.858727509"/>
      <point x="359.516769271" y="323.592269309"/>
      <point x="318.051841041" y="290.483536032" type="curve"/>
      <point x="319.810460203" y="251.673214123"/>
      <point x="321.350507638" y="217.618981326"/>
      <point x="321.350507638" y="177.031145417" type="curve" smooth="yes"/>
      <point x="321.350507638" y="124.778004748"/>
      <point x="316.362425198" y="54.0873807083"/>
      <point x="283.900866469" y="21.6258219798" type="curve" smooth="yes"/>
      <point x="234.403391786" y="-27.8716527033" type="line" smooth="yes"/>
      <point x="223.390425775" y="-38.8846187147"/>
      <point x="209.215302438" y="-45.4974746831"/>
      <point x="191.0" y="-45.4974746831" type="curve" smooth="yes"/>
      <point x="168.634637369" y="-44.8848657511"/>
      <point x="142.080803449" y="-33.9269632512"/>
      <point x="124.606822254" y="-16.452982056" type="curve" smooth="yes"/>
      <point x="75.1093475708" y="33.0444926271" type="line" smooth="yes"/>
      <point x="63.7195466996" y="44.4342934983"/>
      <point x="56.1874359502" y="58.5925327109"/>
      <point x="56.1874359502" y="74.4587789623" type="curve" smooth="yes"/>
      <point x="56.1874359502" y="78.214822237"/>
      <point x="56.609549692" y="82.0665854587"/>
      <point x="57.5025253169" y="86.0" type="curve" smooth="yes"/>
      <point x="73.2922798941" y="146.906342652"/>
      <point x="109.529732371" y="196.844854851"/>
      <point x="154.850718079" y="242.165840559" type="curve" smooth="yes"/>
      <point x="204.348192762" y="291.663315242" type="line" smooth="yes"/>
      <point x="208.9316976" y="296.246820081"/>
      <point x="213.608110095" y="300.783096208"/>
    </contour>
    <contour>
      <point x="155.182385316" y="74.4587789623" type="curve" smooth="yes"/>
      <point x="155.182385316" y="69.9181789963"/>
      <point x="155.799256949" y="65.5174629387"/>
      <point x="156.946879817" y="61.2814849841" type="curve"/>
      <point x="168.271840623" y="56.5363843579"/>
      <point x="180.130558996" y="53.7951991937"/>
      <point x="191.0" y="53.4974746831" type="curve" smooth="yes"/>
      <point x="196.183737712" y="53.4974746832"/>
      <point x="201.040274981" y="54.0330275255"/>
      <point x="205.589847832" y="55.0531354095" type="curve" smooth="yes"/>
      <point x="219.691858742" y="90.816101857"/>
      <point x="222.355558266" y="138.846549058"/>
      <point x="222.355558266" y="177.031145417" type="curve" smooth="yes"/>
      <point x="222.355558266" y="188.17554596"/>
      <point x="222.128664664" y="198.481278123"/>
      <point x="221.893016521" y="207.39859891" type="curve"/>
      <point x="191.76543173" y="171.327963129"/>
      <point x="168.360452675" y="131.759457431"/>
      <point x="156.497474683" y="86.0" type="curve" smooth="yes"/>
      <point x="155.604499058" y="82.0665854587"/>
      <point x="155.182385316" y="78.214822237"/>
    </contour>
  </outline>
</glyph>
<glyph name="I" format="2">
  <advance width="276"/>
  <unicode hex="0049"/>
  <outline>
    <contour>
      <point x="227.507764808" y="817.123637147" type="curve" smooth="yes"/>
      <point x="227.507764808" y="589.909343395"/>
      <point x="275.522865308" y="373.006485659"/>
      <point x="275.522865308" y="144.0" type="curve" smooth="yes"/>
      <point x="275.522865308" y="95.8215893403"/>
      <point x="254.469266635" y="46.3799627603"/>
      <point x="226.466071453" y="18.3767675781" type="curve" smooth="yes"/>
      <point x="176.96859677" y="-31.120707105" type="line" smooth="yes"/>
      <point x="162.588996365" y="-45.5003075101"/>
      <point x="146.376920992" y="-54.2270057897"/>
      <point x="130.242048263" y="-54.2270057897" type="curve" smooth="yes"/>
      <point x="118.060041071" y="-54.2270057897"/>
      <point x="105.922042605" y="-49.2524240005"/>
      <point x="94.649954752" y="-37.9803361479" type="curve" smooth="yes"/>
      <point x="45.1524800689" y="11.5171385351" type="line" smooth="yes"/>
      <point x="37.0638525795" y="19.6057660245"/>
      <point x="29.4211009946" y="30.9371141441"/>
      <point x="22.5279159419" y="46.0" type="curve"/>
      <point x="10.5279159419" y="96.0" type="line"/>
      <point x="104.131309821" y="118.464814531" type="line"/>
      <point x="121.522865308" y="46.0" type="line" smooth="yes"/>
      <point x="122.195943031" y="44.5292005318"/>
      <point x="128.607792377" y="44.7679435764"/>
      <point x="130.242048262" y="44.7679435764" type="curve" smooth="yes"/>
      <point x="137.09952621" y="44.7679435764"/>
      <point x="143.970949524" y="46.344275649"/>
      <point x="150.709710537" y="49.2609616998" type="curve"/>
      <point x="166.33907364" y="76.3567408387"/>
      <point x="176.527915942" y="110.484035688"/>
      <point x="176.527915942" y="144.0" type="curve" smooth="yes"/>
      <point x="176.527915942" y="287.283613096"/>
      <point x="157.944682014" y="426.962863362"/>
      <point x="144.115776191" y="562.502525317" type="curve"/>
      <point x="80.025390625" y="562.502525317" type="line"/>
      <point x="78.1578592015" y="564.116441362"/>
      <point x="76.3865431301" y="565.763315152"/>
      <point x="74.708966699" y="567.440891583" type="curve" smooth="yes"/>
      <point x="25.211492016" y="616.938366266" type="line" smooth="yes"/>
      <point x="7.81937857363" y="634.330479708"/>
      <point x="0.502690028838" y="655.022607469"/>
      <point x="0.502690028838" y="676.501841188" type="curve" smooth="yes"/>
      <point x="0.502690028838" y="712.997377703"/>
      <point x="21.6257341516" y="751.765263761"/>
      <point x="50.3394760574" y="780.479005666" type="curve" smooth="yes"/>
      <point x="99.8369507404" y="829.976480349" type="line" smooth="yes"/>
      <point x="123.293287544" y="853.432817153"/>
      <point x="151.815126377" y="870.179719715"/>
      <point x="178.025390625" y="873.497474683" type="curve"/>
      <point x="227.522865308" y="824.0" type="line"/>
      <point x="227.512764298" y="821.707070707"/>
      <point x="227.507764808" y="819.414957657"/>
    </contour>
    <contour>
      <point x="99.4976393983" y="676.501841122" type="curve" smooth="yes"/>
      <point x="99.4976393983" y="671.445848471"/>
      <point x="99.9030451197" y="666.433468068"/>
      <point x="100.749837553" y="661.497474683" type="curve"/>
      <point x="135.089126646" y="661.497474683" type="line"/>
      <point x="132.683868835" y="692.694461479"/>
      <point x="130.785029829" y="723.939261349"/>
      <point x="129.658325651" y="755.293606297" type="curve"/>
      <point x="128.633569067" y="754.628370364"/>
      <point x="127.612061042" y="753.94891784"/>
      <point x="126.594236544" y="753.255646178" type="curve" smooth="yes"/>
      <point x="110.143864355" y="729.466161844"/>
      <point x="99.4976393983" y="702.411358098"/>
    </contour>
  </outline>
</glyph>
<glyph name="J" format="2">
  <advance width="366"/>
  <unicode hex="004A"/>
  <outline>
    <contour>
      <point x="162.922014863" y="450.893976505" type="curve"/>
      <point x="154.685691988" y="443.233227553"/>
      <point x="145.675195827" y="431.829419992"/>
      <point x="133.408548595" y="431.829419992" type="curve" smooth="yes"/>
      <point x="131.687515593" y="431.829419992"/>
      <point x="129.888898549" y="432.04161862"/>
      <point x="128.0" y="432.502525317" type="curve" smooth="yes"/>
      <point x="112.877017715" y="432.502525317"/>
      <point x="99.6555845609" y="439.724705038"/>
      <point x="88.6035546308" y="450.776734968" type="curve" smooth="yes"/>
      <point x="39.1060799478" y="500.274209651" type="line" smooth="yes"/>
      <point x="14.371247179" y="525.00904242"/>
      <point x="0.502525316942" y="568.926836046"/>
      <point x="0.502525316942" y="594.0" type="curve" smooth="yes"/>
      <point x="0.502525316942" y="617.280230321"/>
      <point x="14.5370823263" y="636.404494317"/>
      <point x="32.2949446143" y="654.162356605" type="curve" smooth="yes"/>
      <point x="81.7924192974" y="703.659831288" type="line" smooth="yes"/>
      <point x="85.1545730497" y="707.021983998"/>
      <point x="88.6501957603" y="710.335155647"/>
      <point x="92.2093051607" y="713.61827869" type="curve" smooth="yes"/>
      <point x="99.7213568898" y="724.277497775"/>
      <point x="104.502525317" y="735.553179666"/>
      <point x="104.502525317" y="748.0" type="curve" smooth="yes"/>
      <point x="104.502525317" y="757.588211148"/>
      <point x="108.502525317" y="763.10674388"/>
      <point x="108.502525317" y="772.0" type="curve" smooth="yes"/>
      <point x="108.353570188" y="778.078478161"/>
      <point x="108.284267876" y="782.613924565"/>
      <point x="108.284267876" y="785.847517532" type="curve" smooth="yes"/>
      <point x="108.284267876" y="790.197022441"/>
      <point x="108.409656077" y="792.191092799"/>
      <point x="108.635242667" y="792.416679389" type="curve" smooth="yes"/>
      <point x="108.635242667" y="792.416679389"/>
      <point x="158.13271735" y="841.914154072"/>
      <point x="158.232108154" y="841.907713789" type="curve" smooth="yes"/>
      <point x="207.729582837" y="792.410239106" type="line" smooth="yes"/>
      <point x="208.311145998" y="791.828675945"/>
      <point x="209.404331335" y="782.321335875"/>
      <point x="210.702635133" y="771.030097962" type="curve" smooth="yes"/>
      <point x="212.185557448" y="758.133248472"/>
      <point x="213.93608148" y="742.909089565"/>
      <point x="215.497474683" y="736.0" type="curve" smooth="yes"/>
      <point x="215.174362823" y="729.670502537"/>
      <point x="215.021090397" y="723.379391856"/>
      <point x="215.021090397" y="717.122965704" type="curve" smooth="yes"/>
      <point x="215.021090397" y="626.073943442"/>
      <point x="247.379860366" y="540.681374818"/>
      <point x="260.919051633" y="457.249578947" type="curve"/>
      <point x="266.080041173" y="472.732547568"/>
      <point x="271.241030713" y="488.215516189"/>
      <point x="276.402020254" y="503.69848481" type="curve"/>
      <point x="365.497474683" y="474.0" type="line"/>
      <point x="341.497474683" y="402.0" type="line"/>
      <point x="330.449006585" y="386.307273554"/>
      <point x="288.316064923" y="333.462358894"/>
      <point x="267.819431827" y="307.322135778" type="curve"/>
      <point x="268.387868709" y="233.282374025"/>
      <point x="269.497474683" y="158.361985941"/>
      <point x="269.497474683" y="84.0" type="curve" smooth="yes"/>
      <point x="269.497474683" y="79.4919215504"/>
      <point x="267.497474683" y="74.6866756497"/>
      <point x="267.497474683" y="70.0" type="curve" smooth="yes"/>
      <point x="265.829096289" y="55.995184618"/>
      <point x="256.964177216" y="41.1143875992"/>
      <point x="244.705238121" y="28.8554485037" type="curve" smooth="yes"/>
      <point x="195.207763438" y="-20.6420261794" type="line" smooth="yes"/>
      <point x="179.675593972" y="-36.1741956452"/>
      <point x="158.694975809" y="-47.4974746831"/>
      <point x="140.0" y="-47.4974746831" type="curve" smooth="yes"/>
      <point x="126.916761148" y="-47.4974746831"/>
      <point x="110.50180022" y="-36.9003300425"/>
      <point x="96.4583065081" y="-22.8568363308" type="curve" smooth="yes"/>
      <point x="46.960831825" y="26.6406383523" type="line" smooth="yes"/>
      <point x="30.0026839745" y="43.5987862028"/>
      <point x="16.5025253169" y="65.5822777572"/>
      <point x="16.5025253169" y="80.0" type="curve" smooth="yes"/>
      <point x="16.5025253169" y="109.946364319"/>
      <point x="102.041814343" y="222.151374478"/>
      <point x="168.824482461" y="307.322135778" type="curve"/>
      <point x="168.63174027" y="332.427097028"/>
      <point x="168.502525317" y="357.350744762"/>
      <point x="168.502525317" y="382.0" type="curve" smooth="yes"/>
      <point x="168.502525041" y="405.374285622"/>
      <point x="166.352155662" y="428.274093207"/>
    </contour>
    <contour>
      <point x="170.502525317" y="84.0" type="curve" smooth="yes"/>
      <point x="170.502525317" y="115.191361621"/>
      <point x="170.307171329" y="146.52151233"/>
      <point x="170.038572562" y="177.817424332" type="curve"/>
      <point x="138.537764662" y="133.240519906"/>
      <point x="115.497474683" y="95.5419410021"/>
      <point x="115.497474683" y="80.0" type="curve" smooth="yes"/>
      <point x="115.497474683" y="73.2227580064"/>
      <point x="118.480462981" y="64.7737874138"/>
      <point x="123.403410149" y="55.9608635439" type="curve" smooth="yes"/>
      <point x="129.218900885" y="53.1293039291"/>
      <point x="134.865972445" y="51.4974746831"/>
      <point x="140.0" y="51.4974746831" type="curve" smooth="yes"/>
      <point x="148.186137446" y="51.4974746831"/>
      <point x="156.810519442" y="53.6685778412"/>
      <point x="165.22380674" y="57.4134739203" type="curve" smooth="yes"/>
      <point x="166.882404299" y="61.6252327456"/>
      <point x="168.008266204" y="65.8510565396"/>
      <point x="168.502525317" y="70.0" type="curve" smooth="yes"/>
      <point x="168.502525317" y="74.6866756497"/>
      <point x="170.502525317" y="79.4919215504"/>
    </contour>
    <contour>
      <point x="122.504514542" y="642.339586386" type="curve"/>
      <point x="119.789232738" y="639.696264086"/>
      <point x="116.985136367" y="637.068533102"/>
      <point x="114.129349118" y="634.446350473" type="curve" smooth="yes"/>
      <point x="105.28494057" y="622.185570394"/>
      <point x="99.4974746831" y="608.949688387"/>
      <point x="99.4974746831" y="594.0" type="curve" smooth="yes"/>
      <point x="99.4974746831" y="578.081847667"/>
      <point x="105.087367368" y="554.568225571"/>
      <point x="115.498819514" y="533.189951868" type="curve" smooth="yes"/>
      <point x="119.506202328" y="532.08807714"/>
      <point x="123.675350427" y="531.497474683"/>
      <point x="128.0" y="531.497474683" type="curve" smooth="yes"/>
      <point x="129.888898549" y="531.036567986"/>
      <point x="131.687515593" y="530.824369358"/>
      <point x="133.408548595" y="530.824369358" type="curve" smooth="yes"/>
      <point x="138.008050882" y="530.824369358"/>
      <point x="142.053418045" y="532.33997374"/>
      <point x="145.787021803" y="534.674283061" type="curve"/>
      <point x="137.414959027" y="569.989510994"/>
      <point x="128.348243818" y="606.050226378"/>
    </contour>
  </outline>
</glyph>
<glyph name="K" format="2">
  <advance width="752"/>
  <unicode hex="004B"/>
  <outline>
    <contour>
      <point x="53.0" y="791.497474683" type="line" smooth="yes"/>
      <point x="115.05078125" y="791.497474683"/>
      <point x="179.0" y="825.497474683"/>
      <point x="179.0" y="825.497474683" type="curve"/>
      <point x="228.497474683" y="776.0" type="line"/>
      <point x="237.692750228" y="704.910135636"/>
      <point x="242.747305635" y="615.721534865"/>
      <point x="242.747305635" y="523.124745065" type="curve" smooth="yes"/>
      <point x="242.747305635" y="475.066970352"/>
      <point x="241.385803224" y="426.091160874"/>
      <point x="238.535045405" y="378.251036281" type="curve"/>
      <point x="263.075752482" y="413.125706663"/>
      <point x="290.025794492" y="446.135012541"/>
      <point x="320.315658374" y="476.424876423" type="curve" smooth="yes"/>
      <point x="369.813133057" y="525.922351106" type="line" smooth="yes"/>
      <point x="390.955154103" y="547.064370093"/>
      <point x="413.724301708" y="566.881505281"/>
      <point x="438.436992345" y="585.083323498" type="curve"/>
      <point x="460.064718608" y="608.352338214"/>
      <point x="483.238381543" y="633.618684251"/>
      <point x="505.567242421" y="655.947545129" type="curve" smooth="yes"/>
      <point x="555.064717104" y="705.445019812" type="line" smooth="yes"/>
      <point x="583.245305439" y="733.625608148"/>
      <point x="608.569211723" y="755.497474683"/>
      <point x="621.0" y="755.497474683" type="curve"/>
      <point x="670.497474683" y="706.0" type="line"/>
      <point x="684.078071874" y="674.520741197"/>
      <point x="690.176629089" y="645.121795027"/>
      <point x="690.176629089" y="617.998611383" type="curve" smooth="yes"/>
      <point x="690.176629089" y="567.371551623"/>
      <point x="668.92896532" y="524.673356879"/>
      <point x="635.430682442" y="491.175074002" type="curve" smooth="yes"/>
      <point x="585.933207759" y="441.677599319" type="line" smooth="yes"/>
      <point x="532.550503834" y="388.294895393"/>
      <point x="448.056791991" y="358.275788715"/>
      <point x="368.863184236" y="356.76421609" type="curve"/>
      <point x="372.539188433" y="306.277303583"/>
      <point x="406.026140285" y="242.731397068"/>
      <point x="456.572579851" y="185.130690869" type="curve"/>
      <point x="523.981392483" y="125.910991673"/>
      <point x="608.344602902" y="81.5564246655"/>
      <point x="691.21009992" y="79.5671761706" type="curve" smooth="yes"/>
      <point x="692.966564131" y="82.6461112751"/>
      <point x="694.91549415" y="85.4177832163"/>
      <point x="697.198896131" y="87.7011851981" type="curve" smooth="yes"/>
      <point x="746.997592808" y="137.499881875" type="line"/>
      <point x="796.471972092" y="86.4112782184" type="line"/>
      <point x="791.299259384" y="81.4020132853" type="line"/>
      <point x="783.011785982" y="68.1325478016"/>
      <point x="779.432892895" y="49.5895874717"/>
      <point x="768.564189697" y="38.7208842739" type="curve" smooth="yes"/>
      <point x="719.066715014" y="-10.7765904092" type="line" smooth="yes"/>
      <point x="713.782815251" y="-16.0604901721"/>
      <point x="706.843065208" y="-19.4974746831"/>
      <point x="697.0" y="-19.4974746831" type="curve" smooth="yes"/>
      <point x="601.430026925" y="-19.4974746831"/>
      <point x="503.291050348" y="37.8167683181"/>
      <point x="430.971719972" y="110.136098695" type="curve" smooth="yes"/>
      <point x="381.474245289" y="159.633573378" type="line" smooth="yes"/>
      <point x="338.276914027" y="202.83090464"/>
      <point x="304.291612437" y="251.381806941"/>
      <point x="285.568297657" y="296.269698629" type="curve"/>
      <point x="257.873325599" y="248.179084125"/>
      <point x="233.02723548" y="198.051723961"/>
      <point x="209.021048321" y="147.731624737" type="curve"/>
      <point x="194.28823238" y="82.5560806121"/>
      <point x="174.381095858" y="31.7050748118"/>
      <point x="148.629387395" y="5.95336634902" type="curve" smooth="yes"/>
      <point x="99.1319127117" y="-43.544108334" type="line" smooth="yes"/>
      <point x="95.2233623383" y="-47.4526587075"/>
      <point x="91.1801726039" y="-50.7830053409"/>
      <point x="87.0" y="-53.4974746831" type="curve"/>
      <point x="37.5025253169" y="-4.0" type="line"/>
      <point x="62.2474286399" y="45.5698061284"/>
      <point x="85.903232598" y="97.1669499132"/>
      <point x="110.026098033" y="147.731622088" type="curve"/>
      <point x="133.402767287" y="251.146145507"/>
      <point x="143.752355992" y="390.624709526"/>
      <point x="143.752355992" y="523.124745761" type="curve" smooth="yes"/>
      <point x="143.752355992" y="588.330527118"/>
      <point x="141.245881415" y="651.846241076"/>
      <point x="136.552040838" y="708.541992383" type="curve"/>
      <point x="113.151859344" y="700.373938601"/>
      <point x="82.8561739931" y="692.502525317"/>
      <point x="53.0" y="692.502525317" type="curve" smooth="yes"/>
      <point x="5.0" y="692.502525317" type="line"/>
      <point x="5.0" y="791.497474683" type="line"/>
    </contour>
    <contour>
      <point x="591.181679722" y="617.998611403" type="curve" smooth="yes"/>
      <point x="591.181679722" y="624.813091708"/>
      <point x="590.796723578" y="631.77122382"/>
      <point x="590.004870615" y="638.869908097" type="curve"/>
      <point x="585.915592743" y="635.497590879"/>
      <point x="581.608191783" y="631.730961977"/>
      <point x="577.134411541" y="627.650259186" type="curve" smooth="yes"/>
      <point x="554.763701549" y="604.016309746"/>
      <point x="525.371623355" y="571.369887174"/>
      <point x="505.142632062" y="551.140895881" type="curve" smooth="yes"/>
      <point x="455.645157379" y="501.643421198" type="line" smooth="yes"/>
      <point x="437.753540034" y="483.751803853"/>
      <point x="421.808255073" y="474.000473743"/>
      <point x="403.457302055" y="458.1896576" type="curve"/>
      <point x="459.277718889" y="464.927652939"/>
      <point x="515.113920033" y="485.194383893"/>
      <point x="558.580447335" y="517.240109387" type="curve"/>
      <point x="579.015144368" y="545.919003849"/>
      <point x="591.181679722" y="579.688750603"/>
    </contour>
  </outline>
</glyph>
<glyph name="L" format="2">
  <advance width="518"/>
  <unicode hex="004C"/>
  <outline>
    <contour>
      <point x="207.125562981" y="108.086867654" type="curve"/>
      <point x="232.951858659" y="82.2605719763"/>
      <point x="264.361016066" y="57.2972631961"/>
      <point x="308.010044536" y="57.2972631961" type="curve" smooth="yes"/>
      <point x="357.379043127" y="57.2972631961"/>
      <point x="410.891992272" y="65.1156665188"/>
      <point x="449.749372397" y="86.0904797799" type="curve"/>
      <point x="458.566584193" y="103.671331704"/>
      <point x="463.589311398" y="125.279604386"/>
      <point x="463.589311398" y="151.876938843" type="curve" smooth="yes"/>
      <point x="463.589311398" y="153.889261732"/>
      <point x="463.560560017" y="155.930143292"/>
      <point x="463.502525317" y="158.0" type="curve"/>
      <point x="435.502525317" y="186.0" type="line"/>
      <point x="485.0" y="235.497474683" type="line"/>
      <point x="562.497474683" y="158.0" type="line"/>
      <point x="562.555509384" y="155.930143292"/>
      <point x="562.584260764" y="153.889261732"/>
      <point x="562.584260764" y="151.876938843" type="curve" smooth="yes"/>
      <point x="562.584260764" y="108.981852842"/>
      <point x="549.520192289" y="79.0632718328"/>
      <point x="528.544252166" y="58.0873317094" type="curve" smooth="yes"/>
      <point x="479.046777483" y="8.58985702637" type="line" smooth="yes"/>
      <point x="440.422460514" y="-30.034459943"/>
      <point x="370.501939478" y="-41.6976861698"/>
      <point x="308.010044551" y="-41.6976861698" type="curve" smooth="yes"/>
      <point x="263.353405871" y="-41.6976861698"/>
      <point x="231.832115872" y="-16.7776370971"/>
      <point x="202.566200634" y="12.4882781407" type="curve" smooth="yes"/>
      <point x="178.652593969" y="36.4018848061" type="line"/>
      <point x="176.883560205" y="34.105742184"/>
      <point x="175.044144594" y="31.9919353113"/>
      <point x="173.131594058" y="30.0793847757" type="curve" smooth="yes"/>
      <point x="123.634119375" y="-19.4180899073" type="line" smooth="yes"/>
      <point x="115.984709935" y="-27.0674993469"/>
      <point x="107.165384195" y="-31.4974746831"/>
      <point x="97.0" y="-31.4974746831" type="curve" smooth="yes"/>
      <point x="81.1609128073" y="-28.7906649309"/>
      <point x="67.2759808366" y="-20.3278525303"/>
      <point x="55.6220104666" y="-8.67388216018" type="curve" smooth="yes"/>
      <point x="6.12453578349" y="40.8235925229" type="line" smooth="yes"/>
      <point x="-16.4967249264" y="63.4448532327"/>
      <point x="-30.7122082131" y="98.0897021596"/>
      <point x="-34.4974746831" y="126.0" type="curve" smooth="yes"/>
      <point x="-36.0143997162" y="131.070537978"/>
      <point x="-36.7199215111" y="135.361093633"/>
      <point x="-36.7199215111" y="138.972170195" type="curve" smooth="yes"/>
      <point x="-36.7199215111" y="144.255680862"/>
      <point x="-35.209555448" y="148.084577128"/>
      <point x="-32.5204714335" y="150.773661143" type="curve" smooth="yes"/>
      <point x="16.9770032496" y="200.271135826" type="line" smooth="yes"/>
      <point x="20.9663970821" y="204.260529658"/>
      <point x="27.5500597559" y="205.741283146"/>
      <point x="35.6450992553" y="205.741283146" type="curve" smooth="yes"/>
      <point x="42.0054517576" y="205.741283146"/>
      <point x="49.2988376496" y="204.827154768"/>
      <point x="57.0" y="203.497474683" type="curve" smooth="yes"/>
      <point x="58.0246316397" y="203.523023692"/>
      <point x="59.0424239054" y="203.535680449"/>
      <point x="60.0535013314" y="203.535680449" type="curve" smooth="yes"/>
      <point x="83.0101121673" y="203.535680449"/>
      <point x="102.505079236" y="197.010851223"/>
      <point x="119.996069257" y="186.717660934" type="curve"/>
      <point x="122.889526154" y="217.764955215"/>
      <point x="123.540216908" y="237.104643179"/>
      <point x="123.540216908" y="253.214524713" type="curve" smooth="yes"/>
      <point x="123.540216908" y="319.347665863"/>
      <point x="105.796636879" y="383.128870114"/>
      <point x="99.5025253169" y="446.0" type="curve" smooth="yes"/>
      <point x="97.6652312872" y="484.035059658"/>
      <point x="88.0258642422" y="536.033273087"/>
      <point x="82.8678598015" y="576.584874464" type="curve"/>
      <point x="79.8239466783" y="576.44701028"/>
      <point x="76.8109463258" y="576.377828216"/>
      <point x="73.8366494385" y="576.377828216" type="curve" smooth="yes"/>
      <point x="61.8741793777" y="576.377828216"/>
      <point x="56.1960217876" y="583.368551891"/>
      <point x="50.1171422085" y="589.44743147" type="curve" smooth="yes"/>
      <point x="0.619667525444" y="638.944906153" type="line" smooth="yes"/>
      <point x="-33.6608803662" y="673.225454045"/>
      <point x="-39.7705110533" y="736.541078229"/>
      <point x="-44.4974746831" y="782.0" type="curve"/>
      <point x="53.4385411706" y="792.183699194" type="line"/>
      <point x="57.3584454198" y="754.486218407"/>
      <point x="60.1585480617" y="713.009983668"/>
      <point x="76.1077078944" y="675.386127564" type="curve" smooth="yes"/>
      <point x="76.8036198325" y="675.394280718"/>
      <point x="77.501516744" y="675.40616608"/>
      <point x="78.2013007406" y="675.42177737" type="curve" smooth="yes"/>
      <point x="80.8396141947" y="707.395869655"/>
      <point x="89.3802388402" y="735.110495292"/>
      <point x="108.263707466" y="753.993963918" type="curve" smooth="yes"/>
      <point x="157.761182149" y="803.491438601" type="line" smooth="yes"/>
      <point x="174.23175842" y="819.962014872"/>
      <point x="198.570872219" y="829.714101482"/>
      <point x="233.725089397" y="829.714101482" type="curve" smooth="yes"/>
      <point x="236.736733811" y="829.714101482"/>
      <point x="239.827753127" y="829.642528341"/>
      <point x="243.0" y="829.497474683" type="curve"/>
      <point x="292.497474683" y="780.0" type="line"/>
      <point x="295.74547042" y="769.132063736"/>
      <point x="297.253572391" y="758.792892593"/>
      <point x="297.253572391" y="748.997361115" type="curve" smooth="yes"/>
      <point x="297.253572391" y="721.548135009"/>
      <point x="285.411303778" y="698.367802555"/>
      <point x="266.827167947" y="679.783666724" type="curve" smooth="yes"/>
      <point x="217.329693264" y="630.286192041" type="line" smooth="yes"/>
      <point x="206.482978429" y="619.439477206"/>
      <point x="193.339629024" y="610.158468682"/>
      <point x="178.913724331" y="602.508241968" type="curve"/>
      <point x="183.76631965" y="553.052781988"/>
      <point x="196.209659214" y="493.361607027"/>
      <point x="198.497474683" y="446.0" type="curve" smooth="yes"/>
      <point x="204.793536498" y="383.109389277"/>
      <point x="222.535166274" y="319.362619729"/>
      <point x="222.535166274" y="253.214524713" type="curve" smooth="yes"/>
      <point x="222.535166274" y="226.901664753"/>
      <point x="220.407646721" y="166.893021242"/>
    </contour>
    <contour>
      <point x="187.783023028" y="706.513944955" type="curve" smooth="yes"/>
      <point x="190.992178985" y="712.644794333"/>
      <point x="193.537052079" y="719.106151953"/>
      <point x="195.31455506" y="725.891402498" type="curve"/>
      <point x="192.635662342" y="725.130695012"/>
      <point x="190.053468378" y="724.284370159"/>
      <point x="187.564990394" y="723.355498799" type="curve" smooth="yes"/>
      <point x="184.963892394" y="716.887492949"/>
      <point x="182.880897026" y="709.999059778"/>
      <point x="181.247165831" y="702.761070957" type="curve"/>
      <point x="183.459113726" y="703.973087523"/>
      <point x="185.638988051" y="705.224126072"/>
    </contour>
    <contour>
      <point x="69.2346290535" y="104.185361433" type="curve"/>
      <point x="72.426892161" y="93.3332274203"/>
      <point x="76.9093051719" y="82.2129225439"/>
      <point x="82.5870046559" y="71.703436535" type="curve" smooth="yes"/>
      <point x="86.9575911229" y="69.8785290254"/>
      <point x="91.5117030607" y="68.4982379005"/>
      <point x="96.2418798824" y="67.6316918158" type="curve"/>
      <point x="99.5468370601" y="76.2274511318"/>
      <point x="102.458502239" y="85.5640990078"/>
      <point x="105.022608866" y="95.3273312446" type="curve"/>
      <point x="94.0237437159" y="100.032200374"/>
      <point x="82.1931516512" y="103.171585499"/>
    </contour>
  </outline>
</glyph>
<glyph name="M" format="2">
  <advance width="650"/>
  <unicode hex="004D"/>
  <outline>
    <contour>
      <point x="560.497474683" y="748.0" type="curve" smooth="yes"/>
      <point x="560.497474683" y="662.101364868"/>
      <point x="557.178652652" y="574.309258287"/>
      <point x="557.178652652" y="488.774969525" type="curve" smooth="yes"/>
      <point x="557.178652652" y="314.607392996"/>
      <point x="571.157972439" y="152.869136466"/>
      <point x="656.497474683" y="40.0" type="curve"/>
      <point x="694.497474683" y="-4.0" type="line"/>
      <point x="637.795042147" y="-52.970282645" type="line"/>
      <point x="557.502525317" y="40.0" type="line"/>
      <point x="472.163023073" y="152.869136466"/>
      <point x="458.183703286" y="314.607392996"/>
      <point x="458.183703286" y="488.774969525" type="curve" smooth="yes"/>
      <point x="458.183703286" y="533.403491987"/>
      <point x="459.10746327" y="579.153035249"/>
      <point x="459.974074206" y="624.610110497" type="curve"/>
      <point x="424.068641367" y="528.360498007"/>
      <point x="392.323836511" y="418.266003232"/>
      <point x="392.323836511" y="376.890296154" type="curve" smooth="yes"/>
      <point x="392.323836511" y="375.134322193"/>
      <point x="392.381013062" y="373.502119766"/>
      <point x="392.497474683" y="372.0" type="curve"/>
      <point x="293.502525317" y="372.0" type="line"/>
      <point x="270.545973192" y="415.745281498"/>
      <point x="247.266195682" y="458.550486647"/>
      <point x="225.165978974" y="504.45618161" type="curve"/>
      <point x="222.422029504" y="319.518598335"/>
      <point x="212.267026772" y="138.742498597"/>
      <point x="82.4974746831" y="2.0" type="curve"/>
      <point x="33.0" y="-47.4974746831" type="line"/>
      <point x="32.0971068737" y="-46.7791175479"/>
      <point x="31.2150884107" y="-45.9858976737"/>
      <point x="30.354049735" y="-45.124858998" type="curve" smooth="yes"/>
      <point x="-19.1434249481" y="4.37261568506" type="line" smooth="yes"/>
      <point x="-34.1758332436" y="19.4050239806"/>
      <point x="-42.813648812" y="55.1084528028"/>
      <point x="-44.4974746831" y="74.0" type="curve"/>
      <point x="43.7812266565" y="81.8683847133" type="line"/>
      <point x="122.689378381" y="215.578457055"/>
      <point x="124.663090842" y="377.815824238"/>
      <point x="126.651196553" y="541.236303537" type="curve" smooth="yes"/>
      <point x="127.764138127" y="632.719087607"/>
      <point x="128.881590201" y="724.572630665"/>
      <point x="143.502525317" y="812.0" type="curve"/>
      <point x="242.497474683" y="812.0" type="line"/>
      <point x="242.469221058" y="809.886046687"/>
      <point x="242.455202541" y="807.775222526"/>
      <point x="242.455202541" y="805.667520653" type="curve" smooth="yes"/>
      <point x="242.455202541" y="699.067108952"/>
      <point x="278.314475333" y="600.45349178"/>
      <point x="322.011623845" y="508.938861436" type="curve"/>
      <point x="354.997186526" y="618.858467462"/>
      <point x="408.480311225" y="754.380001785"/>
      <point x="438.739937536" y="784.639628096" type="curve" smooth="yes"/>
      <point x="488.237412219" y="834.137102779" type="line" smooth="yes"/>
      <point x="492.255171337" y="838.154861897"/>
      <point x="495.863511154" y="840.316903325"/>
      <point x="498.960090191" y="840.316903325" type="curve" smooth="yes"/>
      <point x="500.680175139" y="840.316903325"/>
      <point x="502.242352699" y="839.649790233"/>
      <point x="503.629081848" y="838.263061083" type="curve" smooth="yes"/>
      <point x="553.126556531" y="788.7655864" type="line" smooth="yes"/>
      <point x="557.814593837" y="784.077549095"/>
      <point x="560.497474683" y="771.165197957"/>
    </contour>
  </outline>
</glyph>
<glyph name="N" format="2">
  <advance width="516"/>
  <unicode hex="004E"/>
  <outline>
    <contour>
      <point x="160.497474683" y="172.0" type="curve" smooth="yes"/>
      <point x="160.497474683" y="156.303911086"/>
      <point x="161.284205619" y="139.909205997"/>
      <point x="161.284205619" y="123.02302369" type="curve" smooth="yes"/>
      <point x="161.284205619" y="81.7625378282"/>
      <point x="157.41815358" y="33.7556373782"/>
      <point x="132.545749261" y="8.88323305891" type="curve" smooth="yes"/>
      <point x="83.0482745776" y="-40.6142416241" type="line" smooth="yes"/>
      <point x="72.5432223209" y="-51.1192938808"/>
      <point x="58.2909297917" y="-57.4974746831"/>
      <point x="39.0" y="-57.4974746831" type="curve" smooth="yes"/>
      <point x="33.3659065448" y="-56.4750776955"/>
      <point x="28.9772768929" y="-53.9950824661"/>
      <point x="25.4895513514" y="-50.5073569246" type="curve" smooth="yes"/>
      <point x="-24.0079233317" y="-1.00988224154" type="line" smooth="yes"/>
      <point x="-37.7246311335" y="12.7068255603"/>
      <point x="-36.7550765385" y="40.6686069741"/>
      <point x="-44.4974746831" y="60.0" type="curve"/>
      <point x="40.8130291012" y="94.1676300992" type="line"/>
      <point x="54.4974746831" y="60.0" type="line" smooth="yes"/>
      <point x="55.1247893393" y="58.4337072732"/>
      <point x="55.6930784367" y="56.7690156992"/>
      <point x="56.2178621598" y="55.0261885438" type="curve"/>
      <point x="61.1633735112" y="76.5258155826"/>
      <point x="62.2892562456" y="100.756774956"/>
      <point x="62.2892562456" y="123.023024176" type="curve" smooth="yes"/>
      <point x="62.2892562456" y="139.939374355"/>
      <point x="61.5025253169" y="156.267575895"/>
      <point x="61.5025253169" y="172.0" type="curve" smooth="yes"/>
      <point x="56.6888210916" y="255.209999865"/>
      <point x="47.9031203757" y="347.399508188"/>
      <point x="47.9031203757" y="429.243368393" type="curve" smooth="yes"/>
      <point x="47.9031203757" y="553.522628297"/>
      <point x="68.0947968342" y="672.783922356"/>
      <point x="153.541677369" y="758.230802891" type="curve" smooth="yes"/>
      <point x="203.039152052" y="807.728277574" type="line" smooth="yes"/>
      <point x="210.714213305" y="815.403338827"/>
      <point x="216.23871326" y="818.682724007"/>
      <point x="220.137852129" y="818.682724007" type="curve" smooth="yes"/>
      <point x="221.807319635" y="818.682724007"/>
      <point x="223.178819987" y="818.081535091"/>
      <point x="224.293577429" y="816.966777649" type="curve" smooth="yes"/>
      <point x="273.791052112" y="767.469302966" type="line" smooth="yes"/>
      <point x="276.91314298" y="764.347212098"/>
      <point x="278.021376155" y="757.196757126"/>
      <point x="278.021376155" y="747.94280476" type="curve" smooth="yes"/>
      <point x="278.021376155" y="726.491736721"/>
      <point x="271.383072907" y="691.529545856"/>
      <point x="271.383072907" y="670.416277369" type="curve" smooth="yes"/>
      <point x="271.383072907" y="666.081018316"/>
      <point x="271.706866138" y="662.507596725"/>
      <point x="272.497474683" y="660.0" type="curve" smooth="yes"/>
      <point x="281.821554795" y="621.015676368"/>
      <point x="284.783854703" y="580.081797601"/>
      <point x="284.783854703" y="538.34109265" type="curve" smooth="yes"/>
      <point x="284.783854703" y="466.03513009"/>
      <point x="275.78635096" y="390.85187934"/>
      <point x="275.78635096" y="318.801699828" type="curve" smooth="yes"/>
      <point x="275.78635096" y="282.749751875"/>
      <point x="278.067642857" y="247.61016431"/>
      <point x="284.92764576" y="214.155210318" type="curve"/>
      <point x="323.704627947" y="404.119212523"/>
      <point x="386.808481203" y="574.346127483"/>
      <point x="443.502525317" y="748.0" type="curve"/>
      <point x="497.140707089" y="819.517575696" type="line"/>
      <point x="560.497474683" y="772.0" type="line"/>
      <point x="542.497474683" y="748.0" type="line"/>
      <point x="467.294649074" y="517.653724736"/>
      <point x="380.219955853" y="291.766829406"/>
      <point x="354.497474683" y="18.0" type="curve"/>
      <point x="255.502525317" y="18.0" type="line"/>
      <point x="255.502525317" y="37.9478000499"/>
      <point x="204.624433981" y="144.79366386"/>
      <point x="197.502525317" y="172.0" type="curve" smooth="yes"/>
      <point x="181.456019039" y="217.563040998"/>
      <point x="176.791402129" y="267.249607717"/>
      <point x="176.791402129" y="318.801701567" type="curve" smooth="yes"/>
      <point x="176.791402129" y="390.845340218"/>
      <point x="185.788904993" y="466.041696042"/>
      <point x="185.788904993" y="538.34109165" type="curve" smooth="yes"/>
      <point x="185.788904993" y="572.473902916"/>
      <point x="183.808045961" y="606.067197906"/>
      <point x="177.987456363" y="638.496120458" type="curve"/>
      <point x="154.154292774" y="574.857078085"/>
      <point x="146.898069773" y="504.459113859"/>
      <point x="146.898069773" y="429.243367747" type="curve" smooth="yes"/>
      <point x="146.898069773" y="347.425121006"/>
      <point x="155.686365338" y="255.165144605"/>
    </contour>
  </outline>
</glyph>
<glyph name="O" format="2">
  <advance width="418"/>
  <unicode hex="004F"/>
  <outline>
    <contour>
      <point x="253.48046875" y="51.4974746831" type="curve" smooth="yes"/>
      <point x="254.16421971" y="51.4687587962"/>
      <point x="266.581767269" y="53.0417651799"/>
      <point x="272.242716056" y="55.4163154642" type="curve" smooth="yes"/>
      <point x="329.522061618" y="147.46456831"/>
      <point x="363.982994067" y="330.498466572"/>
      <point x="363.982994067" y="376.0" type="curve" smooth="yes"/>
      <point x="360.932321848" y="420.878587862"/>
      <point x="352.391870409" y="465.079208711"/>
      <point x="339.671964887" y="508.064396744" type="curve"/>
      <point x="332.141753025" y="492.012083607"/>
      <point x="322.156489253" y="477.293637108"/>
      <point x="309.578726799" y="464.715874655" type="curve" smooth="yes"/>
      <point x="260.081252116" y="415.218399971" type="line" smooth="yes"/>
      <point x="255.552555005" y="410.68970286"/>
      <point x="250.687765784" y="406.438524509"/>
      <point x="245.48046875" y="402.502525317" type="curve"/>
      <point x="197.860521044" y="465.503354417" type="line"/>
      <point x="231.239404387" y="490.733191896" type="line"/>
      <point x="249.788026692" y="520.30011834"/>
      <point x="258.530440806" y="556.261340988"/>
      <point x="258.530440806" y="592.372350281" type="curve" smooth="yes"/>
      <point x="258.530440806" y="631.930453261"/>
      <point x="248.039292321" y="671.668304526"/>
      <point x="228.455439278" y="703.376987851" type="curve"/>
      <point x="211.016879165" y="713.414926521"/>
      <point x="190.963048831" y="719.175730497"/>
      <point x="168.546701284" y="719.175730497" type="curve" smooth="yes"/>
      <point x="141.146869877" y="719.175730497"/>
      <point x="118.3967226" y="711.792575712"/>
      <point x="100.03085522" y="700.950828785" type="curve"/>
      <point x="77.9735679833" y="665.808335149"/>
      <point x="66.9779434331" y="621.236794034"/>
      <point x="66.9779434331" y="578.0" type="curve" smooth="yes"/>
      <point x="66.9779434331" y="532.0" type="line"/>
      <point x="64.2408846337" y="452.916062589"/>
      <point x="54.4978426877" y="368.026249282"/>
      <point x="54.4978426877" y="289.326160881" type="curve" smooth="yes"/>
      <point x="54.4978426877" y="206.486958968"/>
      <point x="65.6994665714" y="131.203572973"/>
      <point x="108.683641524" y="72.3881308579" type="curve" smooth="yes"/>
      <point x="112.793007565" y="69.3459632961"/>
      <point x="117.056848074" y="66.3816454097"/>
      <point x="121.48046875" y="63.4974746831" type="curve"/>
      <point x="133.48046875" y="63.4974746831" type="line" smooth="yes"/>
      <point x="171.776811362" y="63.4974746831"/>
      <point x="213.994720501" y="51.4974746831"/>
    </contour>
    <contour>
      <point x="133.48046875" y="-35.4974746831" type="curve" smooth="yes"/>
      <point x="121.48046875" y="-35.4974746831" type="line"/>
      <point x="106.483139484" y="-25.719317555"/>
      <point x="93.3223272723" y="-15.0199470598"/>
      <point x="81.7912750924" y="-3.48889487996" type="curve" smooth="yes"/>
      <point x="32.2938004094" y="46.0085798031" type="line" smooth="yes"/>
      <point x="-29.513426003" y="107.815806215"/>
      <point x="-44.4971065945" y="193.517523046"/>
      <point x="-44.4971065945" y="289.326161298" type="curve" smooth="yes"/>
      <point x="-44.4971065945" y="368.061241223"/>
      <point x="-34.7554172332" y="452.876983748"/>
      <point x="-32.0170059331" y="532.0" type="curve"/>
      <point x="-32.0170059331" y="578.0" type="line" smooth="yes"/>
      <point x="-32.0170059331" y="634.040212488"/>
      <point x="-13.5450671335" y="692.322713833"/>
      <point x="23.5426018861" y="729.410382853" type="curve" smooth="yes"/>
      <point x="73.0400765691" y="778.907857536" type="line" smooth="yes"/>
      <point x="96.2381279337" y="802.1059089"/>
      <point x="126.117846289" y="818.170679863"/>
      <point x="168.54670128" y="818.170679863" type="curve" smooth="yes"/>
      <point x="203.637587725" y="818.170679863"/>
      <point x="232.939068832" y="804.053690953"/>
      <point x="255.481562025" y="781.51119776" type="curve" smooth="yes"/>
      <point x="300.369418141" y="736.623341643" type="line"/>
      <point x="322.274585849" y="749.936638762" type="line"/>
      <point x="348.977943433" y="706.0" type="line" smooth="yes"/>
      <point x="409.035560621" y="607.18359375"/>
      <point x="454.961341871" y="493.932617188"/>
      <point x="462.977943433" y="376.0" type="curve" smooth="yes"/>
      <point x="462.977943433" y="324.341570682"/>
      <point x="418.560111834" y="95.4131435314"/>
      <point x="346.761423318" y="23.6144550153" type="curve" smooth="yes"/>
      <point x="297.263948635" y="-25.8830196677" type="line" smooth="yes"/>
      <point x="283.619341558" y="-39.5276267445"/>
      <point x="268.985871588" y="-47.4974746831"/>
      <point x="253.48046875" y="-47.4974746831" type="curve" smooth="yes"/>
      <point x="214.023804522" y="-47.4974746831"/>
      <point x="171.744498951" y="-35.4974746831"/>
    </contour>
  </outline>
</glyph>
<glyph name="P" format="2">
  <advance width="542"/>
  <unicode hex="0050"/>
  <outline>
    <contour>
      <point x="248.477261379" y="492.304788358" type="curve" smooth="yes"/>
      <point x="248.477261379" y="490.836270129"/>
      <point x="248.497474683" y="489.404799775"/>
      <point x="248.497474683" y="488.0" type="curve" smooth="yes"/>
      <point x="248.497474683" y="458.872751938"/>
      <point x="255.771592485" y="425.086153412"/>
      <point x="270.87778456" y="397.154731612" type="curve"/>
      <point x="281.647430774" y="392.258539109"/>
      <point x="293.677097422" y="389.497474683"/>
      <point x="307.0" y="389.497474683" type="curve" smooth="yes"/>
      <point x="355.848382623" y="389.497474793"/>
      <point x="412.208584629" y="409.39905874"/>
      <point x="456.911710358" y="442.6343407" type="curve"/>
      <point x="475.872787569" y="469.030148844"/>
      <point x="487.502525317" y="499.309625491"/>
      <point x="487.502525317" y="532.0" type="curve" smooth="yes"/>
      <point x="487.502525317" y="590.04632913"/>
      <point x="472.905265655" y="637.271195846"/>
      <point x="447.112668962" y="674.080092321" type="curve"/>
      <point x="399.264525466" y="707.996340632"/>
      <point x="335.365896148" y="724.502525317"/>
      <point x="263.0" y="724.502525317" type="curve" smooth="yes"/>
      <point x="195.62310672" y="724.502525317"/>
      <point x="142.331251" y="722.357355838"/>
      <point x="104.618236132" y="704.44748713" type="curve"/>
      <point x="93.7198461633" y="681.353768713"/>
      <point x="88.0592598988" y="647.42605197"/>
      <point x="88.0592598988" y="609.069780761" type="curve" smooth="yes"/>
      <point x="88.0592598988" y="559.837937115"/>
      <point x="97.0100854716" y="510.613951414"/>
      <point x="116.497474683" y="466.0" type="curve"/>
      <point x="33.3639481323" y="429.687247216" type="line"/>
      <point x="17.5025253169" y="466.0" type="line" smooth="yes"/>
      <point x="-1.98486389454" y="510.613951414"/>
      <point x="-10.9356894673" y="559.837937115"/>
      <point x="-10.9356894673" y="609.069780761" type="curve" smooth="yes"/>
      <point x="-10.9356894673" y="667.124406219"/>
      <point x="1.50774324017" y="709.286718552"/>
      <point x="25.8560252119" y="733.635000524" type="curve" smooth="yes"/>
      <point x="75.353499895" y="783.132475207" type="line" smooth="yes"/>
      <point x="112.12136744" y="819.900342753"/>
      <point x="175.751421365" y="823.497474683"/>
      <point x="263.0" y="823.497474683" type="curve" smooth="yes"/>
      <point x="350.053264168" y="823.497474683"/>
      <point x="424.853442466" y="799.611172007"/>
      <point x="474.199533527" y="750.265080946" type="curve" smooth="yes"/>
      <point x="523.69700821" y="700.767606263" type="line" smooth="yes"/>
      <point x="563.290917462" y="661.173697011"/>
      <point x="586.497474683" y="605.188765327"/>
      <point x="586.497474683" y="532.0" type="curve" smooth="yes"/>
      <point x="586.497474683" y="487.979247096"/>
      <point x="565.409005184" y="448.330230436"/>
      <point x="533.727958093" y="416.649183345" type="curve" smooth="yes"/>
      <point x="484.23048341" y="367.151708662" type="line" smooth="yes"/>
      <point x="437.082198032" y="320.003423283"/>
      <point x="366.473566973" y="290.502525317"/>
      <point x="307.0" y="290.502525317" type="curve" smooth="yes"/>
      <point x="280.978088231" y="290.502525317"/>
      <point x="259.889714237" y="301.035650267"/>
      <point x="243.487385663" y="317.437978841" type="curve" smooth="yes"/>
      <point x="193.98991098" y="366.935453524" type="line" smooth="yes"/>
      <point x="163.8181721" y="397.107192405"/>
      <point x="149.502525317" y="447.138455652"/>
      <point x="149.502525317" y="488.0" type="curve" smooth="yes"/>
      <point x="149.502525317" y="489.403071337"/>
      <point x="149.482312013" y="490.837849864"/>
      <point x="149.482312013" y="492.304788358" type="curve" smooth="yes"/>
      <point x="149.482312013" y="499.393269311"/>
      <point x="149.894755735" y="508.706690406"/>
      <point x="154.445776494" y="513.257711165" type="curve" smooth="yes"/>
      <point x="203.943251177" y="562.755185848" type="line" smooth="yes"/>
      <point x="205.648843825" y="564.460778496"/>
      <point x="207.93571468" y="565.497474683"/>
      <point x="211.0" y="565.497474683" type="curve"/>
      <point x="211.0" y="470.816985305" type="line"/>
      <point x="253.44072586" y="513.257711165" type="line"/>
      <point x="248.889705102" y="508.706690406"/>
      <point x="248.477261379" y="499.393269311"/>
    </contour>
    <contour>
      <point x="115.526410515" y="174.912760395" type="curve" smooth="yes"/>
      <point x="115.526410515" y="179.450799433"/>
      <point x="115.502525317" y="183.720097238"/>
      <point x="115.502525317" y="188.0" type="curve" smooth="yes"/>
      <point x="115.502525317" y="260.521181074"/>
      <point x="107.99513224" y="245.020244666"/>
      <point x="107.502525317" y="313.0" type="curve" smooth="yes"/>
      <point x="105.502525317" y="589.0" type="line"/>
      <point x="204.492276733" y="589.717317039" type="line"/>
      <point x="206.497474683" y="313.0" type="line"/>
      <point x="209.096844325" y="245.094885827"/>
      <point x="214.497474683" y="260.494225062"/>
      <point x="214.497474683" y="188.0" type="curve" smooth="yes"/>
      <point x="214.497474683" y="183.726555478"/>
      <point x="214.521359881" y="179.444829716"/>
      <point x="214.521359881" y="174.912760395" type="curve" smooth="yes"/>
      <point x="214.521359881" y="132.271991328"/>
      <point x="212.728946137" y="50.9022074013"/>
      <point x="178.089730953" y="16.2629922173" type="curve" smooth="yes"/>
      <point x="128.59225627" y="-33.2344824658" type="line" smooth="yes"/>
      <point x="118.462644793" y="-43.3640939424"/>
      <point x="105.524092595" y="-49.4974746831"/>
      <point x="89.0" y="-49.4974746831" type="curve" smooth="yes"/>
      <point x="73.6468443245" y="-49.4974746831"/>
      <point x="62.6607472084" y="-43.4616244413"/>
      <point x="53.8313298111" y="-34.6322070439" type="curve" smooth="yes"/>
      <point x="4.33385512803" y="14.8652676391" type="line" smooth="yes"/>
      <point x="-11.647059763" y="30.8461825301"/>
      <point x="-20.6878532628" y="56.1903785797"/>
      <point x="-36.4974746831" y="72.0" type="curve"/>
      <point x="-44.4974746831" y="83.0" type="line"/>
      <point x="20.2505732807" y="130.089489428" type="line"/>
      <point x="34.6583038941" y="110.500536114"/>
      <point x="48.6931820478" y="90.5387303405"/>
      <point x="63.3326652931" y="71.1815296583" type="curve"/>
      <point x="69.0950124111" y="65.4191825403"/>
      <point x="73.9591351874" y="58.1603125088"/>
      <point x="78.6687647408" y="50.4958578154" type="curve" smooth="yes"/>
      <point x="81.8812906519" y="49.8452143136"/>
      <point x="85.3148470316" y="49.4974746831"/>
      <point x="89.0" y="49.4974746831" type="curve" smooth="yes"/>
      <point x="92.7423639114" y="49.4974746831"/>
      <point x="96.300815253" y="49.8120732342"/>
      <point x="99.6843756003" y="50.416443568" type="curve" smooth="yes"/>
      <point x="114.530827569" y="89.8423727641"/>
      <point x="115.526410515" y="143.13343889"/>
    </contour>
  </outline>
</glyph>
<glyph name="Q" format="2">
  <advance width="382"/>
  <unicode hex="0051"/>
  <outline>
    <contour>
      <point x="54.1257723165" y="396.454189674" type="curve" smooth="yes"/>
      <point x="54.1257723165" y="302.103888343"/>
      <point x="74.5079956463" y="166.133029135"/>
      <point x="136.081699704" y="81.23739494" type="curve"/>
      <point x="155.238993089" y="68.0212995057"/>
      <point x="176.924930061" y="58.7897229765"/>
      <point x="201.407737411" y="54.7374936927" type="curve"/>
      <point x="215.923602141" y="65.1238451803"/>
      <point x="230.562850128" y="75.368257833"/>
      <point x="244.957878172" y="85.9151104464" type="curve"/>
      <point x="306.573495603" y="167.924702882"/>
      <point x="327.175236089" y="291.034163084"/>
      <point x="327.175236089" y="395.081403515" type="curve" smooth="yes"/>
      <point x="327.175236089" y="412.698068393"/>
      <point x="326.584640545" y="429.768271575"/>
      <point x="325.502525317" y="446.0" type="curve"/>
      <point x="326.71398437" y="459.225094609"/>
      <point x="327.354697246" y="473.112662455"/>
      <point x="327.354697246" y="487.368431834" type="curve" smooth="yes"/>
      <point x="327.354697246" y="553.505318389"/>
      <point x="313.564527168" y="627.567067915"/>
      <point x="278.997832133" y="680.169893665" type="curve"/>
      <point x="257.879015828" y="693.169963546"/>
      <point x="232.826904355" y="700.678385675"/>
      <point x="203.361984932" y="700.678385675" type="curve" smooth="yes"/>
      <point x="194.327469679" y="700.678385675"/>
      <point x="184.878082333" y="699.972478045"/>
      <point x="175.0" y="698.502525317" type="curve"/>
      <point x="169.680185879" y="698.9305563"/>
      <point x="164.528626343" y="699.139856316"/>
      <point x="159.539948606" y="699.139856316" type="curve" smooth="yes"/>
      <point x="134.44493256" y="699.139856316"/>
      <point x="113.471618778" y="693.843547294"/>
      <point x="95.9360870867" y="684.451427731" type="curve"/>
      <point x="57.0343752379" y="618.118274787"/>
      <point x="55.7211668331" y="513.658107616"/>
      <point x="54.7505468017" y="436.449394685" type="curve" smooth="yes"/>
      <point x="54.5752704724" y="422.506904981"/>
      <point x="54.1257723165" y="410.448693644"/>
    </contour>
    <contour>
      <point x="332.876988743" y="28.0415511041" type="curve"/>
      <point x="345.30648556" y="0.426325282646"/>
      <point x="390.535807755" y="-23.3794886416"/>
      <point x="390.535807755" y="-59.1990782336" type="curve" smooth="yes"/>
      <point x="390.535807755" y="-59.7962931756"/>
      <point x="390.523152101" y="-60.3965806796"/>
      <point x="390.497474683" y="-61.0" type="curve" smooth="yes"/>
      <point x="390.497474683" y="-97.170215044"/>
      <point x="357.351831062" y="-115.933273609"/>
      <point x="342.497474683" y="-141.0" type="curve"/>
      <point x="293.0" y="-190.497474683" type="line"/>
      <point x="221.0" y="-190.497474683" type="line"/>
      <point x="221.0" y="-91.5025253169" type="line"/>
      <point x="282.756583182" y="-91.5025253169" type="line"/>
      <point x="288.01040705" y="-82.711490331"/>
      <point x="291.502525317" y="-72.8924677759"/>
      <point x="291.502525317" y="-61.0" type="curve" smooth="yes"/>
      <point x="291.528202735" y="-60.3965806796"/>
      <point x="291.540858389" y="-59.7962931756"/>
      <point x="291.540858389" y="-59.1990782336" type="curve" smooth="yes"/>
      <point x="291.540858389" y="-47.4681257508"/>
      <point x="286.657823437" y="-36.9226850155"/>
      <point x="279.666466064" y="-27.1136696065" type="curve"/>
      <point x="267.820720757" y="-38.9594149163"/>
      <point x="247.979670442" y="-46.641318829"/>
      <point x="229.281951722" y="-46.641318829" type="curve" smooth="yes"/>
      <point x="179.690193493" y="-46.641318829"/>
      <point x="140.842435663" y="-26.7336044217"/>
      <point x="110.102157263" y="4.00667397867" type="curve" smooth="yes"/>
      <point x="60.6046825795" y="53.5041486617" type="line" smooth="yes"/>
      <point x="-19.4001624757" y="133.508993717"/>
      <point x="-44.8691770553" y="290.985491543"/>
      <point x="-44.8691770553" y="396.454189513" type="curve" smooth="yes"/>
      <point x="-44.8691770553" y="410.449647786"/>
      <point x="-44.4196695393" y="422.507649085"/>
      <point x="-44.2444025644" y="436.449394685" type="curve" smooth="yes"/>
      <point x="-43.1154583201" y="526.252128252"/>
      <point x="-41.5230467654" y="652.921723581"/>
      <point x="19.1396828846" y="713.584453231" type="curve" smooth="yes"/>
      <point x="68.6371575676" y="763.081927914" type="line" smooth="yes"/>
      <point x="90.4184162237" y="784.86318657"/>
      <point x="119.815050993" y="798.134805793"/>
      <point x="159.539947332" y="798.134805793" type="curve" smooth="yes"/>
      <point x="164.528625458" y="798.134805793"/>
      <point x="169.680185419" y="797.925505741"/>
      <point x="175.0" y="797.497474683" type="curve"/>
      <point x="184.878082337" y="798.967427412"/>
      <point x="194.327469688" y="799.673335042"/>
      <point x="203.361984945" y="799.673335042" type="curve" smooth="yes"/>
      <point x="246.338080434" y="799.673335042"/>
      <point x="279.926492777" y="783.700129619"/>
      <point x="305.615093028" y="758.011529368" type="curve" smooth="yes"/>
      <point x="355.112567711" y="708.514054685" type="line" smooth="yes"/>
      <point x="406.59635481" y="657.030267586"/>
      <point x="426.349646598" y="566.523490279"/>
      <point x="426.349646598" y="487.368431691" type="curve" smooth="yes"/>
      <point x="426.349646598" y="473.112662361"/>
      <point x="425.708933727" y="459.225094562"/>
      <point x="424.497474683" y="446.0" type="curve"/>
      <point x="425.579589909" y="429.768271609"/>
      <point x="426.170185452" y="412.698068465"/>
      <point x="426.170185452" y="395.081403629" type="curve" smooth="yes"/>
      <point x="426.170185452" y="278.817238387"/>
      <point x="400.446420228" y="138.751585919"/>
      <point x="320.519255438" y="58.8244211285" type="curve" smooth="yes"/>
      <point x="312.694834309" y="51.0" type="line"/>
      <point x="332.497474683" y="51.0" type="line"/>
      <point x="334.586748609" y="46.6821672185"/>
      <point x="335.531405349" y="42.5971379326"/>
      <point x="335.531405349" y="38.7692316559" type="curve" smooth="yes"/>
      <point x="335.531405349" y="34.9259393466"/>
      <point x="334.579139369" y="31.3418411806"/>
    </contour>
  </outline>
</glyph>
<glyph name="R" format="2">
  <advance width="533"/>
  <unicode hex="0052"/>
  <outline>
    <contour>
      <point x="424.8984375" y="-47.4974746831" type="curve" smooth="yes"/>
      <point x="404.507755586" y="-47.4974746831"/>
      <point x="387.184467263" y="-38.1724082147"/>
      <point x="372.618824729" y="-23.6067656805" type="curve" smooth="yes"/>
      <point x="323.121350046" y="25.8907090025" type="line" smooth="yes"/>
      <point x="287.818640974" y="61.193418074"/>
      <point x="268.715194822" y="127.280889235"/>
      <point x="261.400962817" y="166.0" type="curve" smooth="yes"/>
      <point x="250.249850469" y="225.029098547"/>
      <point x="252.18260297" y="286.624151525"/>
      <point x="244.854147234" y="347.946046739" type="curve"/>
      <point x="199.304851852" y="393.49534212" type="line" smooth="yes"/>
      <point x="172.658334269" y="420.141859703"/>
      <point x="155.195716669" y="461.123435097"/>
      <point x="155.195716669" y="498.96891347" type="curve" smooth="yes"/>
      <point x="155.195716669" y="505.921207161"/>
      <point x="156.01500208" y="513.431844726"/>
      <point x="158.813807615" y="516.230650261" type="curve" smooth="yes"/>
      <point x="208.311282298" y="565.728124944" type="line" smooth="yes"/>
      <point x="209.493968612" y="566.910811258"/>
      <point x="210.936686753" y="567.457239985"/>
      <point x="212.586244365" y="567.457239985" type="curve" smooth="yes"/>
      <point x="217.327817623" y="567.457239985"/>
      <point x="223.778396032" y="562.942388421"/>
      <point x="230.674657305" y="556.046127147" type="curve" smooth="yes"/>
      <point x="280.172131988" y="506.548652464" type="line" smooth="yes"/>
      <point x="299.411342433" y="487.309442019"/>
      <point x="315.169552877" y="457.010174746"/>
      <point x="321.596475402" y="441.072452838" type="curve"/>
      <point x="341.006495103" y="448.531925377"/>
      <point x="360.282195677" y="459.272989685"/>
      <point x="377.894090443" y="472.336277894" type="curve"/>
      <point x="394.860932272" y="495.939672552"/>
      <point x="405.400962817" y="522.020916523"/>
      <point x="405.400962817" y="548.0" type="curve" smooth="yes"/>
      <point x="405.400962675" y="603.724957663"/>
      <point x="392.929278841" y="654.227931754"/>
      <point x="365.816273047" y="694.08370931" type="curve"/>
      <point x="328.166516028" y="719.697863747"/>
      <point x="277.72648364" y="734.502525317"/>
      <point x="212.8984375" y="734.502525317" type="curve"/>
      <point x="203.332559367" y="735.887153115"/>
      <point x="194.308546185" y="736.550538034"/>
      <point x="185.794349076" y="736.550538034" type="curve" smooth="yes"/>
      <point x="163.239459924" y="736.550538034"/>
      <point x="144.262300399" y="731.89511031"/>
      <point x="128.267065953" y="723.659863038" type="curve"/>
      <point x="97.5694898296" y="670.131170483"/>
      <point x="92.0148175587" y="594.711288164"/>
      <point x="87.9944324918" y="531.708475879" type="curve"/>
      <point x="-10.5990371831" y="538.0" type="line"/>
      <point x="-5.96106947716" y="610.680851186"/>
      <point x="2.5896952012" y="704.251979606"/>
      <point x="51.4121870684" y="753.074471473" type="curve" smooth="yes"/>
      <point x="100.909661751" y="802.571946156" type="line" smooth="yes"/>
      <point x="121.298501403" y="822.960785807"/>
      <point x="148.710708551" y="835.545487384"/>
      <point x="185.794349179" y="835.545487384" type="curve" smooth="yes"/>
      <point x="194.308546259" y="835.545487384"/>
      <point x="203.332559408" y="834.882102469"/>
      <point x="212.8984375" y="833.497474683" type="curve"/>
      <point x="294.789413488" y="833.497474683"/>
      <point x="353.721701096" y="809.873949058"/>
      <point x="392.915812707" y="770.679837446" type="curve" smooth="yes"/>
      <point x="442.41328739" y="721.182362763" type="line" smooth="yes"/>
      <point x="485.124216548" y="678.471433605"/>
      <point x="504.395912183" y="617.270315634"/>
      <point x="504.395912183" y="548.0" type="curve" smooth="yes"/>
      <point x="504.395912183" y="512.00768302"/>
      <point x="484.165076229" y="475.819276267"/>
      <point x="454.641451495" y="446.295651533" type="curve" smooth="yes"/>
      <point x="405.143976812" y="396.79817685" type="line" smooth="yes"/>
      <point x="387.173459029" y="378.827659068"/>
      <point x="365.760013616" y="363.326406724"/>
      <point x="343.370318991" y="351.841639731" type="curve"/>
      <point x="351.257891231" y="289.42027092"/>
      <point x="349.004132039" y="226.303088316"/>
      <point x="360.395912183" y="166.0" type="curve" smooth="yes"/>
      <point x="365.894244697" y="136.893656985"/>
      <point x="378.05465031" y="92.3214809388"/>
      <point x="398.750527653" y="56.9870489821" type="curve"/>
      <point x="406.841304692" y="53.4586472027"/>
      <point x="415.547316397" y="51.4974746831"/>
      <point x="424.8984375" y="51.4974746831" type="curve" smooth="yes"/>
      <point x="435.150780559" y="51.4974756009"/>
      <point x="444.447910159" y="54.8629908448"/>
      <point x="453.05788166" y="60.222481507" type="curve" smooth="yes"/>
      <point x="457.940791388" y="65.5514970481"/>
      <point x="462.955319092" y="70.3984442084"/>
      <point x="468.034028767" y="75.4771538832" type="curve"/>
      <point x="476.943435199" y="96.2657688916"/>
      <point x="485.852841631" y="117.0543839"/>
      <point x="494.762248063" y="137.842998908" type="curve"/>
      <point x="578.395912183" y="102.0" type="line"/>
      <point x="566.395912183" y="74.0" type="line"/>
      <point x="551.142261207" y="58.7463490236"/>
      <point x="537.405535683" y="42.082279048"/>
      <point x="522.121570773" y="26.7983141379" type="curve" smooth="yes"/>
      <point x="472.62409609" y="-22.6991605451" type="line" smooth="yes"/>
      <point x="458.77446732" y="-36.5487893146"/>
      <point x="443.3902023" y="-47.4974746831"/>
    </contour>
    <contour>
      <point x="234.395912183" y="258.0" type="curve" smooth="yes"/>
      <point x="234.395912183" y="233.451689073"/>
      <point x="235.99522992" y="210.557726792"/>
      <point x="235.99522992" y="181.417620445" type="curve" smooth="yes"/>
      <point x="235.99522992" y="117.346272521"/>
      <point x="230.052609905" y="35.7471121392"/>
      <point x="195.257133986" y="0.951636220423" type="curve" smooth="yes"/>
      <point x="145.759659303" y="-48.5458384626" type="line" smooth="yes"/>
      <point x="135.078798559" y="-59.2266992064"/>
      <point x="121.679272476" y="-65.4974746831"/>
      <point x="104.8984375" y="-65.4974746831" type="curve" smooth="yes"/>
      <point x="85.0398454889" y="-65.4974746831"/>
      <point x="58.5582062134" y="-52.3040743718"/>
      <point x="40.252393662" y="-33.9982618205" type="curve" smooth="yes"/>
      <point x="8.53160537905" y="-2.27747353751" type="line"/>
      <point x="7.14233251853" y="-3.66674639802"/>
      <point x="5.03220056054" y="-5.54774773288"/>
      <point x="5.00579924399" y="-5.54683561397" type="curve" smooth="yes"/>
      <point x="5.00579924399" y="-5.54683561397"/>
      <point x="-44.4916754391" y="43.9506390691"/>
      <point x="-44.497962875" y="43.9701138127" type="curve" smooth="yes"/>
      <point x="-44.497962875" y="45.1260016179"/>
      <point x="-8.26855630249" y="85.667346831"/>
      <point x="-5.45928144023" y="88.4766216933" type="curve" smooth="yes"/>
      <point x="44.0381932428" y="137.974096376" type="line" smooth="yes"/>
      <point x="44.1390712633" y="138.074974397"/>
      <point x="44.1968556821" y="138.127198785"/>
      <point x="44.2098496209" y="138.126669934" type="curve" smooth="yes"/>
      <point x="44.2098496209" y="138.126669934"/>
      <point x="93.707324304" y="88.6291952508"/>
      <point x="93.7079188606" y="88.6273377391" type="curve" smooth="yes"/>
      <point x="93.7079188606" y="88.6273377391"/>
      <point x="81.6919362933" y="74.7675276993"/>
      <point x="66.8569266014" y="58.0" type="curve"/>
      <point x="68.3959121831" y="58.0" type="line"/>
      <point x="68.3959121831" y="52.8985252988"/>
      <point x="69.42924571" y="47.7712701671"/>
      <point x="71.2986053686" y="42.7259751469" type="curve" smooth="yes"/>
      <point x="82.9123240337" y="36.9313066888"/>
      <point x="94.767267435" y="33.4974746831"/>
      <point x="104.8984375" y="33.4974746831" type="curve" smooth="yes"/>
      <point x="109.24537906" y="33.4974746832"/>
      <point x="113.365425416" y="33.9182611091"/>
      <point x="117.270094929" y="34.7274906275" type="curve" smooth="yes"/>
      <point x="133.652547975" y="75.3644528715"/>
      <point x="137.000280554" y="133.328120692"/>
      <point x="137.000280554" y="181.417620444" type="curve" smooth="yes"/>
      <point x="137.000280554" y="210.645883415"/>
      <point x="135.400962817" y="233.328518281"/>
      <point x="135.400962817" y="258.0" type="curve" smooth="yes"/>
      <point x="135.400962817" y="389.387389007"/>
      <point x="97.3827254765" y="517.659493643"/>
      <point x="79.4009628169" y="640.0" type="curve"/>
      <point x="80.7275958127" y="649.28643097"/>
      <point x="82.0542288085" y="658.572861941"/>
      <point x="83.3808618043" y="667.859292911" type="curve"/>
      <point x="180.395912183" y="654.0" type="line"/>
      <point x="178.395912183" y="640.0" type="line"/>
      <point x="196.383587226" y="517.619268219"/>
      <point x="234.395912183" y="389.412527824"/>
    </contour>
    <contour>
      <point x="5.13402127329" y="93.3198917228" type="line"/>
      <point x="-2.42215013044" y="85.7637203191" type="line"/>
      <point x="25.3415701887" y="58.0" type="line"/>
      <point x="40.4539129961" y="58.0" type="line"/>
    </contour>
    <contour>
      <point x="-27.3186703712" y="60.8672000784" type="line"/>
      <point x="-30.1858704496" y="58.0" type="line"/>
      <point x="-24.0779676192" y="58.0" type="line"/>
    </contour>
  </outline>
</glyph>
